<?xml version="1.0" encoding="UTF-8"?>
<!DOCTYPE svg PUBLIC "-//W3C//DTD SVG 1.1//EN" "http://www.w3.org/Graphics/SVG/1.1/DTD/svg11.dtd">
<!-- Creator: CorelDRAW 2020 (64-Bit) -->
<svg xmlns="http://www.w3.org/2000/svg" xml:space="preserve" width="8.00002in" height="8.00007in" version="1.1" shape-rendering="geometricPrecision" text-rendering="geometricPrecision" image-rendering="optimizeQuality" fill-rule="evenodd" clip-rule="evenodd"
viewBox="0 0 2000.01 2000.02"
 xmlns:xlink="http://www.w3.org/1999/xlink"
 xmlns:xodm="http://www.corel.com/coreldraw/odm/2003">
 <defs>
    <clipPath id="id0" clip-rule="nonzero">
     <path d="M1000 666.68c92.05,0 175.38,37.31 235.7,97.63 60.32,60.32 97.63,143.66 97.63,235.7 0,92.05 -37.31,175.38 -97.63,235.7 -60.32,60.32 -143.65,97.63 -235.7,97.63 -92.04,0 -175.38,-37.31 -235.7,-97.63 -60.32,-60.32 -97.63,-143.65 -97.63,-235.7 0,-92.04 37.31,-175.38 97.63,-235.7 60.32,-60.32 143.66,-97.63 235.7,-97.63zm214.98 118.35c-55.01,-55.02 -131.02,-89.05 -214.98,-89.05 -83.95,0 -159.97,34.03 -214.98,89.05 -55.02,55.02 -89.05,131.03 -89.05,214.98 0,83.96 34.03,159.97 89.05,214.98 55.01,55.02 131.03,89.05 214.98,89.05 83.96,0 159.97,-34.03 214.98,-89.05 55.02,-55.01 89.05,-131.02 89.05,-214.98 0,-83.95 -34.03,-159.96 -89.05,-214.98z"/>
    </clipPath>
 </defs>
 <g id="Layer_x0020_1">
  <metadata id="CorelCorpID_0Corel-Layer"/>
  <rect fill="white" x="0" y="0" width="2000.01" height="2000.02"/>
  <g>
   <g clip-path="url(#id0)">
    <polygon fill="#114B62" fill-rule="nonzero" points="773.21,567.04 776.23,567.98 570.06,1227.75 567.03,1226.8 "/>
    <polygon id="1" fill="#114A62" fill-rule="nonzero" points="774.99,567.59 778.72,568.76 572.54,1228.52 568.81,1227.36 "/>
    <polygon id="2" fill="#114A62" fill-rule="nonzero" points="777.47,568.37 781.2,569.54 575.03,1229.3 571.3,1228.13 "/>
    <polygon id="3" fill="#114962" fill-rule="nonzero" points="779.96,569.15 783.69,570.31 577.51,1230.08 573.78,1228.91 "/>
    <polygon id="4" fill="#114961" fill-rule="nonzero" points="782.44,569.92 786.17,571.09 580,1230.85 576.27,1229.69 "/>
    <polygon id="5" fill="#114861" fill-rule="nonzero" points="784.93,570.7 788.66,571.87 582.48,1231.63 578.75,1230.46 "/>
    <polygon id="6" fill="#114961" fill-rule="nonzero" points="787.42,571.48 791.14,572.64 584.97,1232.41 581.24,1231.24 "/>
    <polygon id="7" fill="#114962" fill-rule="nonzero" points="789.9,572.26 793.63,573.42 587.45,1233.18 583.73,1232.02 "/>
    <polygon id="8" fill="#114A62" fill-rule="nonzero" points="792.39,573.03 796.12,574.2 589.94,1233.96 586.21,1232.8 "/>
    <polygon id="9" fill="#114A62" fill-rule="nonzero" points="794.87,573.81 798.6,574.97 592.43,1234.74 588.7,1233.57 "/>
    <polygon id="10" fill="#114B62" fill-rule="nonzero" points="797.36,574.59 801.09,575.75 594.91,1235.51 591.18,1234.35 "/>
    <polygon id="11" fill="#114B63" fill-rule="nonzero" points="799.84,575.36 803.57,576.53 597.4,1236.29 593.67,1235.13 "/>
    <polygon id="12" fill="#114C63" fill-rule="nonzero" points="802.33,576.14 806.06,577.3 599.88,1237.07 596.15,1235.9 "/>
    <polygon id="13" fill="#104C63" fill-rule="nonzero" points="804.82,576.92 808.54,578.08 602.37,1237.84 598.64,1236.68 "/>
    <polygon id="14" fill="#104D64" fill-rule="nonzero" points="807.3,577.69 811.03,578.86 604.85,1238.62 601.13,1237.46 "/>
    <polygon id="15" fill="#104D64" fill-rule="nonzero" points="809.79,578.47 813.52,579.63 607.34,1239.4 603.61,1238.23 "/>
    <polygon id="16" fill="#104E64" fill-rule="nonzero" points="812.27,579.25 816,580.41 609.83,1240.17 606.1,1239.01 "/>
    <polygon id="17" fill="#104F65" fill-rule="nonzero" points="814.76,580.02 818.49,581.19 612.31,1240.95 608.58,1239.79 "/>
    <polygon id="18" fill="#104F65" fill-rule="nonzero" points="817.24,580.8 820.97,581.97 614.8,1241.73 611.07,1240.56 "/>
    <polygon id="19" fill="#105065" fill-rule="nonzero" points="819.73,581.58 823.46,582.74 617.28,1242.51 613.55,1241.34 "/>
    <polygon id="20" fill="#105065" fill-rule="nonzero" points="822.22,582.35 825.94,583.52 619.77,1243.28 616.04,1242.12 "/>
    <polygon id="21" fill="#105166" fill-rule="nonzero" points="824.7,583.13 828.43,584.29 622.25,1244.06 618.53,1242.89 "/>
    <polygon id="22" fill="#105166" fill-rule="nonzero" points="827.19,583.91 830.91,585.07 624.74,1244.83 621.01,1243.67 "/>
    <polygon id="23" fill="#105266" fill-rule="nonzero" points="829.67,584.68 833.4,585.85 627.22,1245.61 623.5,1244.45 "/>
    <polygon id="24" fill="#105267" fill-rule="nonzero" points="832.16,585.46 835.89,586.63 629.71,1246.39 625.98,1245.22 "/>
    <polygon id="25" fill="#105367" fill-rule="nonzero" points="834.64,586.24 838.37,587.4 632.2,1247.17 628.47,1246 "/>
    <polygon id="26" fill="#105367" fill-rule="nonzero" points="837.13,587.01 840.86,588.18 634.68,1247.94 630.95,1246.78 "/>
    <polygon id="27" fill="#105468" fill-rule="nonzero" points="839.61,587.79 843.34,588.96 637.17,1248.72 633.44,1247.55 "/>
    <polygon id="28" fill="#0F5568" fill-rule="nonzero" points="842.1,588.57 845.83,589.73 639.65,1249.5 635.92,1248.33 "/>
    <polygon id="29" fill="#0F5568" fill-rule="nonzero" points="844.59,589.34 848.31,590.51 642.14,1250.27 638.41,1249.11 "/>
    <polygon id="30" fill="#0F5668" fill-rule="nonzero" points="847.07,590.12 850.8,591.29 644.62,1251.05 640.9,1249.88 "/>
    <polygon id="31" fill="#0F5669" fill-rule="nonzero" points="849.56,590.9 853.29,592.06 647.11,1251.83 643.38,1250.66 "/>
    <polygon id="32" fill="#0F5769" fill-rule="nonzero" points="852.04,591.67 855.77,592.84 649.6,1252.6 645.87,1251.44 "/>
    <polygon id="33" fill="#0F5769" fill-rule="nonzero" points="854.53,592.45 858.26,593.62 652.08,1253.38 648.35,1252.21 "/>
    <polygon id="34" fill="#0F586A" fill-rule="nonzero" points="857.01,593.23 860.74,594.39 654.57,1254.16 650.84,1252.99 "/>
    <polygon id="35" fill="#0F586A" fill-rule="nonzero" points="859.5,594 863.23,595.17 657.05,1254.93 653.32,1253.77 "/>
    <polygon id="36" fill="#0F596A" fill-rule="nonzero" points="861.99,594.78 865.71,595.95 659.54,1255.71 655.81,1254.54 "/>
    <polygon id="37" fill="#0F596B" fill-rule="nonzero" points="864.47,595.56 868.2,596.72 662.02,1256.49 658.29,1255.32 "/>
    <polygon id="38" fill="#0F5A6B" fill-rule="nonzero" points="866.96,596.34 870.69,597.5 664.51,1257.26 660.78,1256.1 "/>
    <polygon id="39" fill="#0F5B6B" fill-rule="nonzero" points="869.44,597.11 873.17,598.28 666.99,1258.04 663.27,1256.87 "/>
    <polygon id="40" fill="#0F5B6B" fill-rule="nonzero" points="871.93,597.89 875.66,599.05 669.48,1258.82 665.75,1257.65 "/>
    <polygon id="41" fill="#0F5C6C" fill-rule="nonzero" points="874.41,598.66 878.14,599.83 671.97,1259.59 668.24,1258.43 "/>
    <polygon id="42" fill="#0F5C6C" fill-rule="nonzero" points="876.9,599.44 880.63,600.61 674.45,1260.37 670.72,1259.2 "/>
    <polygon id="43" fill="#0E5D6C" fill-rule="nonzero" points="879.38,600.22 883.11,601.38 676.94,1261.15 673.21,1259.98 "/>
    <polygon id="44" fill="#0E5D6D" fill-rule="nonzero" points="881.87,601 885.6,602.16 679.42,1261.92 675.69,1260.76 "/>
    <polygon id="45" fill="#0E5E6D" fill-rule="nonzero" points="884.36,601.77 888.08,602.94 681.91,1262.7 678.18,1261.54 "/>
    <polygon id="46" fill="#0E5E6D" fill-rule="nonzero" points="886.84,602.55 890.57,603.71 684.39,1263.48 680.67,1262.31 "/>
    <polygon id="47" fill="#0E5F6E" fill-rule="nonzero" points="889.33,603.33 893.06,604.49 686.88,1264.25 683.15,1263.09 "/>
    <polygon id="48" fill="#0E5F6E" fill-rule="nonzero" points="891.81,604.1 895.54,605.27 689.36,1265.03 685.64,1263.87 "/>
    <polygon id="49" fill="#0E606E" fill-rule="nonzero" points="894.3,604.88 898.03,606.04 691.85,1265.81 688.12,1264.64 "/>
    <polygon id="50" fill="#0E616E" fill-rule="nonzero" points="896.78,605.66 900.51,606.82 694.34,1266.58 690.61,1265.42 "/>
    <polygon id="51" fill="#0E616F" fill-rule="nonzero" points="899.27,606.43 903,607.6 696.82,1267.36 693.09,1266.2 "/>
    <polygon id="52" fill="#0E626F" fill-rule="nonzero" points="901.76,607.21 905.48,608.37 699.31,1268.14 695.58,1266.97 "/>
    <polygon id="53" fill="#0E626F" fill-rule="nonzero" points="904.24,607.99 907.97,609.15 701.79,1268.91 698.06,1267.75 "/>
    <polygon id="54" fill="#0E6370" fill-rule="nonzero" points="906.73,608.76 910.45,609.93 704.28,1269.69 700.55,1268.53 "/>
    <polygon id="55" fill="#0E6370" fill-rule="nonzero" points="909.21,609.54 912.94,610.7 706.76,1270.47 703.04,1269.3 "/>
    <polygon id="56" fill="#0E6470" fill-rule="nonzero" points="911.7,610.32 915.43,611.48 709.25,1271.24 705.52,1270.08 "/>
    <polygon id="57" fill="#0E6470" fill-rule="nonzero" points="914.18,611.09 917.91,612.26 711.74,1272.02 708.01,1270.86 "/>
    <polygon id="58" fill="#0D6571" fill-rule="nonzero" points="916.67,611.87 920.4,613.03 714.22,1272.8 710.49,1271.63 "/>
    <polygon id="59" fill="#0D6571" fill-rule="nonzero" points="919.15,612.65 922.88,613.81 716.71,1273.57 712.98,1272.41 "/>
    <polygon id="60" fill="#0D6671" fill-rule="nonzero" points="921.64,613.42 925.37,614.59 719.19,1274.35 715.46,1273.19 "/>
    <polygon id="61" fill="#0D6772" fill-rule="nonzero" points="924.13,614.2 927.85,615.37 721.68,1275.13 717.95,1273.96 "/>
    <polygon id="62" fill="#0D6772" fill-rule="nonzero" points="926.61,614.98 930.34,616.14 724.16,1275.9 720.43,1274.74 "/>
    <polygon id="63" fill="#0D6872" fill-rule="nonzero" points="929.1,615.75 932.83,616.92 726.65,1276.68 722.92,1275.52 "/>
    <polygon id="64" fill="#0D6873" fill-rule="nonzero" points="931.58,616.53 935.31,617.7 729.13,1277.46 725.41,1276.29 "/>
    <polygon id="65" fill="#0D6973" fill-rule="nonzero" points="934.07,617.31 937.8,618.47 731.62,1278.24 727.89,1277.07 "/>
    <polygon id="66" fill="#0D6973" fill-rule="nonzero" points="936.55,618.08 940.28,619.25 734.11,1279.01 730.38,1277.85 "/>
    <polygon id="67" fill="#0D6A73" fill-rule="nonzero" points="939.04,618.86 942.77,620.03 736.59,1279.79 732.86,1278.62 "/>
    <polygon id="68" fill="#0D6A74" fill-rule="nonzero" points="941.52,619.64 945.25,620.8 739.08,1280.57 735.35,1279.4 "/>
    <polygon id="69" fill="#0D6B74" fill-rule="nonzero" points="944.01,620.41 947.74,621.58 741.56,1281.34 737.83,1280.18 "/>
    <polygon id="70" fill="#0D6B74" fill-rule="nonzero" points="946.5,621.19 950.22,622.36 744.05,1282.12 740.32,1280.95 "/>
    <polygon id="71" fill="#0D6C75" fill-rule="nonzero" points="948.98,621.97 952.71,623.13 746.53,1282.9 742.81,1281.73 "/>
    <polygon id="72" fill="#0D6D75" fill-rule="nonzero" points="951.47,622.74 955.2,623.91 749.02,1283.67 745.29,1282.51 "/>
    <polygon id="73" fill="#0C6D75" fill-rule="nonzero" points="953.95,623.52 957.68,624.69 751.51,1284.45 747.78,1283.28 "/>
    <polygon id="74" fill="#0C6E76" fill-rule="nonzero" points="956.44,624.3 960.17,625.46 753.99,1285.23 750.26,1284.06 "/>
    <polygon id="75" fill="#0C6E76" fill-rule="nonzero" points="958.92,625.07 962.65,626.24 756.48,1286 752.75,1284.84 "/>
    <polygon id="76" fill="#0C6F76" fill-rule="nonzero" points="961.41,625.85 965.14,627.02 758.96,1286.78 755.23,1285.61 "/>
    <polygon id="77" fill="#0C6F76" fill-rule="nonzero" points="963.9,626.63 967.62,627.79 761.45,1287.56 757.72,1286.39 "/>
    <polygon id="78" fill="#0C7077" fill-rule="nonzero" points="966.38,627.41 970.11,628.57 763.93,1288.33 760.21,1287.17 "/>
    <polygon id="79" fill="#0C7077" fill-rule="nonzero" points="968.87,628.18 972.59,629.35 766.42,1289.11 762.69,1287.95 "/>
    <polygon id="80" fill="#0C7177" fill-rule="nonzero" points="971.35,628.96 975.08,630.12 768.9,1289.89 765.18,1288.72 "/>
    <polygon id="81" fill="#0C7178" fill-rule="nonzero" points="973.84,629.73 977.57,630.9 771.39,1290.66 767.66,1289.5 "/>
    <polygon id="82" fill="#0C7278" fill-rule="nonzero" points="976.32,630.51 980.05,631.68 773.88,1291.44 770.15,1290.27 "/>
    <polygon id="83" fill="#0C7378" fill-rule="nonzero" points="978.81,631.29 982.54,632.45 776.36,1292.22 772.63,1291.05 "/>
    <polygon id="84" fill="#0C7379" fill-rule="nonzero" points="981.29,632.07 985.02,633.23 778.85,1292.99 775.12,1291.83 "/>
    <polygon id="85" fill="#0C7479" fill-rule="nonzero" points="983.78,632.84 987.51,634.01 781.33,1293.77 777.6,1292.61 "/>
    <polygon id="86" fill="#0C7479" fill-rule="nonzero" points="986.27,633.62 989.99,634.78 783.82,1294.55 780.09,1293.38 "/>
    <polygon id="87" fill="#0C7579" fill-rule="nonzero" points="988.75,634.4 992.48,635.56 786.3,1295.32 782.58,1294.16 "/>
    <polygon id="88" fill="#0B757A" fill-rule="nonzero" points="991.24,635.17 994.97,636.34 788.79,1296.1 785.06,1294.94 "/>
    <polygon id="89" fill="#0B767A" fill-rule="nonzero" points="993.72,635.95 997.45,637.11 791.28,1296.88 787.55,1295.71 "/>
    <polygon id="90" fill="#0B767A" fill-rule="nonzero" points="996.21,636.73 999.94,637.89 793.76,1297.65 790.03,1296.49 "/>
    <polygon id="91" fill="#0B777B" fill-rule="nonzero" points="998.69,637.5 1002.42,638.67 796.25,1298.43 792.52,1297.27 "/>
    <polygon id="92" fill="#0B777B" fill-rule="nonzero" points="1001.18,638.28 1004.91,639.44 798.73,1299.21 795,1298.04 "/>
    <polygon id="93" fill="#0B787B" fill-rule="nonzero" points="1003.67,639.06 1007.39,640.22 801.22,1299.98 797.49,1298.82 "/>
    <polygon id="94" fill="#0B797C" fill-rule="nonzero" points="1006.15,639.83 1009.88,641 803.7,1300.76 799.98,1299.6 "/>
    <polygon id="95" fill="#0B797C" fill-rule="nonzero" points="1008.64,640.61 1012.37,641.78 806.19,1301.54 802.46,1300.37 "/>
    <polygon id="96" fill="#0B7A7C" fill-rule="nonzero" points="1011.12,641.39 1014.85,642.55 808.68,1302.32 804.95,1301.15 "/>
    <polygon id="97" fill="#0B7A7C" fill-rule="nonzero" points="1013.61,642.16 1017.34,643.33 811.16,1303.09 807.43,1301.93 "/>
    <polygon id="98" fill="#0B7B7D" fill-rule="nonzero" points="1016.09,642.94 1019.82,644.1 813.65,1303.87 809.92,1302.7 "/>
    <polygon id="99" fill="#0B7B7D" fill-rule="nonzero" points="1018.58,643.72 1022.31,644.88 816.13,1304.64 812.4,1303.48 "/>
    <polygon id="100" fill="#0B7C7D" fill-rule="nonzero" points="1021.06,644.49 1024.79,645.66 818.62,1305.42 814.89,1304.26 "/>
    <polygon id="101" fill="#0B7C7E" fill-rule="nonzero" points="1023.55,645.27 1027.28,646.44 821.1,1306.2 817.37,1305.03 "/>
    <polygon id="102" fill="#0B7D7E" fill-rule="nonzero" points="1026.04,646.05 1029.76,647.21 823.59,1306.98 819.86,1305.81 "/>
    <polygon id="103" fill="#0A7D7E" fill-rule="nonzero" points="1028.52,646.82 1032.25,647.99 826.07,1307.75 822.35,1306.59 "/>
    <polygon id="104" fill="#0A7E7F" fill-rule="nonzero" points="1031.01,647.6 1034.74,648.77 828.56,1308.53 824.83,1307.36 "/>
    <polygon id="105" fill="#0A7F7F" fill-rule="nonzero" points="1033.49,648.38 1037.22,649.54 831.05,1309.31 827.32,1308.14 "/>
    <polygon id="106" fill="#0A7F7F" fill-rule="nonzero" points="1035.98,649.15 1039.71,650.32 833.53,1310.08 829.8,1308.92 "/>
    <polygon id="107" fill="#0A807F" fill-rule="nonzero" points="1038.46,649.93 1042.19,651.1 836.02,1310.86 832.29,1309.69 "/>
    <polygon id="108" fill="#0A8080" fill-rule="nonzero" points="1040.95,650.71 1044.68,651.87 838.5,1311.64 834.77,1310.47 "/>
    <polygon id="109" fill="#0A8180" fill-rule="nonzero" points="1043.44,651.48 1047.16,652.65 840.99,1312.41 837.26,1311.25 "/>
    <polygon id="110" fill="#0A8180" fill-rule="nonzero" points="1045.92,652.26 1049.65,653.43 843.47,1313.19 839.75,1312.02 "/>
    <polygon id="111" fill="#0A8281" fill-rule="nonzero" points="1048.41,653.04 1052.14,654.2 845.96,1313.97 842.23,1312.8 "/>
    <polygon id="112" fill="#0A8281" fill-rule="nonzero" points="1050.89,653.81 1054.62,654.98 848.45,1314.74 844.72,1313.58 "/>
    <polygon id="113" fill="#0A8381" fill-rule="nonzero" points="1053.38,654.59 1057.11,655.76 850.93,1315.52 847.2,1314.35 "/>
    <polygon id="114" fill="#0A8381" fill-rule="nonzero" points="1055.86,655.37 1059.59,656.53 853.42,1316.3 849.69,1315.13 "/>
    <polygon id="115" fill="#0A8482" fill-rule="nonzero" points="1058.35,656.15 1062.08,657.31 855.9,1317.07 852.17,1315.91 "/>
    <polygon id="116" fill="#0A8582" fill-rule="nonzero" points="1060.84,656.92 1064.56,658.09 858.39,1317.85 854.66,1316.69 "/>
    <polygon id="117" fill="#0A8582" fill-rule="nonzero" points="1063.32,657.7 1067.05,658.86 860.87,1318.63 857.14,1317.46 "/>
    <polygon id="118" fill="#098683" fill-rule="nonzero" points="1065.81,658.48 1069.53,659.64 863.36,1319.4 859.63,1318.24 "/>
    <polygon id="119" fill="#098683" fill-rule="nonzero" points="1068.29,659.25 1072.02,660.42 865.84,1320.18 862.12,1319.02 "/>
    <polygon id="120" fill="#098783" fill-rule="nonzero" points="1070.78,660.03 1074.51,661.19 868.33,1320.96 864.6,1319.79 "/>
    <polygon id="121" fill="#098784" fill-rule="nonzero" points="1073.26,660.81 1076.99,661.97 870.82,1321.73 867.09,1320.57 "/>
    <polygon id="122" fill="#098884" fill-rule="nonzero" points="1075.75,661.58 1079.48,662.75 873.3,1322.51 869.57,1321.35 "/>
    <polygon id="123" fill="#098884" fill-rule="nonzero" points="1078.23,662.36 1081.96,663.52 875.79,1323.29 872.06,1322.12 "/>
    <polygon id="124" fill="#098984" fill-rule="nonzero" points="1080.72,663.14 1084.45,664.3 878.27,1324.06 874.54,1322.9 "/>
    <polygon id="125" fill="#098985" fill-rule="nonzero" points="1083.21,663.91 1086.93,665.08 880.76,1324.84 877.03,1323.68 "/>
    <polygon id="126" fill="#098A85" fill-rule="nonzero" points="1085.69,664.69 1089.42,665.85 883.24,1325.62 879.51,1324.45 "/>
    <polygon id="127" fill="#098B85" fill-rule="nonzero" points="1088.18,665.47 1091.91,666.63 885.73,1326.39 882,1325.23 "/>
    <polygon id="128" fill="#098B86" fill-rule="nonzero" points="1090.66,666.24 1094.39,667.41 888.21,1327.17 884.49,1326.01 "/>
    <polygon id="129" fill="#098C86" fill-rule="nonzero" points="1093.15,667.02 1096.88,668.18 890.7,1327.95 886.97,1326.78 "/>
    <polygon id="130" fill="#098C86" fill-rule="nonzero" points="1095.63,667.8 1099.36,668.96 893.19,1328.72 889.46,1327.56 "/>
    <polygon id="131" fill="#098D87" fill-rule="nonzero" points="1098.12,668.57 1101.85,669.74 895.67,1329.5 891.94,1328.34 "/>
    <polygon id="132" fill="#098D87" fill-rule="nonzero" points="1100.61,669.35 1104.33,670.52 898.16,1330.28 894.43,1329.11 "/>
    <polygon id="133" fill="#088E87" fill-rule="nonzero" points="1103.09,670.13 1106.82,671.29 900.64,1331.05 896.91,1329.89 "/>
    <polygon id="134" fill="#088E87" fill-rule="nonzero" points="1105.58,670.9 1109.3,672.07 903.13,1331.83 899.4,1330.67 "/>
    <polygon id="135" fill="#088F88" fill-rule="nonzero" points="1108.06,671.68 1111.79,672.85 905.61,1332.61 901.89,1331.44 "/>
    <polygon id="136" fill="#088F88" fill-rule="nonzero" points="1110.55,672.46 1114.28,673.62 908.1,1333.39 904.37,1332.22 "/>
    <polygon id="137" fill="#089088" fill-rule="nonzero" points="1113.03,673.23 1116.76,674.4 910.58,1334.16 906.86,1333 "/>
    <polygon id="138" fill="#089089" fill-rule="nonzero" points="1115.52,674.01 1119.25,675.18 913.07,1334.94 909.34,1333.77 "/>
    <polygon id="139" fill="#089189" fill-rule="nonzero" points="1118,674.79 1121.73,675.95 915.56,1335.72 911.83,1334.55 "/>
    <polygon id="140" fill="#089289" fill-rule="nonzero" points="1120.49,675.56 1124.22,676.73 918.04,1336.49 914.31,1335.33 "/>
    <polygon id="141" fill="#08928A" fill-rule="nonzero" points="1122.98,676.34 1126.7,677.51 920.53,1337.27 916.8,1336.1 "/>
    <polygon id="142" fill="#08938A" fill-rule="nonzero" points="1125.46,677.12 1129.19,678.28 923.01,1338.05 919.28,1336.88 "/>
    <polygon id="143" fill="#08938A" fill-rule="nonzero" points="1127.95,677.89 1131.68,679.06 925.5,1338.82 921.77,1337.66 "/>
    <polygon id="144" fill="#08948A" fill-rule="nonzero" points="1130.43,678.67 1134.16,679.84 927.98,1339.6 924.26,1338.43 "/>
    <polygon id="145" fill="#08948B" fill-rule="nonzero" points="1132.92,679.45 1136.65,680.61 930.47,1340.38 926.74,1339.21 "/>
    <polygon id="146" fill="#08958B" fill-rule="nonzero" points="1135.4,680.22 1139.13,681.39 932.96,1341.15 929.23,1339.99 "/>
    <polygon id="147" fill="#08958B" fill-rule="nonzero" points="1137.89,681 1141.62,682.17 935.44,1341.93 931.71,1340.76 "/>
    <polygon id="148" fill="#07968C" fill-rule="nonzero" points="1140.37,681.78 1144.1,682.94 937.93,1342.71 934.2,1341.54 "/>
    <polygon id="149" fill="#07968C" fill-rule="nonzero" points="1142.86,682.55 1146.59,683.72 940.41,1343.48 936.68,1342.32 "/>
    <polygon id="150" fill="#07978C" fill-rule="nonzero" points="1145.35,683.33 1149.07,684.5 942.9,1344.26 939.17,1343.09 "/>
    <polygon id="151" fill="#07988D" fill-rule="nonzero" points="1147.83,684.11 1151.56,685.27 945.38,1345.04 941.66,1343.87 "/>
    <polygon id="152" fill="#07988D" fill-rule="nonzero" points="1150.32,684.88 1154.05,686.05 947.87,1345.81 944.14,1344.65 "/>
    <polygon id="153" fill="#07998D" fill-rule="nonzero" points="1152.8,685.66 1156.53,686.83 950.36,1346.59 946.63,1345.42 "/>
    <polygon id="154" fill="#07998D" fill-rule="nonzero" points="1155.29,686.44 1159.02,687.6 952.84,1347.37 949.11,1346.2 "/>
    <polygon id="155" fill="#079A8E" fill-rule="nonzero" points="1157.77,687.22 1161.5,688.38 955.33,1348.14 951.6,1346.98 "/>
    <polygon id="156" fill="#079A8E" fill-rule="nonzero" points="1160.26,687.99 1163.99,689.16 957.81,1348.92 954.08,1347.76 "/>
    <polygon id="157" fill="#079B8E" fill-rule="nonzero" points="1162.74,688.77 1166.47,689.93 960.3,1349.7 956.57,1348.53 "/>
    <polygon id="158" fill="#079B8F" fill-rule="nonzero" points="1165.23,689.55 1168.96,690.71 962.78,1350.47 959.05,1349.31 "/>
    <polygon id="159" fill="#079C8F" fill-rule="nonzero" points="1167.72,690.32 1171.44,691.49 965.27,1351.25 961.54,1350.09 "/>
    <polygon id="160" fill="#079C8F" fill-rule="nonzero" points="1170.2,691.1 1173.93,692.26 967.75,1352.03 964.03,1350.86 "/>
    <polygon id="161" fill="#079D8F" fill-rule="nonzero" points="1172.69,691.88 1176.42,693.04 970.24,1352.8 966.51,1351.64 "/>
    <polygon id="162" fill="#079E90" fill-rule="nonzero" points="1175.17,692.65 1178.9,693.82 972.73,1353.58 969,1352.42 "/>
    <polygon id="163" fill="#069E90" fill-rule="nonzero" points="1177.66,693.43 1181.39,694.59 975.21,1354.36 971.48,1353.19 "/>
    <polygon id="164" fill="#069F90" fill-rule="nonzero" points="1180.14,694.21 1183.87,695.37 977.7,1355.13 973.97,1353.97 "/>
    <polygon id="165" fill="#069F91" fill-rule="nonzero" points="1182.63,694.98 1186.36,696.15 980.18,1355.91 976.45,1354.75 "/>
    <polygon id="166" fill="#06A091" fill-rule="nonzero" points="1185.12,695.76 1188.84,696.92 982.67,1356.69 978.94,1355.52 "/>
    <polygon id="167" fill="#06A091" fill-rule="nonzero" points="1187.6,696.54 1191.33,697.7 985.15,1357.46 981.43,1356.3 "/>
    <polygon id="168" fill="#06A192" fill-rule="nonzero" points="1190.09,697.31 1193.82,698.48 987.64,1358.24 983.91,1357.08 "/>
    <polygon id="169" fill="#06A192" fill-rule="nonzero" points="1192.57,698.09 1196.3,699.25 990.13,1359.02 986.4,1357.85 "/>
    <polygon id="170" fill="#06A292" fill-rule="nonzero" points="1195.06,698.87 1198.79,700.03 992.61,1359.79 988.88,1358.63 "/>
    <polygon id="171" fill="#06A292" fill-rule="nonzero" points="1197.54,699.64 1201.27,700.81 995.1,1360.57 991.37,1359.41 "/>
    <polygon id="172" fill="#06A393" fill-rule="nonzero" points="1200.03,700.42 1203.76,701.59 997.58,1361.35 993.85,1360.18 "/>
    <polygon id="173" fill="#06A493" fill-rule="nonzero" points="1202.52,701.2 1206.24,702.36 1000.07,1362.13 996.34,1360.96 "/>
    <polygon id="174" fill="#06A493" fill-rule="nonzero" points="1205,701.97 1208.73,703.14 1002.55,1362.9 998.83,1361.74 "/>
    <polygon id="175" fill="#06A594" fill-rule="nonzero" points="1207.49,702.75 1211.21,703.92 1005.04,1363.68 1001.31,1362.51 "/>
    <polygon id="176" fill="#06A594" fill-rule="nonzero" points="1209.97,703.53 1213.7,704.69 1007.52,1364.46 1003.8,1363.29 "/>
    <polygon id="177" fill="#06A694" fill-rule="nonzero" points="1212.46,704.3 1216.19,705.47 1010.01,1365.23 1006.28,1364.07 "/>
    <polygon id="178" fill="#05A695" fill-rule="nonzero" points="1214.94,705.08 1218.67,706.25 1012.5,1366.01 1008.77,1364.84 "/>
    <polygon id="179" fill="#05A795" fill-rule="nonzero" points="1217.43,705.86 1221.16,707.02 1014.98,1366.79 1011.25,1365.62 "/>
    <polygon id="180" fill="#05A795" fill-rule="nonzero" points="1219.91,706.63 1223.64,707.8 1017.47,1367.56 1013.74,1366.4 "/>
    <polygon id="181" fill="#05A895" fill-rule="nonzero" points="1222.4,707.41 1226.13,708.58 1019.95,1368.34 1016.22,1367.17 "/>
    <polygon id="182" fill="#05A896" fill-rule="nonzero" points="1224.89,708.19 1228.61,709.35 1022.44,1369.12 1018.71,1367.95 "/>
    <polygon id="183" fill="#05A996" fill-rule="nonzero" points="1227.37,708.96 1231.1,710.13 1024.92,1369.89 1021.2,1368.73 "/>
    <polygon id="184" fill="#05AA96" fill-rule="nonzero" points="1229.86,709.74 1233.59,710.91 1027.41,1370.67 1023.68,1369.5 "/>
    <polygon id="185" fill="#05AA97" fill-rule="nonzero" points="1232.34,710.52 1236.07,711.68 1029.9,1371.45 1026.17,1370.28 "/>
    <polygon id="186" fill="#05AB97" fill-rule="nonzero" points="1234.83,711.3 1238.56,712.46 1032.38,1372.22 1028.65,1371.06 "/>
    <polygon id="187" fill="#05AB97" fill-rule="nonzero" points="1237.31,712.07 1241.04,713.24 1034.87,1373 1031.14,1371.84 "/>
    <polygon id="188" fill="#05AC98" fill-rule="nonzero" points="1239.8,712.85 1243.53,714.01 1037.35,1373.78 1033.62,1372.61 "/>
    <polygon id="189" fill="#05AC98" fill-rule="nonzero" points="1242.29,713.62 1246.01,714.79 1039.84,1374.55 1036.11,1373.39 "/>
    <polygon id="190" fill="#05AD98" fill-rule="nonzero" points="1244.77,714.4 1248.5,715.57 1042.32,1375.33 1038.6,1374.16 "/>
    <polygon id="191" fill="#05AD98" fill-rule="nonzero" points="1247.26,715.18 1250.99,716.34 1044.81,1376.11 1041.08,1374.94 "/>
    <polygon id="192" fill="#05AE99" fill-rule="nonzero" points="1249.74,715.96 1253.47,717.12 1047.29,1376.88 1043.57,1375.72 "/>
    <polygon id="193" fill="#04AE99" fill-rule="nonzero" points="1252.23,716.73 1255.96,717.9 1049.78,1377.66 1046.05,1376.5 "/>
    <polygon id="194" fill="#04AF99" fill-rule="nonzero" points="1254.71,717.51 1258.44,718.67 1052.27,1378.44 1048.54,1377.27 "/>
    <polygon id="195" fill="#04B09A" fill-rule="nonzero" points="1257.2,718.29 1260.93,719.45 1054.75,1379.21 1051.02,1378.05 "/>
    <polygon id="196" fill="#04B09A" fill-rule="nonzero" points="1259.68,719.06 1263.41,720.23 1057.24,1379.99 1053.51,1378.83 "/>
    <polygon id="197" fill="#04B19A" fill-rule="nonzero" points="1262.17,719.84 1265.9,721 1059.72,1380.77 1055.99,1379.6 "/>
    <polygon id="198" fill="#04B19B" fill-rule="nonzero" points="1264.66,720.62 1268.38,721.78 1062.21,1381.54 1058.48,1380.38 "/>
    <polygon id="199" fill="#04B29B" fill-rule="nonzero" points="1267.14,721.39 1270.87,722.56 1064.69,1382.32 1060.97,1381.16 "/>
    <polygon id="200" fill="#04B29B" fill-rule="nonzero" points="1269.63,722.17 1273.36,723.33 1067.18,1383.1 1063.45,1381.93 "/>
    <polygon id="201" fill="#04B39B" fill-rule="nonzero" points="1272.11,722.95 1275.84,724.11 1069.67,1383.87 1065.94,1382.71 "/>
    <polygon id="202" fill="#04B39C" fill-rule="nonzero" points="1274.6,723.72 1278.33,724.89 1072.15,1384.65 1068.42,1383.49 "/>
    <polygon id="203" fill="#04B49C" fill-rule="nonzero" points="1277.08,724.5 1280.81,725.67 1074.64,1385.43 1070.91,1384.26 "/>
    <polygon id="204" fill="#04B49C" fill-rule="nonzero" points="1279.57,725.28 1283.3,726.44 1077.12,1386.2 1073.39,1385.04 "/>
    <polygon id="205" fill="#04B59D" fill-rule="nonzero" points="1282.06,726.05 1285.78,727.22 1079.61,1386.98 1075.88,1385.82 "/>
    <polygon id="206" fill="#04B69D" fill-rule="nonzero" points="1284.54,726.83 1288.27,727.99 1082.09,1387.76 1078.36,1386.59 "/>
    <polygon id="207" fill="#04B69D" fill-rule="nonzero" points="1287.03,727.61 1290.76,728.77 1084.58,1388.53 1080.85,1387.37 "/>
    <polygon id="208" fill="#03B79E" fill-rule="nonzero" points="1289.51,728.38 1293.24,729.55 1087.06,1389.31 1083.34,1388.15 "/>
    <polygon id="209" fill="#03B79E" fill-rule="nonzero" points="1292,729.16 1295.73,730.33 1089.55,1390.09 1085.82,1388.92 "/>
    <polygon id="210" fill="#03B89E" fill-rule="nonzero" points="1294.48,729.94 1298.21,731.1 1092.04,1390.87 1088.31,1389.7 "/>
    <polygon id="211" fill="#03B89E" fill-rule="nonzero" points="1296.97,730.71 1300.7,731.88 1094.52,1391.64 1090.79,1390.48 "/>
    <polygon id="212" fill="#03B99F" fill-rule="nonzero" points="1299.45,731.49 1303.18,732.66 1097.01,1392.42 1093.28,1391.25 "/>
    <polygon id="213" fill="#03B99F" fill-rule="nonzero" points="1301.94,732.27 1305.67,733.43 1099.49,1393.2 1095.76,1392.03 "/>
    <polygon id="214" fill="#03BA9F" fill-rule="nonzero" points="1304.43,733.04 1308.15,734.21 1101.98,1393.97 1098.25,1392.81 "/>
    <polygon id="215" fill="#03BAA0" fill-rule="nonzero" points="1306.91,733.82 1310.64,734.99 1104.46,1394.75 1100.73,1393.58 "/>
    <polygon id="216" fill="#03BBA0" fill-rule="nonzero" points="1309.4,734.6 1313.13,735.76 1106.95,1395.53 1103.22,1394.36 "/>
    <polygon id="217" fill="#03BCA0" fill-rule="nonzero" points="1311.88,735.37 1315.61,736.54 1109.43,1396.3 1105.71,1395.14 "/>
    <polygon id="218" fill="#03BCA0" fill-rule="nonzero" points="1314.37,736.15 1318.1,737.32 1111.92,1397.08 1108.19,1395.91 "/>
    <polygon id="219" fill="#03BDA1" fill-rule="nonzero" points="1316.85,736.93 1320.58,738.09 1114.41,1397.86 1110.68,1396.69 "/>
    <polygon id="220" fill="#03BDA1" fill-rule="nonzero" points="1319.34,737.7 1323.07,738.87 1116.89,1398.63 1113.16,1397.47 "/>
    <polygon id="221" fill="#03BEA1" fill-rule="nonzero" points="1321.83,738.48 1325.55,739.65 1119.38,1399.41 1115.65,1398.24 "/>
    <polygon id="222" fill="#03BEA2" fill-rule="nonzero" points="1324.31,739.26 1328.04,740.42 1121.86,1400.19 1118.13,1399.02 "/>
    <polygon id="223" fill="#02BFA2" fill-rule="nonzero" points="1326.8,740.03 1330.52,741.2 1124.35,1400.96 1120.62,1399.8 "/>
    <polygon id="224" fill="#02BFA2" fill-rule="nonzero" points="1329.28,740.81 1333.01,741.98 1126.83,1401.74 1123.11,1400.57 "/>
    <polygon id="225" fill="#02C0A3" fill-rule="nonzero" points="1331.77,741.59 1335.5,742.75 1129.32,1402.52 1125.59,1401.35 "/>
    <polygon id="226" fill="#02C0A3" fill-rule="nonzero" points="1334.25,742.37 1337.98,743.53 1131.81,1403.29 1128.08,1402.13 "/>
    <polygon id="227" fill="#02C1A3" fill-rule="nonzero" points="1336.74,743.14 1340.47,744.31 1134.29,1404.07 1130.56,1402.91 "/>
    <polygon id="228" fill="#02C2A3" fill-rule="nonzero" points="1339.22,743.92 1342.95,745.08 1136.78,1404.85 1133.05,1403.68 "/>
    <polygon id="229" fill="#02C2A4" fill-rule="nonzero" points="1341.71,744.7 1345.44,745.86 1139.26,1405.62 1135.53,1404.46 "/>
    <polygon id="230" fill="#02C3A4" fill-rule="nonzero" points="1344.2,745.47 1347.92,746.64 1141.75,1406.4 1138.02,1405.23 "/>
    <polygon id="231" fill="#02C3A4" fill-rule="nonzero" points="1346.68,746.25 1350.41,747.41 1144.23,1407.18 1140.51,1406.01 "/>
    <polygon id="232" fill="#02C4A5" fill-rule="nonzero" points="1349.17,747.03 1352.9,748.19 1146.72,1407.95 1142.99,1406.79 "/>
    <polygon id="233" fill="#02C4A5" fill-rule="nonzero" points="1351.65,747.8 1355.38,748.97 1149.2,1408.73 1145.48,1407.57 "/>
    <polygon id="234" fill="#02C5A5" fill-rule="nonzero" points="1354.14,748.58 1357.87,749.74 1151.69,1409.51 1147.96,1408.34 "/>
    <polygon id="235" fill="#02C5A6" fill-rule="nonzero" points="1356.62,749.36 1360.35,750.52 1154.18,1410.28 1150.45,1409.12 "/>
    <polygon id="236" fill="#02C6A6" fill-rule="nonzero" points="1359.11,750.13 1362.84,751.3 1156.66,1411.06 1152.93,1409.9 "/>
    <polygon id="237" fill="#02C6A6" fill-rule="nonzero" points="1361.59,750.91 1365.32,752.07 1159.15,1411.84 1155.42,1410.67 "/>
    <polygon id="238" fill="#01C7A6" fill-rule="nonzero" points="1364.08,751.69 1367.81,752.85 1161.63,1412.61 1157.9,1411.45 "/>
    <polygon id="239" fill="#01C8A7" fill-rule="nonzero" points="1366.57,752.46 1370.29,753.63 1164.12,1413.39 1160.39,1412.23 "/>
    <polygon id="240" fill="#01C8A7" fill-rule="nonzero" points="1369.05,753.24 1372.78,754.4 1166.6,1414.17 1162.88,1413 "/>
    <polygon id="241" fill="#01C9A7" fill-rule="nonzero" points="1371.54,754.02 1375.27,755.18 1169.09,1414.94 1165.36,1413.78 "/>
    <polygon id="242" fill="#01C9A8" fill-rule="nonzero" points="1374.02,754.79 1377.75,755.96 1171.58,1415.72 1167.85,1414.56 "/>
    <polygon id="243" fill="#01CAA8" fill-rule="nonzero" points="1376.51,755.57 1380.24,756.74 1174.06,1416.5 1170.33,1415.33 "/>
    <polygon id="244" fill="#01CAA8" fill-rule="nonzero" points="1378.99,756.35 1382.72,757.51 1176.55,1417.28 1172.82,1416.11 "/>
    <polygon id="245" fill="#01CBA9" fill-rule="nonzero" points="1381.48,757.12 1385.21,758.29 1179.03,1418.05 1175.3,1416.89 "/>
    <polygon id="246" fill="#01CBA9" fill-rule="nonzero" points="1383.97,757.9 1387.69,759.06 1181.52,1418.83 1177.79,1417.66 "/>
    <polygon id="247" fill="#01CCA9" fill-rule="nonzero" points="1386.45,758.68 1390.18,759.84 1184,1419.6 1180.28,1418.44 "/>
    <polygon id="248" fill="#01CCA9" fill-rule="nonzero" points="1388.94,759.45 1392.67,760.62 1186.49,1420.38 1182.76,1419.22 "/>
    <polygon id="249" fill="#01CDAA" fill-rule="nonzero" points="1391.42,760.23 1395.15,761.4 1188.98,1421.16 1185.25,1419.99 "/>
    <polygon id="250" fill="#01CEAA" fill-rule="nonzero" points="1393.91,761.01 1397.64,762.17 1191.46,1421.94 1187.73,1420.77 "/>
    <polygon id="251" fill="#01CEAA" fill-rule="nonzero" points="1396.39,761.78 1400.12,762.95 1193.95,1422.71 1190.22,1421.55 "/>
    <polygon id="252" fill="#01CFAB" fill-rule="nonzero" points="1398.88,762.56 1402.61,763.73 1196.43,1423.49 1192.7,1422.32 "/>
    <polygon id="253" fill="#00CFAB" fill-rule="nonzero" points="1401.36,763.34 1405.09,764.5 1198.92,1424.27 1195.19,1423.1 "/>
    <polygon id="254" fill="#00D0AB" fill-rule="nonzero" points="1403.85,764.11 1407.58,765.28 1201.4,1425.04 1197.67,1423.88 "/>
    <polygon id="255" fill="#00D0AC" fill-rule="nonzero" points="1406.34,764.89 1410.06,766.06 1203.89,1425.82 1200.16,1424.65 "/>
    <polygon id="256" fill="#00D1AC" fill-rule="nonzero" points="1408.82,765.67 1412.55,766.83 1206.37,1426.6 1202.65,1425.43 "/>
    <polygon id="257" fill="#00D1AC" fill-rule="nonzero" points="1411.31,766.44 1415.04,767.61 1208.86,1427.37 1205.13,1426.21 "/>
    <polygon id="258" fill="#00D2AC" fill-rule="nonzero" points="1413.79,767.22 1417.52,768.39 1211.35,1428.15 1207.62,1426.98 "/>
    <polygon id="259" fill="#00D2AD" fill-rule="nonzero" points="1416.28,768 1420.01,769.16 1213.83,1428.93 1210.1,1427.76 "/>
    <polygon id="260" fill="#00D3AD" fill-rule="nonzero" points="1418.76,768.77 1422.49,769.94 1216.32,1429.7 1212.59,1428.54 "/>
    <polygon id="261" fill="#00D2AD" fill-rule="nonzero" points="1421.25,769.55 1424.98,770.72 1218.8,1430.48 1215.07,1429.31 "/>
    <polygon id="262" fill="#00D2AC" fill-rule="nonzero" points="1423.74,770.33 1427.46,771.49 1221.29,1431.26 1217.56,1430.09 "/>
    <polygon id="263" fill="#00D1AC" fill-rule="nonzero" points="1426.22,771.11 1429.95,772.27 1223.77,1432.03 1220.05,1430.87 "/>
    <polygon id="264" fill="#00D1AC" fill-rule="nonzero" points="1428.71,771.88 1432.44,773.05 1226.26,1432.81 1222.53,1431.65 "/>
    <polygon id="265" fill="#00D0AC" fill-rule="nonzero" points="1431.19,772.66 1434.92,773.82 1228.75,1433.59 1225.02,1432.42 "/>
    <polygon id="266" fill="#00D0AB" fill-rule="nonzero" points="1433.68,773.43 1432.97,773.21 1226.8,1432.98 1227.5,1433.2 "/>
   </g>
  </g>
  <polygon fill="#114861" points="1053.01,887.04 1005.53,1008.44 947.32,882.44 926.25,882.44 868.05,1008.44 820.56,887.04 747.03,887.04 851.2,1144.38 872.26,1144.38 936.98,1012.27 1001.31,1144.38 1022.38,1144.38 1126.54,887.04 "/>
  <polygon fill="#00D3AD" fill-rule="nonzero" points="1065.57,1038.69 1170.4,1038.69 1170.4,1139.79 1236.27,1139.79 1236.27,887.04 1170.4,887.04 1170.4,979.33 1089.6,979.33 1126.95,887.04 1053.43,887.04 1053.41,887.07 974.42,1088.31 1001.73,1144.38 1022.79,1144.38 "/>
 </g>
</svg>
