<?xml version="1.0" encoding="UTF-8"?>
<!DOCTYPE svg PUBLIC "-//W3C//DTD SVG 1.1//EN" "http://www.w3.org/Graphics/SVG/1.1/DTD/svg11.dtd">
<!-- Creator: CorelDRAW 2020 (64-Bit) -->
<svg xmlns="http://www.w3.org/2000/svg" xml:space="preserve" width="24.0001in" height="8.00004in" version="1.1" shape-rendering="geometricPrecision" text-rendering="geometricPrecision" image-rendering="optimizeQuality" fill-rule="evenodd" clip-rule="evenodd"
viewBox="0 0 35999.87 11999.97"
 xmlns:xlink="http://www.w3.org/1999/xlink"
 xmlns:xodm="http://www.corel.com/coreldraw/odm/2003">
 <g id="Layer_x0020_1">
  <metadata id="CorelCorpID_0Corel-Layer"/>
  <rect fill="white" x="0" y="0.01" width="35999.87" height="11999.97"/>
  <g id="_3025299137760">
   <path fill="#CF0300" fill-rule="nonzero" d="M11398.29 5147.37c0,290.93 -98.9,517.63 -297.42,680.05 -197.82,163.16 -421.63,244.01 -671.41,244.01 -84.47,0 -169.65,-9.38 -255.57,-29.6 -12.99,-37.54 -37.54,-88.79 -74.36,-152.34l44.03 -46.2c59.93,19.51 114.07,29.6 163.16,29.6 142.23,0 257.01,-50.53 342.92,-150.87 85.91,-101.08 128.5,-242.57 128.5,-424.51 0,-393.45 -176.86,-589.82 -530.62,-589.82 -42.59,0 -127.06,7.94 -253.39,25.28 -12.99,33.92 -19.49,264.23 -19.49,691.61l0 1119.02c0,335.69 9.38,553.73 27.43,655.51 7.23,41.15 31.04,67.13 72.19,77.98 12.28,2.88 109.02,10.11 289.51,21.66l23.1 23.1 0 139.32 -20.95 21.66c-192.75,-8.67 -424.49,-12.99 -693.77,-12.99 -303.21,0 -520.51,4.32 -651.19,12.99l-20.93 -19.49 0 -141.5 23.1 -23.1c142.21,-8.67 223.8,-15.9 245.46,-21.66 40.42,-10.84 64.25,-36.83 71.46,-77.98 18.78,-101.79 27.45,-319.82 27.45,-655.51l0 -1119.02c0,-335.69 -8.67,-554.44 -27.45,-655.51 -7.2,-41.15 -31.04,-67.13 -71.46,-78.68 -21.66,-5.06 -103.96,-12.28 -247.63,-20.95l-20.93 -23.1 0 -139.32 23.1 -21.66c137.89,8.67 350.13,12.99 636.76,12.99 118.39,0 288.75,-2.17 511.84,-6.5 222.35,-4.32 350.86,-6.5 384.8,-6.5 386.22,0 637.47,98.17 752.98,293.83 59.2,101.79 88.79,224.53 88.79,368.2zm15601.57 2307.3l-21.66 21.66 -430.99 -6.5c-70.75,-1.44 -194.22,0.73 -370.37,6.5 -42.59,-52.7 -111.16,-167.48 -207.19,-345.09l-440.38 -814.35 -166.77 238.96c-211.53,303.21 -407.17,610.04 -587.67,920.48 -64.96,-4.32 -129.94,-6.5 -194.9,-6.5 -131.41,0 -226.7,2.17 -287.34,6.5l-21.66 -21.66 0 -135 21.66 -23.1c115.51,-8.67 184.82,-20.93 209.36,-36.09 41.88,-26.72 137.88,-141.5 287.34,-345.1l277.23 -373.96c10.82,-14.43 124.16,-166.77 338.57,-456.99l-160.98 -283.72 -258.45 -446.15c-182.67,-315.5 -322.73,-502.47 -418.73,-560.22 -31.77,-19.51 -65.72,-29.6 -101.08,-29.6 -28.16,0 -72.19,2.15 -131.38,6.5l-27.45 -21.66 -16.61 -111.9 18.78 -31.77c198.52,-40.44 454.82,-97.46 767.41,-168.94 89.53,57.76 181.23,161.72 275.08,312.61 45.47,73.63 116.22,199.25 211.51,376.85l238.96 444 275.08 -402.12c227.41,-332.11 374.67,-558.78 442.53,-678.64 57.76,5.79 114.8,8.67 171.09,8.67 94.58,0 190.61,-2.88 287.34,-8.67l21.66 20.95 0 140.05 -21.66 20.93c-96.73,1.44 -161.72,12.28 -193.47,31.77 -31.77,19.49 -93.14,86.62 -184.82,200.69 -91.7,114.07 -212.27,272.91 -361.7,475.77 -83.03,113.34 -184.82,253.39 -304.65,420.87 70.75,129.94 171.09,312.61 302.48,547.96l270.73 465.66c149.43,256.28 243.31,401.39 282.28,434.6 38.98,33.21 101.79,49.82 189.15,49.82l21.66 20.93 0 135zm-11984.53 6.5l-21.66 21.66c-139.35,-8.67 -356.67,-12.99 -651.21,-12.99 -301.77,0 -519.09,4.32 -651.18,12.99l-21.66 -19.49 0 -143.67 23.1 -20.93c144.38,-8.67 226.68,-15.9 247.63,-21.66 41.15,-10.84 64.96,-36.83 72.19,-77.98 18.05,-101.79 27.43,-319.82 27.43,-655.51l0 -509.69c-72.19,-7.23 -300.33,-10.84 -685.11,-10.84 -355.2,0 -589.84,3.61 -702.45,10.84l0 509.69c0,335.69 9.38,553.73 27.43,655.51 7.23,41.15 31.04,67.13 72.19,77.98 20.93,5.76 103.25,12.99 247.63,21.66l20.93 20.93 0 141.5 -18.76 21.66c-141.5,-8.67 -358.82,-12.99 -651.92,-12.99 -303.21,0 -520.51,4.32 -651.18,12.99l-20.93 -19.49 0 -143.67 20.93 -20.93c143.67,-8.67 225.97,-15.9 247.63,-21.66 40.42,-10.84 64.25,-36.83 71.46,-77.98 18.78,-101.79 27.45,-319.82 27.45,-655.51l0 -1119.02c0,-335.69 -8.67,-554.44 -27.45,-655.51 -7.2,-41.15 -31.04,-67.13 -71.46,-78.68 -21.66,-5.06 -103.96,-12.28 -247.63,-20.95l-20.93 -20.93 0 -143.67 20.93 -19.49c135,8.67 352.3,12.99 651.18,12.99 306.09,0 523.41,-4.32 651.92,-12.99l18.76 19.49 0 145.84 -20.93 18.76c-144.38,8.67 -226.71,15.9 -247.63,20.95 -41.15,11.55 -64.96,37.54 -72.19,78.68 -18.05,101.08 -27.43,319.82 -27.43,655.51l0 348.71c149.43,7.23 355.18,10.82 617.98,10.82 411.49,0 667.79,-3.59 769.58,-10.82l0 -348.71c0,-335.69 -9.38,-554.44 -27.43,-655.51 -7.23,-41.15 -31.04,-67.13 -72.19,-78.68 -20.95,-5.06 -103.25,-12.28 -247.63,-20.95l-23.1 -20.93 0 -143.67 21.66 -19.49c136.44,8.67 353.74,12.99 651.18,12.99 307.53,0 524.85,-4.32 651.21,-12.99l21.66 19.49 0 145.84 -19.51 18.76c-146.56,8.67 -229.59,15.9 -249.1,20.95 -41.15,11.55 -64.96,37.54 -72.19,78.68 -18.76,101.08 -27.43,319.82 -27.43,655.51l0 1119.02c0,335.69 8.67,553.73 27.43,655.51 7.23,41.15 31.04,67.13 72.19,77.98 20.95,5.76 103.27,12.99 246.95,21.66l21.66 20.93 0 141.5zm7280.19 -2812.67l-23.81 20.93c-143.67,8.67 -225.97,15.9 -246.92,20.95 -41.15,11.55 -64.96,37.54 -72.19,78.68 -18.05,101.08 -27.43,319.82 -27.43,655.51l0 858.4c0,633.14 9.38,1046.08 27.43,1237.39l-27.43 19.51c-159.54,-26.72 -280.11,-46.2 -361.7,-57.05 -377.57,-424.49 -1022.98,-1199.15 -1935.51,-2322.46l0 1383.23c0,335.69 9.38,553.73 27.43,655.51 7.23,41.15 31.06,67.13 72.21,77.98 20.93,5.76 103.96,12.99 247.6,21.66l20.95 20.93 0 143.67 -20.95 19.49c-162.42,-8.67 -313.32,-12.99 -452.64,-12.99 -162.45,0 -324.87,4.32 -488.76,12.99l-20.93 -19.49 0 -143.67 20.93 -20.93c143.67,-8.67 226.7,-15.9 247.63,-21.66 41.15,-10.84 64.98,-36.83 71.48,-77.98 18.76,-101.79 28.16,-319.82 28.16,-655.51l0 -1119.02c0,-335.69 -9.4,-554.44 -28.16,-655.51 -6.5,-41.15 -30.33,-67.13 -71.48,-78.68 -20.93,-5.06 -103.96,-12.28 -247.63,-20.95l-20.93 -20.93 0 -143.67 20.93 -19.49c134.29,8.67 261.35,12.99 382.63,12.99 190.61,0 348.71,-4.32 474.33,-12.99 507.52,677.17 1103.83,1402.72 1788.96,2176.64l0 -1237.41c0,-335.69 -9.4,-554.44 -27.45,-655.51 -7.2,-41.15 -31.04,-67.13 -71.46,-78.68 -21.66,-5.06 -103.96,-12.28 -247.63,-20.95l-21.66 -20.93 0 -143.67 21.66 -19.49c157.37,8.67 307.53,12.99 450.49,12.99 181.91,0 345.07,-4.32 490.18,-12.99l21.66 19.49 0 143.67zm1687.98 2812.67l-19.49 21.66c-140.76,-8.67 -358.79,-12.99 -653.36,-12.99 -293.1,0 -510.4,4.32 -651.19,12.99l-19.49 -21.66 0 -141.5 21.66 -20.93c143.67,-8.67 225.97,-15.9 246.9,-21.66 41.15,-10.84 64.98,-36.83 72.21,-77.98 18.05,-101.79 27.43,-319.82 27.43,-655.51l0 -1119.02c0,-335.69 -9.38,-554.44 -27.43,-655.51 -7.23,-41.15 -31.06,-67.13 -72.21,-78.68 -20.93,-5.06 -103.23,-12.28 -246.9,-20.95l-21.66 -20.93 0 -143.67 21.66 -19.49c135,8.67 352.3,12.99 651.19,12.99 297.45,0 514.01,-4.32 649.04,-12.99l21.64 19.49 0 143.67 -21.64 20.93c-143.67,8.67 -225.97,15.9 -246.92,20.95 -41.15,11.55 -64.96,37.54 -72.19,78.68 -18.05,101.08 -27.43,319.82 -27.43,655.51l0 1119.02c0,335.69 9.38,553.73 27.43,655.51 7.23,41.15 31.04,67.13 72.19,77.98 20.95,5.76 103.25,12.99 246.92,21.66l21.64 20.93 0 141.5z"/>
   <path fill="none" fill-rule="nonzero" d="M18594.05 5906.84c0,520.51 -151.61,928.41 -454.82,1224.4 -294.54,288.07 -697.39,431.74 -1207.82,431.74 -482.24,0 -860.55,-135.73 -1135.6,-407.19 -275.05,-271.45 -412.93,-649.02 -412.93,-1132.72 0,-677.88 259.16,-1147.86 776.78,-1408.48 235.37,-118.42 524.85,-177.61 869.22,-177.61 491.64,0 875,128.5 1148.61,386.97 277.23,262.07 416.55,623.03 416.55,1082.9zm-651.92 109.72c0,-408.61 -81.57,-733.48 -246.16,-973.89 -164.6,-240.4 -405.02,-360.26 -721.93,-360.26 -419.46,0 -696.69,187.72 -833.86,564.57 -70.02,192.75 -105.4,409.34 -105.4,649.01 0,436.06 80.15,779.71 241.13,1032.37 166.04,260.63 415.11,391.3 746.48,391.3 402.12,0 672.14,-197.81 810.02,-594.17 73.63,-210.07 109.72,-446.15 109.72,-708.94z"/>
  </g>
  <circle fill="#CF0300" cx="16302.46" cy="5999.97" r="292.99"/>
  <circle fill="#CF0300" cx="17826.01" cy="5999.97" r="292.99"/>
  <circle fill="#CF0300" cx="17064.23" cy="5999.98" r="1715.05"/>
  <path fill="white" d="M15869.56 4940.71c-93.91,196.87 -201.24,385.66 -161.99,616.85 27.33,161.17 132.34,283.01 318.1,404.54 185.77,121.52 554.88,169.75 799.09,324.78 -638.74,-616.28 -1065.03,-382.39 -955.2,-1346.18zm1105.82 1836.87c-36.41,244.46 -347.46,412.23 -549.73,505.95 330.17,32.27 502.94,-109.04 549.73,-505.95zm-17.98 -182.8c-59.67,271.81 -468.07,365.16 -697.77,415.49 299.94,95.21 636.75,40.67 697.77,-415.49zm-1255.8 -752.68c63.97,264.08 285.39,487.03 560.81,506.79 167.41,16.19 331.92,-51.98 628.54,86.29 -213.64,-279.62 -817.84,-104.63 -1189.34,-593.08zm260.32 -555.13c79.76,500.65 708.47,574.94 965.28,1009.71 256.81,434.77 -101.32,839.15 148.26,1198.21 236.34,-323.44 -120.15,-792.25 154.59,-1211.33 274.75,-419.08 1119.47,-685.14 922.72,-1316.7 -65.65,-210.68 -292.16,-404.37 -517.59,-461.74 76.08,103.01 238.18,190.89 278.45,491.22 22.74,169.46 -17.57,344.57 -92.37,487.99 -79.79,152.99 -248.66,348.58 -405.85,407.54 -274.32,102.9 -300.36,-187.49 -69.19,-202.29 -106.93,-111.48 -251.2,-8.66 -474.74,-19.81 33.12,31.43 42.76,32.29 100.37,42.94 -55.54,48.63 -109.52,66.82 -150.86,91.68 74.12,15.15 71.95,6.34 138.67,-4.03 -60.09,47.36 -61.77,30.64 -119.53,61.69l84.68 17.44c-226.97,118.27 -481.6,-200.93 -575.41,-358.59 -122.33,-205.62 -153.03,-470.92 -66.21,-695.11 67.75,-174.89 119.2,-214.99 226.58,-317.7 -293.96,65.76 -627.63,278.24 -547.87,778.88zm2296.97 -346.26c93.92,196.87 201.24,385.66 161.99,616.85 -27.33,161.17 -132.34,283.01 -318.1,404.54 -185.77,121.52 -554.88,169.75 -799.09,324.78 638.74,-616.28 1065.03,-382.39 955.2,-1346.18zm-1105.82 1836.87c36.41,244.46 347.46,412.23 549.73,505.95 -330.17,32.27 -502.94,-109.04 -549.73,-505.95zm17.98 -182.8c59.68,271.81 468.07,365.16 697.77,415.49 -299.94,95.21 -636.75,40.67 -697.77,-415.49zm1255.81 -752.68c-63.97,264.08 -285.4,487.03 -560.81,506.79 -167.41,16.19 -331.91,-51.98 -628.53,86.29 213.63,-279.62 817.84,-104.63 1189.34,-593.08z"/>
 </g>
</svg>
