<?xml version="1.0" encoding="UTF-8"?>
<!DOCTYPE svg PUBLIC "-//W3C//DTD SVG 1.1//EN" "http://www.w3.org/Graphics/SVG/1.1/DTD/svg11.dtd">
<!-- Creator: CorelDRAW 2020 (64-Bit) -->
<svg xmlns="http://www.w3.org/2000/svg" xml:space="preserve" width="8.00002in" height="7.99998in" version="1.1" shape-rendering="geometricPrecision" text-rendering="geometricPrecision" image-rendering="optimizeQuality" fill-rule="evenodd" clip-rule="evenodd"
viewBox="0 0 2000.01 2000"
 xmlns:xlink="http://www.w3.org/1999/xlink"
 xmlns:xodm="http://www.corel.com/coreldraw/odm/2003">
 <defs>
    <clipPath id="id0" clip-rule="nonzero">
     <path d="M1000 666.67c92.05,0 175.38,37.31 235.7,97.63 60.32,60.32 97.63,143.65 97.63,235.7 0,92.05 -37.31,175.38 -97.63,235.7 -60.32,60.32 -143.65,97.63 -235.7,97.63 -92.04,0 -175.38,-37.31 -235.7,-97.63 -60.32,-60.32 -97.63,-143.65 -97.63,-235.7 0,-92.04 37.31,-175.38 97.63,-235.7 60.32,-60.32 143.66,-97.63 235.7,-97.63zm214.98 118.35c-55.01,-55.02 -131.02,-89.05 -214.98,-89.05 -83.95,0 -159.97,34.03 -214.98,89.05 -55.02,55.02 -89.05,131.03 -89.05,214.98 0,83.96 34.03,159.97 89.05,214.98 55.01,55.02 131.03,89.05 214.98,89.05 83.96,0 159.97,-34.03 214.98,-89.05 55.02,-55.01 89.05,-131.02 89.05,-214.98 0,-83.95 -34.03,-159.96 -89.05,-214.98z"/>
    </clipPath>
 </defs>
 <g id="Layer_x0020_1">
  <metadata id="CorelCorpID_0Corel-Layer"/>
  <rect fill="#114861" x="-0" y="-0" width="2000.01" height="2000"/>
  <g>
   <g clip-path="url(#id0)">
    <polygon fill="#FAFEFD" fill-rule="nonzero" points="773.21,567.03 776.23,567.98 570.06,1227.74 567.03,1226.8 "/>
    <polygon id="1" fill="#FBFEFE" fill-rule="nonzero" points="774.99,567.59 778.72,568.75 572.54,1228.52 568.81,1227.35 "/>
    <polygon id="2" fill="#FCFEFE" fill-rule="nonzero" points="777.47,568.37 781.2,569.53 575.03,1229.29 571.3,1228.13 "/>
    <polygon id="3" fill="#FDFFFE" fill-rule="nonzero" points="779.96,569.14 783.69,570.31 577.51,1230.07 573.78,1228.91 "/>
    <polygon id="4" fill="#FEFFFF" fill-rule="nonzero" points="782.44,569.92 786.17,571.08 580,1230.85 576.27,1229.68 "/>
    <polygon id="5" fill="white" fill-rule="nonzero" points="784.93,570.7 788.66,571.86 582.48,1231.62 578.75,1230.46 "/>
    <polygon id="6" fill="#FEFFFF" fill-rule="nonzero" points="787.42,571.47 791.14,572.64 584.97,1232.4 581.24,1231.24 "/>
    <polygon id="7" fill="#FDFFFE" fill-rule="nonzero" points="789.9,572.25 793.63,573.41 587.45,1233.18 583.73,1232.01 "/>
    <polygon id="8" fill="#FCFEFE" fill-rule="nonzero" points="792.39,573.03 796.12,574.19 589.94,1233.95 586.21,1232.79 "/>
    <polygon id="9" fill="#FBFEFE" fill-rule="nonzero" points="794.87,573.8 798.6,574.97 592.43,1234.73 588.7,1233.57 "/>
    <polygon id="10" fill="#FAFEFD" fill-rule="nonzero" points="797.36,574.58 801.09,575.74 594.91,1235.51 591.18,1234.34 "/>
    <polygon id="11" fill="#F9FEFD" fill-rule="nonzero" points="799.84,575.36 803.57,576.52 597.4,1236.28 593.67,1235.12 "/>
    <polygon id="12" fill="#F8FEFD" fill-rule="nonzero" points="802.33,576.13 806.06,577.3 599.88,1237.06 596.15,1235.9 "/>
    <polygon id="13" fill="#F7FEFC" fill-rule="nonzero" points="804.82,576.91 808.54,578.08 602.37,1237.84 598.64,1236.67 "/>
    <polygon id="14" fill="#F6FDFC" fill-rule="nonzero" points="807.3,577.69 811.03,578.85 604.85,1238.62 601.13,1237.45 "/>
    <polygon id="15" fill="#F5FDFC" fill-rule="nonzero" points="809.79,578.46 813.52,579.63 607.34,1239.39 603.61,1238.23 "/>
    <polygon id="16" fill="#F4FDFB" fill-rule="nonzero" points="812.27,579.24 816,580.4 609.83,1240.17 606.1,1239 "/>
    <polygon id="17" fill="#F3FDFB" fill-rule="nonzero" points="814.76,580.02 818.49,581.18 612.31,1240.94 608.58,1239.78 "/>
    <polygon id="18" fill="#F2FDFB" fill-rule="nonzero" points="817.24,580.79 820.97,581.96 614.8,1241.72 611.07,1240.56 "/>
    <polygon id="19" fill="#F1FDFA" fill-rule="nonzero" points="819.73,581.57 823.46,582.74 617.28,1242.5 613.55,1241.33 "/>
    <polygon id="20" fill="#F0FCFA" fill-rule="nonzero" points="822.22,582.35 825.94,583.51 619.77,1243.28 616.04,1242.11 "/>
    <polygon id="21" fill="#EFFCFA" fill-rule="nonzero" points="824.7,583.12 828.43,584.29 622.25,1244.05 618.53,1242.89 "/>
    <polygon id="22" fill="#EEFCFA" fill-rule="nonzero" points="827.19,583.9 830.91,585.07 624.74,1244.83 621.01,1243.66 "/>
    <polygon id="23" fill="#EDFCF9" fill-rule="nonzero" points="829.67,584.68 833.4,585.84 627.22,1245.61 623.5,1244.44 "/>
    <polygon id="24" fill="#ECFCF9" fill-rule="nonzero" points="832.16,585.45 835.89,586.62 629.71,1246.38 625.98,1245.22 "/>
    <polygon id="25" fill="#EBFCF9" fill-rule="nonzero" points="834.64,586.23 838.37,587.4 632.2,1247.16 628.47,1245.99 "/>
    <polygon id="26" fill="#EAFBF8" fill-rule="nonzero" points="837.13,587.01 840.86,588.17 634.68,1247.94 630.95,1246.77 "/>
    <polygon id="27" fill="#E9FBF8" fill-rule="nonzero" points="839.61,587.78 843.34,588.95 637.17,1248.71 633.44,1247.55 "/>
    <polygon id="28" fill="#E8FBF8" fill-rule="nonzero" points="842.1,588.56 845.83,589.73 639.65,1249.49 635.92,1248.32 "/>
    <polygon id="29" fill="#E7FBF7" fill-rule="nonzero" points="844.59,589.34 848.31,590.5 642.14,1250.27 638.41,1249.1 "/>
    <polygon id="30" fill="#E6FBF7" fill-rule="nonzero" points="847.07,590.11 850.8,591.28 644.62,1251.04 640.9,1249.88 "/>
    <polygon id="31" fill="#E5FBF7" fill-rule="nonzero" points="849.56,590.89 853.29,592.06 647.11,1251.82 643.38,1250.65 "/>
    <polygon id="32" fill="#E4FAF6" fill-rule="nonzero" points="852.04,591.67 855.77,592.83 649.6,1252.6 645.87,1251.43 "/>
    <polygon id="33" fill="#E3FAF6" fill-rule="nonzero" points="854.53,592.45 858.26,593.61 652.08,1253.37 648.35,1252.21 "/>
    <polygon id="34" fill="#E2FAF6" fill-rule="nonzero" points="857.01,593.22 860.74,594.39 654.57,1254.15 650.84,1252.99 "/>
    <polygon id="35" fill="#E1FAF5" fill-rule="nonzero" points="859.5,594 863.23,595.16 657.05,1254.93 653.32,1253.76 "/>
    <polygon id="36" fill="#E0FAF5" fill-rule="nonzero" points="861.99,594.78 865.71,595.94 659.54,1255.7 655.81,1254.54 "/>
    <polygon id="37" fill="#DFF9F5" fill-rule="nonzero" points="864.47,595.55 868.2,596.72 662.02,1256.48 658.29,1255.32 "/>
    <polygon id="38" fill="#DEF9F4" fill-rule="nonzero" points="866.96,596.33 870.69,597.49 664.51,1257.26 660.78,1256.09 "/>
    <polygon id="39" fill="#DDF9F4" fill-rule="nonzero" points="869.44,597.11 873.17,598.27 666.99,1258.03 663.27,1256.87 "/>
    <polygon id="40" fill="#DCF9F4" fill-rule="nonzero" points="871.93,597.88 875.66,599.05 669.48,1258.81 665.75,1257.65 "/>
    <polygon id="41" fill="#DBF9F3" fill-rule="nonzero" points="874.41,598.66 878.14,599.82 671.97,1259.59 668.24,1258.42 "/>
    <polygon id="42" fill="#DAF9F3" fill-rule="nonzero" points="876.9,599.44 880.63,600.6 674.45,1260.36 670.72,1259.2 "/>
    <polygon id="43" fill="#D9F8F3" fill-rule="nonzero" points="879.38,600.21 883.11,601.38 676.94,1261.14 673.21,1259.98 "/>
    <polygon id="44" fill="#D8F8F2" fill-rule="nonzero" points="881.87,600.99 885.6,602.15 679.42,1261.92 675.69,1260.75 "/>
    <polygon id="45" fill="#D7F8F2" fill-rule="nonzero" points="884.36,601.77 888.08,602.93 681.91,1262.69 678.18,1261.53 "/>
    <polygon id="46" fill="#D6F8F2" fill-rule="nonzero" points="886.84,602.54 890.57,603.71 684.39,1263.47 680.67,1262.31 "/>
    <polygon id="47" fill="#D5F8F1" fill-rule="nonzero" points="889.33,603.32 893.06,604.48 686.88,1264.25 683.15,1263.08 "/>
    <polygon id="48" fill="#D4F8F1" fill-rule="nonzero" points="891.81,604.1 895.54,605.26 689.36,1265.02 685.64,1263.86 "/>
    <polygon id="49" fill="#D3F7F1" fill-rule="nonzero" points="894.3,604.87 898.03,606.04 691.85,1265.8 688.12,1264.64 "/>
    <polygon id="50" fill="#D2F7F1" fill-rule="nonzero" points="896.78,605.65 900.51,606.82 694.34,1266.58 690.61,1265.41 "/>
    <polygon id="51" fill="#D1F7F0" fill-rule="nonzero" points="899.27,606.43 903,607.59 696.82,1267.35 693.09,1266.19 "/>
    <polygon id="52" fill="#D0F7F0" fill-rule="nonzero" points="901.76,607.2 905.48,608.37 699.31,1268.13 695.58,1266.97 "/>
    <polygon id="53" fill="#CFF7F0" fill-rule="nonzero" points="904.24,607.98 907.97,609.15 701.79,1268.91 698.06,1267.74 "/>
    <polygon id="54" fill="#CEF7EF" fill-rule="nonzero" points="906.73,608.76 910.45,609.92 704.28,1269.69 700.55,1268.52 "/>
    <polygon id="55" fill="#CDF6EF" fill-rule="nonzero" points="909.21,609.53 912.94,610.7 706.76,1270.46 703.04,1269.3 "/>
    <polygon id="56" fill="#CCF6EF" fill-rule="nonzero" points="911.7,610.31 915.43,611.48 709.25,1271.24 705.52,1270.07 "/>
    <polygon id="57" fill="#CBF6EE" fill-rule="nonzero" points="914.18,611.09 917.91,612.25 711.74,1272.02 708.01,1270.85 "/>
    <polygon id="58" fill="#CAF6EE" fill-rule="nonzero" points="916.67,611.86 920.4,613.03 714.22,1272.79 710.49,1271.63 "/>
    <polygon id="59" fill="#C9F6EE" fill-rule="nonzero" points="919.15,612.64 922.88,613.81 716.71,1273.57 712.98,1272.4 "/>
    <polygon id="60" fill="#C8F6ED" fill-rule="nonzero" points="921.64,613.42 925.37,614.58 719.19,1274.35 715.46,1273.18 "/>
    <polygon id="61" fill="#C7F5ED" fill-rule="nonzero" points="924.13,614.19 927.85,615.36 721.68,1275.12 717.95,1273.96 "/>
    <polygon id="62" fill="#C6F5ED" fill-rule="nonzero" points="926.61,614.97 930.34,616.14 724.16,1275.9 720.43,1274.73 "/>
    <polygon id="63" fill="#C5F5EC" fill-rule="nonzero" points="929.1,615.75 932.83,616.91 726.65,1276.68 722.92,1275.51 "/>
    <polygon id="64" fill="#C4F5EC" fill-rule="nonzero" points="931.58,616.52 935.31,617.69 729.13,1277.45 725.41,1276.29 "/>
    <polygon id="65" fill="#C3F5EC" fill-rule="nonzero" points="934.07,617.3 937.8,618.47 731.62,1278.23 727.89,1277.06 "/>
    <polygon id="66" fill="#C2F4EB" fill-rule="nonzero" points="936.55,618.08 940.28,619.24 734.11,1279.01 730.38,1277.84 "/>
    <polygon id="67" fill="#C1F4EB" fill-rule="nonzero" points="939.04,618.85 942.77,620.02 736.59,1279.78 732.86,1278.62 "/>
    <polygon id="68" fill="#C0F4EB" fill-rule="nonzero" points="941.52,619.63 945.25,620.8 739.08,1280.56 735.35,1279.39 "/>
    <polygon id="69" fill="#BFF4EA" fill-rule="nonzero" points="944.01,620.41 947.74,621.57 741.56,1281.34 737.83,1280.17 "/>
    <polygon id="70" fill="#BEF4EA" fill-rule="nonzero" points="946.5,621.18 950.22,622.35 744.05,1282.11 740.32,1280.95 "/>
    <polygon id="71" fill="#BDF4EA" fill-rule="nonzero" points="948.98,621.96 952.71,623.13 746.53,1282.89 742.81,1281.72 "/>
    <polygon id="72" fill="#BCF3E9" fill-rule="nonzero" points="951.47,622.74 955.2,623.9 749.02,1283.67 745.29,1282.5 "/>
    <polygon id="73" fill="#BBF3E9" fill-rule="nonzero" points="953.95,623.52 957.68,624.68 751.51,1284.44 747.78,1283.28 "/>
    <polygon id="74" fill="#BAF3E9" fill-rule="nonzero" points="956.44,624.29 960.17,625.46 753.99,1285.22 750.26,1284.06 "/>
    <polygon id="75" fill="#B9F3E8" fill-rule="nonzero" points="958.92,625.07 962.65,626.23 756.48,1286 752.75,1284.83 "/>
    <polygon id="76" fill="#B8F3E8" fill-rule="nonzero" points="961.41,625.85 965.14,627.01 758.96,1286.77 755.23,1285.61 "/>
    <polygon id="77" fill="#B7F3E8" fill-rule="nonzero" points="963.9,626.62 967.62,627.79 761.45,1287.55 757.72,1286.39 "/>
    <polygon id="78" fill="#B6F2E8" fill-rule="nonzero" points="966.38,627.4 970.11,628.56 763.93,1288.33 760.21,1287.16 "/>
    <polygon id="79" fill="#B5F2E7" fill-rule="nonzero" points="968.87,628.18 972.59,629.34 766.42,1289.1 762.69,1287.94 "/>
    <polygon id="80" fill="#B4F2E7" fill-rule="nonzero" points="971.35,628.95 975.08,630.12 768.9,1289.88 765.18,1288.72 "/>
    <polygon id="81" fill="#B3F2E7" fill-rule="nonzero" points="973.84,629.73 977.57,630.89 771.39,1290.66 767.66,1289.49 "/>
    <polygon id="82" fill="#B2F2E6" fill-rule="nonzero" points="976.32,630.51 980.05,631.67 773.88,1291.43 770.15,1290.27 "/>
    <polygon id="83" fill="#B1F2E6" fill-rule="nonzero" points="978.81,631.28 982.54,632.45 776.36,1292.21 772.63,1291.05 "/>
    <polygon id="84" fill="#B0F1E6" fill-rule="nonzero" points="981.29,632.06 985.02,633.22 778.85,1292.99 775.12,1291.82 "/>
    <polygon id="85" fill="#AFF1E5" fill-rule="nonzero" points="983.78,632.84 987.51,634 781.33,1293.76 777.6,1292.6 "/>
    <polygon id="86" fill="#AEF1E5" fill-rule="nonzero" points="986.27,633.61 989.99,634.78 783.82,1294.54 780.09,1293.38 "/>
    <polygon id="87" fill="#ADF1E5" fill-rule="nonzero" points="988.75,634.39 992.48,635.55 786.3,1295.32 782.58,1294.15 "/>
    <polygon id="88" fill="#ACF1E4" fill-rule="nonzero" points="991.24,635.17 994.97,636.33 788.79,1296.09 785.06,1294.93 "/>
    <polygon id="89" fill="#ABF1E4" fill-rule="nonzero" points="993.72,635.94 997.45,637.11 791.28,1296.87 787.55,1295.71 "/>
    <polygon id="90" fill="#AAF0E4" fill-rule="nonzero" points="996.21,636.72 999.94,637.89 793.76,1297.65 790.03,1296.48 "/>
    <polygon id="91" fill="#A9F0E3" fill-rule="nonzero" points="998.69,637.5 1002.42,638.66 796.25,1298.43 792.52,1297.26 "/>
    <polygon id="92" fill="#A8F0E3" fill-rule="nonzero" points="1001.18,638.27 1004.91,639.44 798.73,1299.2 795,1298.04 "/>
    <polygon id="93" fill="#A7F0E3" fill-rule="nonzero" points="1003.67,639.05 1007.39,640.22 801.22,1299.98 797.49,1298.81 "/>
    <polygon id="94" fill="#A6F0E2" fill-rule="nonzero" points="1006.15,639.83 1009.88,640.99 803.7,1300.76 799.98,1299.59 "/>
    <polygon id="95" fill="#A5EFE2" fill-rule="nonzero" points="1008.64,640.6 1012.37,641.77 806.19,1301.53 802.46,1300.37 "/>
    <polygon id="96" fill="#A4EFE2" fill-rule="nonzero" points="1011.12,641.38 1014.85,642.55 808.68,1302.31 804.95,1301.14 "/>
    <polygon id="97" fill="#A3EFE1" fill-rule="nonzero" points="1013.61,642.16 1017.34,643.32 811.16,1303.09 807.43,1301.92 "/>
    <polygon id="98" fill="#A2EFE1" fill-rule="nonzero" points="1016.09,642.93 1019.82,644.1 813.65,1303.86 809.92,1302.7 "/>
    <polygon id="99" fill="#A1EFE1" fill-rule="nonzero" points="1018.58,643.71 1022.31,644.88 816.13,1304.64 812.4,1303.47 "/>
    <polygon id="100" fill="#A0EFE0" fill-rule="nonzero" points="1021.06,644.49 1024.79,645.65 818.62,1305.42 814.89,1304.25 "/>
    <polygon id="101" fill="#9FEEE0" fill-rule="nonzero" points="1023.55,645.26 1027.28,646.43 821.1,1306.19 817.37,1305.03 "/>
    <polygon id="102" fill="#9EEEE0" fill-rule="nonzero" points="1026.04,646.04 1029.76,647.21 823.59,1306.97 819.86,1305.8 "/>
    <polygon id="103" fill="#9DEEDF" fill-rule="nonzero" points="1028.52,646.82 1032.25,647.98 826.07,1307.75 822.35,1306.58 "/>
    <polygon id="104" fill="#9CEEDF" fill-rule="nonzero" points="1031.01,647.6 1034.74,648.76 828.56,1308.52 824.83,1307.36 "/>
    <polygon id="105" fill="#9BEEDF" fill-rule="nonzero" points="1033.49,648.37 1037.22,649.54 831.05,1309.3 827.32,1308.14 "/>
    <polygon id="106" fill="#9AEEDF" fill-rule="nonzero" points="1035.98,649.15 1039.71,650.31 833.53,1310.08 829.8,1308.91 "/>
    <polygon id="107" fill="#99EDDE" fill-rule="nonzero" points="1038.46,649.92 1042.19,651.09 836.02,1310.85 832.29,1309.69 "/>
    <polygon id="108" fill="#98EDDE" fill-rule="nonzero" points="1040.95,650.7 1044.68,651.87 838.5,1311.63 834.77,1310.46 "/>
    <polygon id="109" fill="#97EDDE" fill-rule="nonzero" points="1043.44,651.48 1047.16,652.64 840.99,1312.41 837.26,1311.24 "/>
    <polygon id="110" fill="#96EDDD" fill-rule="nonzero" points="1045.92,652.26 1049.65,653.42 843.47,1313.18 839.75,1312.02 "/>
    <polygon id="111" fill="#95EDDD" fill-rule="nonzero" points="1048.41,653.03 1052.14,654.2 845.96,1313.96 842.23,1312.8 "/>
    <polygon id="112" fill="#94EDDD" fill-rule="nonzero" points="1050.89,653.81 1054.62,654.97 848.45,1314.74 844.72,1313.57 "/>
    <polygon id="113" fill="#93ECDC" fill-rule="nonzero" points="1053.38,654.59 1057.11,655.75 850.93,1315.51 847.2,1314.35 "/>
    <polygon id="114" fill="#92ECDC" fill-rule="nonzero" points="1055.86,655.36 1059.59,656.53 853.42,1316.29 849.69,1315.13 "/>
    <polygon id="115" fill="#91ECDC" fill-rule="nonzero" points="1058.35,656.14 1062.08,657.3 855.9,1317.07 852.17,1315.9 "/>
    <polygon id="116" fill="#90ECDB" fill-rule="nonzero" points="1060.84,656.92 1064.56,658.08 858.39,1317.84 854.66,1316.68 "/>
    <polygon id="117" fill="#8FECDB" fill-rule="nonzero" points="1063.32,657.69 1067.05,658.86 860.87,1318.62 857.14,1317.46 "/>
    <polygon id="118" fill="#8EECDB" fill-rule="nonzero" points="1065.81,658.47 1069.53,659.63 863.36,1319.4 859.63,1318.23 "/>
    <polygon id="119" fill="#8DEBDA" fill-rule="nonzero" points="1068.29,659.25 1072.02,660.41 865.84,1320.17 862.12,1319.01 "/>
    <polygon id="120" fill="#8CEBDA" fill-rule="nonzero" points="1070.78,660.02 1074.51,661.19 868.33,1320.95 864.6,1319.79 "/>
    <polygon id="121" fill="#8BEBDA" fill-rule="nonzero" points="1073.26,660.8 1076.99,661.97 870.82,1321.73 867.09,1320.56 "/>
    <polygon id="122" fill="#8AEBD9" fill-rule="nonzero" points="1075.75,661.58 1079.48,662.74 873.3,1322.5 869.57,1321.34 "/>
    <polygon id="123" fill="#89EBD9" fill-rule="nonzero" points="1078.23,662.35 1081.96,663.52 875.79,1323.28 872.06,1322.12 "/>
    <polygon id="124" fill="#88EAD9" fill-rule="nonzero" points="1080.72,663.13 1084.45,664.29 878.27,1324.06 874.54,1322.89 "/>
    <polygon id="125" fill="#87EAD8" fill-rule="nonzero" points="1083.21,663.91 1086.93,665.07 880.76,1324.83 877.03,1323.67 "/>
    <polygon id="126" fill="#86EAD8" fill-rule="nonzero" points="1085.69,664.68 1089.42,665.85 883.24,1325.61 879.51,1324.45 "/>
    <polygon id="127" fill="#85EAD8" fill-rule="nonzero" points="1088.18,665.46 1091.91,666.63 885.73,1326.39 882,1325.22 "/>
    <polygon id="128" fill="#84EAD7" fill-rule="nonzero" points="1090.66,666.24 1094.39,667.4 888.21,1327.17 884.49,1326 "/>
    <polygon id="129" fill="#83EAD7" fill-rule="nonzero" points="1093.15,667.01 1096.88,668.18 890.7,1327.94 886.97,1326.78 "/>
    <polygon id="130" fill="#82E9D7" fill-rule="nonzero" points="1095.63,667.79 1099.36,668.96 893.19,1328.72 889.46,1327.55 "/>
    <polygon id="131" fill="#81E9D6" fill-rule="nonzero" points="1098.12,668.57 1101.85,669.73 895.67,1329.5 891.94,1328.33 "/>
    <polygon id="132" fill="#80E9D6" fill-rule="nonzero" points="1100.61,669.34 1104.33,670.51 898.16,1330.27 894.43,1329.11 "/>
    <polygon id="133" fill="#7FE9D6" fill-rule="nonzero" points="1103.09,670.12 1106.82,671.29 900.64,1331.05 896.91,1329.88 "/>
    <polygon id="134" fill="#7EE9D6" fill-rule="nonzero" points="1105.58,670.9 1109.3,672.06 903.13,1331.83 899.4,1330.66 "/>
    <polygon id="135" fill="#7DE9D5" fill-rule="nonzero" points="1108.06,671.67 1111.79,672.84 905.61,1332.6 901.89,1331.44 "/>
    <polygon id="136" fill="#7CE8D5" fill-rule="nonzero" points="1110.55,672.45 1114.28,673.62 908.1,1333.38 904.37,1332.21 "/>
    <polygon id="137" fill="#7BE8D5" fill-rule="nonzero" points="1113.03,673.23 1116.76,674.39 910.58,1334.16 906.86,1332.99 "/>
    <polygon id="138" fill="#7AE8D4" fill-rule="nonzero" points="1115.52,674 1119.25,675.17 913.07,1334.93 909.34,1333.77 "/>
    <polygon id="139" fill="#79E8D4" fill-rule="nonzero" points="1118,674.78 1121.73,675.95 915.56,1335.71 911.83,1334.54 "/>
    <polygon id="140" fill="#78E8D4" fill-rule="nonzero" points="1120.49,675.56 1124.22,676.72 918.04,1336.49 914.31,1335.32 "/>
    <polygon id="141" fill="#77E8D3" fill-rule="nonzero" points="1122.98,676.33 1126.7,677.5 920.53,1337.26 916.8,1336.1 "/>
    <polygon id="142" fill="#76E7D3" fill-rule="nonzero" points="1125.46,677.11 1129.19,678.28 923.01,1338.04 919.28,1336.87 "/>
    <polygon id="143" fill="#75E7D3" fill-rule="nonzero" points="1127.95,677.89 1131.68,679.05 925.5,1338.82 921.77,1337.65 "/>
    <polygon id="144" fill="#74E7D2" fill-rule="nonzero" points="1130.43,678.67 1134.16,679.83 927.98,1339.59 924.26,1338.43 "/>
    <polygon id="145" fill="#73E7D2" fill-rule="nonzero" points="1132.92,679.44 1136.65,680.61 930.47,1340.37 926.74,1339.21 "/>
    <polygon id="146" fill="#72E7D2" fill-rule="nonzero" points="1135.4,680.22 1139.13,681.38 932.96,1341.15 929.23,1339.98 "/>
    <polygon id="147" fill="#71E6D1" fill-rule="nonzero" points="1137.89,681 1141.62,682.16 935.44,1341.92 931.71,1340.76 "/>
    <polygon id="148" fill="#70E6D1" fill-rule="nonzero" points="1140.37,681.77 1144.1,682.94 937.93,1342.7 934.2,1341.53 "/>
    <polygon id="149" fill="#6FE6D1" fill-rule="nonzero" points="1142.86,682.55 1146.59,683.71 940.41,1343.48 936.68,1342.31 "/>
    <polygon id="150" fill="#6EE6D0" fill-rule="nonzero" points="1145.35,683.33 1149.07,684.49 942.9,1344.25 939.17,1343.09 "/>
    <polygon id="151" fill="#6DE6D0" fill-rule="nonzero" points="1147.83,684.1 1151.56,685.27 945.38,1345.03 941.66,1343.87 "/>
    <polygon id="152" fill="#6CE6D0" fill-rule="nonzero" points="1150.32,684.88 1154.05,686.04 947.87,1345.81 944.14,1344.64 "/>
    <polygon id="153" fill="#6BE5CF" fill-rule="nonzero" points="1152.8,685.66 1156.53,686.82 950.36,1346.58 946.63,1345.42 "/>
    <polygon id="154" fill="#6AE5CF" fill-rule="nonzero" points="1155.29,686.43 1159.02,687.6 952.84,1347.36 949.11,1346.2 "/>
    <polygon id="155" fill="#69E5CF" fill-rule="nonzero" points="1157.77,687.21 1161.5,688.37 955.33,1348.14 951.6,1346.97 "/>
    <polygon id="156" fill="#68E5CE" fill-rule="nonzero" points="1160.26,687.99 1163.99,689.15 957.81,1348.91 954.08,1347.75 "/>
    <polygon id="157" fill="#67E5CE" fill-rule="nonzero" points="1162.74,688.76 1166.47,689.93 960.3,1349.69 956.57,1348.53 "/>
    <polygon id="158" fill="#66E5CE" fill-rule="nonzero" points="1165.23,689.54 1168.96,690.7 962.78,1350.47 959.05,1349.3 "/>
    <polygon id="159" fill="#65E4CD" fill-rule="nonzero" points="1167.72,690.32 1171.44,691.48 965.27,1351.24 961.54,1350.08 "/>
    <polygon id="160" fill="#64E4CD" fill-rule="nonzero" points="1170.2,691.09 1173.93,692.26 967.75,1352.02 964.03,1350.86 "/>
    <polygon id="161" fill="#63E4CD" fill-rule="nonzero" points="1172.69,691.87 1176.42,693.04 970.24,1352.8 966.51,1351.63 "/>
    <polygon id="162" fill="#62E4CD" fill-rule="nonzero" points="1175.17,692.65 1178.9,693.81 972.73,1353.58 969,1352.41 "/>
    <polygon id="163" fill="#61E4CC" fill-rule="nonzero" points="1177.66,693.42 1181.39,694.59 975.21,1354.35 971.48,1353.19 "/>
    <polygon id="164" fill="#60E4CC" fill-rule="nonzero" points="1180.14,694.2 1183.87,695.36 977.7,1355.13 973.97,1353.96 "/>
    <polygon id="165" fill="#5FE3CC" fill-rule="nonzero" points="1182.63,694.98 1186.36,696.14 980.18,1355.9 976.45,1354.74 "/>
    <polygon id="166" fill="#5EE3CB" fill-rule="nonzero" points="1185.12,695.75 1188.84,696.92 982.67,1356.68 978.94,1355.52 "/>
    <polygon id="167" fill="#5DE3CB" fill-rule="nonzero" points="1187.6,696.53 1191.33,697.7 985.15,1357.46 981.43,1356.29 "/>
    <polygon id="168" fill="#5CE3CB" fill-rule="nonzero" points="1190.09,697.31 1193.82,698.47 987.64,1358.24 983.91,1357.07 "/>
    <polygon id="169" fill="#5BE3CA" fill-rule="nonzero" points="1192.57,698.08 1196.3,699.25 990.13,1359.01 986.4,1357.85 "/>
    <polygon id="170" fill="#5AE3CA" fill-rule="nonzero" points="1195.06,698.86 1198.79,700.03 992.61,1359.79 988.88,1358.62 "/>
    <polygon id="171" fill="#59E2CA" fill-rule="nonzero" points="1197.54,699.64 1201.27,700.8 995.1,1360.57 991.37,1359.4 "/>
    <polygon id="172" fill="#58E2C9" fill-rule="nonzero" points="1200.03,700.41 1203.76,701.58 997.58,1361.34 993.85,1360.18 "/>
    <polygon id="173" fill="#57E2C9" fill-rule="nonzero" points="1202.52,701.19 1206.24,702.36 1000.07,1362.12 996.34,1360.95 "/>
    <polygon id="174" fill="#56E2C9" fill-rule="nonzero" points="1205,701.97 1208.73,703.13 1002.55,1362.9 998.83,1361.73 "/>
    <polygon id="175" fill="#55E2C8" fill-rule="nonzero" points="1207.49,702.74 1211.21,703.91 1005.04,1363.67 1001.31,1362.51 "/>
    <polygon id="176" fill="#54E1C8" fill-rule="nonzero" points="1209.97,703.52 1213.7,704.69 1007.52,1364.45 1003.8,1363.28 "/>
    <polygon id="177" fill="#53E1C8" fill-rule="nonzero" points="1212.46,704.3 1216.19,705.46 1010.01,1365.23 1006.28,1364.06 "/>
    <polygon id="178" fill="#52E1C7" fill-rule="nonzero" points="1214.94,705.07 1218.67,706.24 1012.5,1366 1008.77,1364.84 "/>
    <polygon id="179" fill="#51E1C7" fill-rule="nonzero" points="1217.43,705.85 1221.16,707.02 1014.98,1366.78 1011.25,1365.61 "/>
    <polygon id="180" fill="#50E1C7" fill-rule="nonzero" points="1219.91,706.63 1223.64,707.79 1017.47,1367.56 1013.74,1366.39 "/>
    <polygon id="181" fill="#4FE1C6" fill-rule="nonzero" points="1222.4,707.41 1226.13,708.57 1019.95,1368.33 1016.22,1367.17 "/>
    <polygon id="182" fill="#4EE0C6" fill-rule="nonzero" points="1224.89,708.18 1228.61,709.35 1022.44,1369.11 1018.71,1367.95 "/>
    <polygon id="183" fill="#4DE0C6" fill-rule="nonzero" points="1227.37,708.96 1231.1,710.12 1024.92,1369.89 1021.2,1368.72 "/>
    <polygon id="184" fill="#4CE0C5" fill-rule="nonzero" points="1229.86,709.74 1233.59,710.9 1027.41,1370.66 1023.68,1369.5 "/>
    <polygon id="185" fill="#4BE0C5" fill-rule="nonzero" points="1232.34,710.51 1236.07,711.68 1029.9,1371.44 1026.17,1370.28 "/>
    <polygon id="186" fill="#4AE0C5" fill-rule="nonzero" points="1234.83,711.29 1238.56,712.45 1032.38,1372.22 1028.65,1371.05 "/>
    <polygon id="187" fill="#49E0C4" fill-rule="nonzero" points="1237.31,712.07 1241.04,713.23 1034.87,1372.99 1031.14,1371.83 "/>
    <polygon id="188" fill="#48DFC4" fill-rule="nonzero" points="1239.8,712.84 1243.53,714.01 1037.35,1373.77 1033.62,1372.61 "/>
    <polygon id="189" fill="#47DFC4" fill-rule="nonzero" points="1242.29,713.62 1246.01,714.78 1039.84,1374.55 1036.11,1373.38 "/>
    <polygon id="190" fill="#46DFC4" fill-rule="nonzero" points="1244.77,714.4 1248.5,715.56 1042.32,1375.32 1038.6,1374.16 "/>
    <polygon id="191" fill="#45DFC3" fill-rule="nonzero" points="1247.26,715.17 1250.99,716.34 1044.81,1376.1 1041.08,1374.94 "/>
    <polygon id="192" fill="#44DFC3" fill-rule="nonzero" points="1249.74,715.95 1253.47,717.11 1047.29,1376.88 1043.57,1375.71 "/>
    <polygon id="193" fill="#43DFC3" fill-rule="nonzero" points="1252.23,716.73 1255.96,717.89 1049.78,1377.65 1046.05,1376.49 "/>
    <polygon id="194" fill="#42DEC2" fill-rule="nonzero" points="1254.71,717.5 1258.44,718.67 1052.27,1378.43 1048.54,1377.27 "/>
    <polygon id="195" fill="#41DEC2" fill-rule="nonzero" points="1257.2,718.28 1260.93,719.44 1054.75,1379.21 1051.02,1378.04 "/>
    <polygon id="196" fill="#40DEC2" fill-rule="nonzero" points="1259.68,719.06 1263.41,720.22 1057.24,1379.98 1053.51,1378.82 "/>
    <polygon id="197" fill="#3FDEC1" fill-rule="nonzero" points="1262.17,719.83 1265.9,721 1059.72,1380.76 1055.99,1379.6 "/>
    <polygon id="198" fill="#3EDEC1" fill-rule="nonzero" points="1264.66,720.61 1268.38,721.78 1062.21,1381.54 1058.48,1380.37 "/>
    <polygon id="199" fill="#3DDEC1" fill-rule="nonzero" points="1267.14,721.39 1270.87,722.55 1064.69,1382.32 1060.97,1381.15 "/>
    <polygon id="200" fill="#3CDDC0" fill-rule="nonzero" points="1269.63,722.16 1273.36,723.33 1067.18,1383.09 1063.45,1381.93 "/>
    <polygon id="201" fill="#3BDDC0" fill-rule="nonzero" points="1272.11,722.94 1275.84,724.11 1069.67,1383.87 1065.94,1382.7 "/>
    <polygon id="202" fill="#3ADDC0" fill-rule="nonzero" points="1274.6,723.72 1278.33,724.88 1072.15,1384.65 1068.42,1383.48 "/>
    <polygon id="203" fill="#39DDBF" fill-rule="nonzero" points="1277.08,724.49 1280.81,725.66 1074.64,1385.42 1070.91,1384.26 "/>
    <polygon id="204" fill="#38DDBF" fill-rule="nonzero" points="1279.57,725.27 1283.3,726.44 1077.12,1386.2 1073.39,1385.03 "/>
    <polygon id="205" fill="#37DCBF" fill-rule="nonzero" points="1282.06,726.05 1285.78,727.21 1079.61,1386.98 1075.88,1385.81 "/>
    <polygon id="206" fill="#36DCBE" fill-rule="nonzero" points="1284.54,726.82 1288.27,727.99 1082.09,1387.75 1078.36,1386.59 "/>
    <polygon id="207" fill="#35DCBE" fill-rule="nonzero" points="1287.03,727.6 1290.76,728.77 1084.58,1388.53 1080.85,1387.36 "/>
    <polygon id="208" fill="#34DCBE" fill-rule="nonzero" points="1289.51,728.38 1293.24,729.54 1087.06,1389.31 1083.34,1388.14 "/>
    <polygon id="209" fill="#33DCBD" fill-rule="nonzero" points="1292,729.15 1295.73,730.32 1089.55,1390.08 1085.82,1388.92 "/>
    <polygon id="210" fill="#32DCBD" fill-rule="nonzero" points="1294.48,729.93 1298.21,731.1 1092.04,1390.86 1088.31,1389.69 "/>
    <polygon id="211" fill="#31DBBD" fill-rule="nonzero" points="1296.97,730.71 1300.7,731.87 1094.52,1391.64 1090.79,1390.47 "/>
    <polygon id="212" fill="#30DBBC" fill-rule="nonzero" points="1299.45,731.48 1303.18,732.65 1097.01,1392.41 1093.28,1391.25 "/>
    <polygon id="213" fill="#2FDBBC" fill-rule="nonzero" points="1301.94,732.26 1305.67,733.43 1099.49,1393.19 1095.76,1392.02 "/>
    <polygon id="214" fill="#2EDBBC" fill-rule="nonzero" points="1304.43,733.04 1308.15,734.2 1101.98,1393.97 1098.25,1392.8 "/>
    <polygon id="215" fill="#2DDBBB" fill-rule="nonzero" points="1306.91,733.81 1310.64,734.98 1104.46,1394.74 1100.73,1393.58 "/>
    <polygon id="216" fill="#2CDBBB" fill-rule="nonzero" points="1309.4,734.59 1313.13,735.76 1106.95,1395.52 1103.22,1394.35 "/>
    <polygon id="217" fill="#2BDABB" fill-rule="nonzero" points="1311.88,735.37 1315.61,736.53 1109.43,1396.3 1105.71,1395.13 "/>
    <polygon id="218" fill="#2ADABB" fill-rule="nonzero" points="1314.37,736.15 1318.1,737.31 1111.92,1397.07 1108.19,1395.91 "/>
    <polygon id="219" fill="#29DABA" fill-rule="nonzero" points="1316.85,736.92 1320.58,738.09 1114.41,1397.85 1110.68,1396.68 "/>
    <polygon id="220" fill="#28DABA" fill-rule="nonzero" points="1319.34,737.7 1323.07,738.86 1116.89,1398.63 1113.16,1397.46 "/>
    <polygon id="221" fill="#27DABA" fill-rule="nonzero" points="1321.83,738.48 1325.55,739.64 1119.38,1399.4 1115.65,1398.24 "/>
    <polygon id="222" fill="#26DAB9" fill-rule="nonzero" points="1324.31,739.25 1328.04,740.42 1121.86,1400.18 1118.13,1399.02 "/>
    <polygon id="223" fill="#25D9B9" fill-rule="nonzero" points="1326.8,740.03 1330.52,741.19 1124.35,1400.96 1120.62,1399.79 "/>
    <polygon id="224" fill="#24D9B9" fill-rule="nonzero" points="1329.28,740.81 1333.01,741.97 1126.83,1401.73 1123.11,1400.57 "/>
    <polygon id="225" fill="#23D9B8" fill-rule="nonzero" points="1331.77,741.58 1335.5,742.75 1129.32,1402.51 1125.59,1401.35 "/>
    <polygon id="226" fill="#22D9B8" fill-rule="nonzero" points="1334.25,742.36 1337.98,743.52 1131.81,1403.29 1128.08,1402.12 "/>
    <polygon id="227" fill="#21D9B8" fill-rule="nonzero" points="1336.74,743.14 1340.47,744.3 1134.29,1404.06 1130.56,1402.9 "/>
    <polygon id="228" fill="#20D9B7" fill-rule="nonzero" points="1339.22,743.91 1342.95,745.08 1136.78,1404.84 1133.05,1403.68 "/>
    <polygon id="229" fill="#1FD8B7" fill-rule="nonzero" points="1341.71,744.69 1345.44,745.85 1139.26,1405.62 1135.53,1404.45 "/>
    <polygon id="230" fill="#1ED8B7" fill-rule="nonzero" points="1344.2,745.47 1347.92,746.63 1141.75,1406.39 1138.02,1405.23 "/>
    <polygon id="231" fill="#1DD8B6" fill-rule="nonzero" points="1346.68,746.24 1350.41,747.41 1144.23,1407.17 1140.51,1406.01 "/>
    <polygon id="232" fill="#1CD8B6" fill-rule="nonzero" points="1349.17,747.02 1352.9,748.18 1146.72,1407.95 1142.99,1406.78 "/>
    <polygon id="233" fill="#1BD8B6" fill-rule="nonzero" points="1351.65,747.8 1355.38,748.96 1149.2,1408.72 1145.48,1407.56 "/>
    <polygon id="234" fill="#1AD7B5" fill-rule="nonzero" points="1354.14,748.57 1357.87,749.74 1151.69,1409.5 1147.96,1408.34 "/>
    <polygon id="235" fill="#19D7B5" fill-rule="nonzero" points="1356.62,749.35 1360.35,750.51 1154.18,1410.28 1150.45,1409.11 "/>
    <polygon id="236" fill="#18D7B5" fill-rule="nonzero" points="1359.11,750.13 1362.84,751.29 1156.66,1411.05 1152.93,1409.89 "/>
    <polygon id="237" fill="#17D7B4" fill-rule="nonzero" points="1361.59,750.9 1365.32,752.07 1159.15,1411.83 1155.42,1410.67 "/>
    <polygon id="238" fill="#16D7B4" fill-rule="nonzero" points="1364.08,751.68 1367.81,752.85 1161.63,1412.61 1157.9,1411.44 "/>
    <polygon id="239" fill="#15D7B4" fill-rule="nonzero" points="1366.57,752.46 1370.29,753.62 1164.12,1413.39 1160.39,1412.22 "/>
    <polygon id="240" fill="#14D6B3" fill-rule="nonzero" points="1369.05,753.23 1372.78,754.4 1166.6,1414.16 1162.88,1413 "/>
    <polygon id="241" fill="#13D6B3" fill-rule="nonzero" points="1371.54,754.01 1375.27,755.18 1169.09,1414.94 1165.36,1413.77 "/>
    <polygon id="242" fill="#12D6B3" fill-rule="nonzero" points="1374.02,754.79 1377.75,755.95 1171.58,1415.72 1167.85,1414.55 "/>
    <polygon id="243" fill="#11D6B2" fill-rule="nonzero" points="1376.51,755.56 1380.24,756.73 1174.06,1416.49 1170.33,1415.33 "/>
    <polygon id="244" fill="#10D6B2" fill-rule="nonzero" points="1378.99,756.34 1382.72,757.51 1176.55,1417.27 1172.82,1416.1 "/>
    <polygon id="245" fill="#0FD6B2" fill-rule="nonzero" points="1381.48,757.12 1385.21,758.28 1179.03,1418.05 1175.3,1416.88 "/>
    <polygon id="246" fill="#0ED5B2" fill-rule="nonzero" points="1383.97,757.89 1387.69,759.06 1181.52,1418.82 1177.79,1417.66 "/>
    <polygon id="247" fill="#0DD5B1" fill-rule="nonzero" points="1386.45,758.67 1390.18,759.84 1184,1419.6 1180.28,1418.43 "/>
    <polygon id="248" fill="#0CD5B1" fill-rule="nonzero" points="1388.94,759.45 1392.67,760.61 1186.49,1420.38 1182.76,1419.21 "/>
    <polygon id="249" fill="#0BD5B1" fill-rule="nonzero" points="1391.42,760.22 1395.15,761.39 1188.98,1421.15 1185.25,1419.99 "/>
    <polygon id="250" fill="#0AD5B0" fill-rule="nonzero" points="1393.91,761 1397.64,762.17 1191.46,1421.93 1187.73,1420.76 "/>
    <polygon id="251" fill="#09D5B0" fill-rule="nonzero" points="1396.39,761.78 1400.12,762.94 1193.95,1422.71 1190.22,1421.54 "/>
    <polygon id="252" fill="#08D4B0" fill-rule="nonzero" points="1398.88,762.56 1402.61,763.72 1196.43,1423.48 1192.7,1422.32 "/>
    <polygon id="253" fill="#07D4AF" fill-rule="nonzero" points="1401.36,763.33 1405.09,764.5 1198.92,1424.26 1195.19,1423.1 "/>
    <polygon id="254" fill="#06D4AF" fill-rule="nonzero" points="1403.85,764.11 1407.58,765.27 1201.4,1425.04 1197.67,1423.87 "/>
    <polygon id="255" fill="#05D4AF" fill-rule="nonzero" points="1406.34,764.88 1410.06,766.05 1203.89,1425.81 1200.16,1424.65 "/>
    <polygon id="256" fill="#04D4AE" fill-rule="nonzero" points="1408.82,765.66 1412.55,766.83 1206.37,1426.59 1202.65,1425.42 "/>
    <polygon id="257" fill="#03D4AE" fill-rule="nonzero" points="1411.31,766.44 1415.04,767.6 1208.86,1427.37 1205.13,1426.2 "/>
    <polygon id="258" fill="#02D3AE" fill-rule="nonzero" points="1413.79,767.22 1417.52,768.38 1211.35,1428.14 1207.62,1426.98 "/>
    <polygon id="259" fill="#01D3AD" fill-rule="nonzero" points="1416.28,767.99 1420.01,769.16 1213.83,1428.92 1210.1,1427.76 "/>
    <polygon id="260" fill="#00D3AD" fill-rule="nonzero" points="1418.76,768.77 1422.49,769.93 1216.32,1429.7 1212.59,1428.53 "/>
    <polygon id="261" fill="#01D3AD" fill-rule="nonzero" points="1421.25,769.55 1424.98,770.71 1218.8,1430.47 1215.07,1429.31 "/>
    <polygon id="262" fill="#02D3AE" fill-rule="nonzero" points="1423.74,770.32 1427.46,771.49 1221.29,1431.25 1217.56,1430.09 "/>
    <polygon id="263" fill="#03D4AE" fill-rule="nonzero" points="1426.22,771.1 1429.95,772.26 1223.77,1432.03 1220.05,1430.86 "/>
    <polygon id="264" fill="#04D4AE" fill-rule="nonzero" points="1428.71,771.88 1432.44,773.04 1226.26,1432.8 1222.53,1431.64 "/>
    <polygon id="265" fill="#05D4AF" fill-rule="nonzero" points="1431.19,772.65 1434.92,773.82 1228.75,1433.58 1225.02,1432.42 "/>
    <polygon id="266" fill="#06D4AF" fill-rule="nonzero" points="1433.68,773.43 1432.97,773.21 1226.8,1432.97 1227.5,1433.19 "/>
   </g>
  </g>
  <polygon fill="white" points="1053.01,887.03 1005.53,1008.43 947.32,882.44 926.25,882.44 868.05,1008.43 820.56,887.03 747.03,887.03 851.2,1144.38 872.26,1144.38 936.98,1012.26 1001.31,1144.38 1022.38,1144.38 1126.54,887.03 "/>
  <polygon fill="#00D3AD" fill-rule="nonzero" points="1065.57,1038.68 1170.4,1038.68 1170.4,1139.78 1236.27,1139.78 1236.27,887.03 1170.4,887.03 1170.4,979.33 1089.6,979.33 1126.95,887.03 1053.43,887.03 1053.41,887.07 974.42,1088.31 1001.73,1144.38 1022.79,1144.38 "/>
 </g>
</svg>
