<?xml version="1.0" encoding="UTF-8"?>
<!DOCTYPE svg PUBLIC "-//W3C//DTD SVG 1.1//EN" "http://www.w3.org/Graphics/SVG/1.1/DTD/svg11.dtd">
<!-- Creator: CorelDRAW 2020 (64-Bit) -->
<svg xmlns="http://www.w3.org/2000/svg" xml:space="preserve" width="24.0001in" height="8.00004in" version="1.1" shape-rendering="geometricPrecision" text-rendering="geometricPrecision" image-rendering="optimizeQuality" fill-rule="evenodd" clip-rule="evenodd"
viewBox="0 0 35999.87 11999.97"
 xmlns:xlink="http://www.w3.org/1999/xlink"
 xmlns:xodm="http://www.corel.com/coreldraw/odm/2003">
 <g id="Layer_x0020_1">
  <metadata id="CorelCorpID_0Corel-Layer"/>
  <rect fill="white" x="0" y="0.01" width="35999.87" height="11999.97"/>
  <path fill="#00ADB4" fill-rule="nonzero" d="M12177.22 3359.57l-345.28 0 -71.48 162.42 -95.6 0 294.23 -649.75 91.89 0 295.18 649.75 -97.46 0 -71.48 -162.42zm-32.48 -74.27l-140.17 -318.38 -140.15 318.38 280.32 0zm1383.61 -100.25c37.75,10.54 67.46,29.55 89.13,57.09 21.64,27.54 32.48,62.34 32.48,104.41 0,56.31 -21.19,99.64 -63.59,129.97 -42.38,30.31 -104.1,45.47 -185.17,45.47l-310.01 0 0 -649.75 291.45 0c74.27,0 131.64,14.86 172.18,44.55 40.54,29.72 60.8,70.87 60.8,123.45 0,34.04 -7.89,63.45 -23.67,88.19 -15.78,24.76 -36.97,43.63 -63.59,56.62zm-344.36 -237.62l0 207.93 190.3 0c47.65,0 84.31,-8.81 109.98,-26.46 25.68,-17.65 38.53,-43.46 38.53,-77.51 0,-34.04 -12.85,-59.88 -38.53,-77.5 -25.68,-17.65 -62.34,-26.46 -109.98,-26.46l-190.3 0zm213.49 499.37c52.61,0 92.2,-8.67 118.82,-25.98 26.6,-17.34 39.9,-44.55 39.9,-81.68 0,-72.4 -52.91,-108.59 -158.72,-108.59l-213.49 0 0 216.26 213.49 0zm1603.63 -574.56l0 649.75 -92.84 0 0 -289.6 -373.13 0 0 289.6 -92.81 0 0 -649.75 92.81 0 0 279.41 373.13 0 0 -279.41 92.84 0zm2032.1 0l-284.98 649.75 -91.89 0 -285.87 -649.75 100.23 0 233.93 533.72 235.75 -533.72 92.84 0zm731.1 0l92.81 0 0 649.75 -92.81 0 0 -649.75zm1370.62 649.75l-140.15 -199.56c-17.31,1.23 -30.94,1.84 -40.84,1.84l-160.59 0 0 197.72 -92.81 0 0 -649.75 253.4 0c84.16,0 150.38,20.13 198.64,60.33 48.26,40.23 72.4,95.62 72.4,166.16 0,50.13 -12.38,92.81 -37.13,128.1 -24.76,35.27 -60.02,60.94 -105.8,77.03l154.09 218.12 -101.2 0zm-183.78 -276.61c58.79,0 103.65,-12.68 134.6,-38.05 30.94,-25.37 46.42,-61.56 46.42,-108.59 0,-47.04 -15.47,-83.08 -46.42,-108.15 -30.94,-25.06 -75.8,-37.58 -134.6,-37.58l-157.8 0 0 292.37 157.8 0zm1192.43 -292.37l-222.78 0 0 -80.76 537.42 0 0 80.76 -222.75 0 0 568.99 -91.89 0 0 -568.99zm1321.44 576.4c-86.62,0 -154.09,-24.73 -202.35,-74.24 -48.26,-49.51 -72.4,-120.66 -72.4,-213.49l0 -369.43 92.83 0 0 365.72c0,139.23 60.94,208.84 182.83,208.84 59.41,0 104.9,-17.17 136.46,-51.52 31.56,-34.35 47.34,-86.79 47.34,-157.32l0 -365.72 90.02 0 0 369.43c0,93.45 -24.12,164.76 -72.4,213.94 -48.26,49.2 -115.7,73.79 -202.35,73.79zm1513.58 -169.84l-345.29 0 -71.48 162.42 -95.6 0 294.23 -649.75 91.89 0 295.19 649.75 -97.46 0 -71.48 -162.42zm-32.48 -74.27l-140.18 -318.38 -140.15 318.38 280.33 0zm946.43 -413.06l92.81 0 0 568.99 351.8 0 0 80.76 -444.61 0 0 -649.75z"/>
  <g id="_3025354975616">
   <path fill="#00ADB4" fill-rule="nonzero" d="M10820.23 4531.29l-1569.2 0 0 525.68 945.44 0 0 1325.97c0,235.39 -125.53,360.92 -329.53,360.92 -168.68,0 -388.37,-102 -580.6,-306l-286.37 439.37c231.45,270.71 529.61,427.63 898.37,427.63 568.82,0 921.89,-329.55 921.89,-906.24l0 -1867.34zm3689.35 0l0 2746.1 1306.34 0c639.44,0 1035.68,-290.3 1035.68,-761.06 0,-360.92 -219.68,-627.68 -572.76,-694.37 294.23,-74.55 474.68,-306 474.68,-604.15 0,-423.69 -376.6,-686.53 -980.73,-686.53l-1263.21 0zm619.82 506.08l612 0c231.45,0 376.6,105.93 376.6,294.22 0,192.23 -145.16,306 -376.6,306l-612 0 0 -600.21zm0 1078.82l612 0c294.21,0 470.76,121.61 470.76,321.68 0,211.84 -176.55,333.45 -470.76,333.45l-612 0 0 -655.13zm5075.27 -1070.98l3.92 -513.92 -1973.26 0 0 2746.1 619.81 0 0 -1039.61 1239.68 0 0 -517.82 -1239.68 0 0 -674.77 1349.52 0zm2038.86 1698.66l215.76 533.53 662.98 0 -1172.97 -2746.1 -639.44 0 -1192.58 2746.1 639.44 0 215.77 -533.53 1271.05 0zm-200.08 -498.21l-866.97 0 435.45 -1067.07 431.52 1067.07zm1972.15 1031.74l0 -2746.1 -619.81 0 0 2746.1 619.81 0zm2282.09 0l702.21 0 -584.53 -906.21c333.45,-156.92 513.9,-462.92 513.9,-886.6 0,-608.06 -407.98,-953.29 -1125.9,-953.29l-1192.58 0 0 2746.1 619.82 0 0 -784.61 572.76 0 58.84 0 435.47 784.61zm-1067.07 -1302.45l0 -929.74 572.76 0c341.31,0 537.45,153 537.45,459 0,313.82 -196.13,470.74 -537.45,470.74l-572.76 0z"/>
   <path fill="none" fill-rule="nonzero" d="M12639.41 4511.68c-839.52,0 -1475.05,592.37 -1475.05,1392.66 0,796.36 635.52,1400.52 1475.05,1400.52 839.53,0 1475.05,-608.08 1475.05,-1400.52 0,-796.36 -635.52,-1392.66 -1475.05,-1392.66zm7.84 541.37c459,0 831.69,368.77 831.69,851.29 0,482.52 -372.68,859.13 -831.69,859.13 -459,0 -847.36,-376.6 -847.36,-859.13 0,-482.52 384.45,-851.29 847.36,-851.29z"/>
  </g>
  <path fill="#C8D3E7" d="M12620.71 5116.52c248.46,0 470.03,118.19 611.65,301.17l-11.86 -39.32 -25.77 -74.94 -29.26 -75.87 -32.53 -76.48 -35.83 -76.88 -38.94 -77.31 -41.91 -77.34 -44.82 -77.31 -47.58 -77.24 -50.27 -76.79 -52.84 -76.46 -55.25 -75.71 -18.87 -24.51c-41.74,-3.81 -84.01,-5.83 -126.68,-5.83 -763.29,0 -1385.83,622.54 -1385.83,1385.91 0,763.26 622.54,1385.8 1385.83,1385.8 731.28,0 1333.28,-571.45 1382.49,-1290.59 -398.86,367 -935.85,740.14 -1475.91,670.16 -381.71,-46.57 -679.02,-373.3 -679.02,-767.27 0,-425.9 347.31,-773.18 773.17,-773.18z"/>
  <path fill="#C8D3E7" d="M12799.44 4412.53c692.69,83.56 1241.18,646.19 1303.24,1344.98l-206.33 187.81 -37.74 33.69 -38.44 33.41 -39.11 33.15 -39.73 32.83 -40.38 32.52 -40.94 32.03 -41.47 31.32 -41.98 30.74 -42.53 30.07 -43.07 29.1 -43.34 28.33 -43.76 27.35 -44.25 26.26 -44.34 25.06 -44.86 23.92 -45.01 22.69 -45.29 21.21 -30.74 13.38c482.05,-450.53 218.82,-1311.33 -349.96,-2039.84z"/>
  <path fill="#212832" d="M12620.71 5116.51c248.46,0 470.03,118.19 611.65,301.17l-11.86 -39.33 -25.77 -74.94 -29.26 -75.86 -32.53 -76.45 -35.83 -76.92 -38.94 -77.27 -41.91 -77.34 -44.82 -77.34 -47.58 -77.19 -50.27 -76.85 -52.84 -76.45 -55.25 -75.71 -18.87 -24.5c-41.74,-3.77 -84.01,-5.81 -126.68,-5.81 -763.29,0 -1385.83,622.54 -1385.83,1385.93 0,763.22 622.54,1385.75 1385.83,1385.75 731.28,0 1333.28,-571.41 1382.49,-1290.59 -398.86,367.04 -935.85,740.19 -1475.91,670.19 -381.71,-46.58 -679.02,-373.34 -679.02,-767.27 0,-425.91 347.31,-773.22 773.17,-773.22z"/>
  <path fill="#212832" d="M12799.44 4412.51c692.69,83.56 1241.18,646.18 1303.24,1344.98l-206.33 187.84 -37.74 33.66 -38.44 33.42 -39.11 33.15 -39.73 32.88 -40.38 32.48 -40.94 32.06 -41.47 31.28 -41.98 30.79 -42.53 30.07 -43.07 29.11 -43.34 28.28 -43.76 27.35 -44.25 26.27 -44.34 25.09 -44.86 23.93 -45.01 22.64 -45.29 21.19 -30.74 13.43c482.05,-450.54 218.82,-1311.33 -349.96,-2039.89z"/>
  <path fill="#212832" d="M12360.46 8239.75c0,-170.06 137.89,-307.95 307.95,-307.95 170.06,0 307.95,137.89 307.95,307.95l0 506.73c0,170.07 -137.89,307.95 -307.95,307.95 -170.06,0 -307.95,-137.89 -307.95,-307.95l0 -506.73z"/>
  <path fill="#212832" fill-rule="nonzero" d="M13783.75 8291.36c-51.8,0 -77.72,28.25 -77.72,84.73l0 31.51 144.61 0 0 98.53 -140.69 0 0 423.59 -122.95 0 0 -423.59 -86.57 0 0 -98.53 86.57 0 0 -33.47c0,-56.48 16.39,-100.98 49.18,-133.49 32.79,-32.5 79.04,-48.78 138.71,-48.78 47.24,0 84.28,9.54 111.16,28.58l-34.42 92.6c-21,-14.46 -43.61,-21.68 -67.89,-21.68zm191.27 112.32l123 0 0 526.04 -123 0 0 -526.04zm61.98 -86.69c-22.3,0 -41.01,-7.06 -56.08,-21.19 -15.09,-14.13 -22.63,-31.68 -22.63,-52.7 0,-21.02 7.54,-38.57 22.63,-52.7 15.07,-14.13 33.78,-21.19 56.08,-21.19 22.3,0 41.01,6.73 56.08,20.2 15.07,13.46 22.63,30.38 22.63,50.74 0,21.66 -7.39,39.9 -22.13,54.66 -14.76,14.79 -33.61,22.18 -56.57,22.18zm483.45 80.76c66.26,0 119.39,19.39 159.4,58.13 39.99,38.74 59.98,96.21 59.98,172.39l0 301.44 -122.95 0 0 -285.68c0,-45.97 -10.82,-80.62 -32.48,-103.94 -21.64,-23.31 -52.46,-34.96 -92.48,-34.96 -45.24,0 -80.98,13.63 -107.22,40.89 -26.24,27.24 -39.35,66.5 -39.35,117.71l0 265.98 -122.98 0 0 -526.04 117.05 0 0 67.96c20.34,-24.31 45.92,-42.68 76.75,-55.16 30.85,-12.5 65.6,-18.73 104.29,-18.73zm858.28 -198.99l0 730.96 -118.04 0 0 -67.98c-20.34,24.97 -45.42,43.68 -75.26,56.17 -29.83,12.47 -62.81,18.71 -98.88,18.71 -50.5,0 -95.93,-11.17 -136.26,-33.5 -40.35,-22.32 -72,-54.02 -94.96,-95.05 -22.96,-41.05 -34.42,-88.18 -34.42,-141.38 0,-53.2 11.46,-100.16 34.42,-140.86 22.96,-40.72 54.61,-72.24 94.96,-94.58 40.33,-22.32 85.75,-33.5 136.26,-33.5 34.75,0 66.57,5.93 95.43,17.74 28.87,11.81 53.46,29.55 73.77,53.2l0 -269.93 122.98 0zm-277.42 632.45c29.5,0 56.05,-6.73 79.68,-20.2 23.62,-13.46 42.31,-32.67 56.08,-57.64 13.77,-24.94 20.67,-53.86 20.67,-86.69 0,-32.83 -6.9,-61.72 -20.67,-86.69 -13.77,-24.94 -32.46,-44.15 -56.08,-57.61 -23.62,-13.46 -50.17,-20.2 -79.68,-20.2 -29.53,0 -56.08,6.73 -79.7,20.2 -23.62,13.46 -42.31,32.67 -56.08,57.61 -13.77,24.97 -20.67,53.86 -20.67,86.69 0,32.83 6.9,61.75 20.67,86.69 13.78,24.97 32.46,44.17 56.08,57.64 23.62,13.46 50.17,20.2 79.7,20.2zm2062.86 105.4c-54.45,0 -103.3,-11.5 -146.6,-34.49 -43.28,-22.98 -77.08,-54.99 -101.32,-96.05 -24.28,-41.03 -36.4,-87.5 -36.4,-139.39 0,-51.87 12.12,-98.17 36.4,-138.9 24.24,-40.72 57.88,-72.57 100.82,-95.55 42.97,-22.98 92.01,-34.49 147.09,-34.49 51.8,0 97.25,10.51 136.27,31.54 39,21.02 68.36,51.21 88.04,90.64l-94.44 55.16c-15.09,-24.31 -33.94,-42.52 -56.57,-54.68 -22.63,-12.14 -47.39,-18.21 -74.29,-18.21 -45.9,0 -83.93,14.93 -114.12,44.81 -30.17,29.88 -45.26,69.78 -45.26,119.69 0,49.91 14.93,89.81 44.76,119.69 29.86,29.88 68.05,44.83 114.61,44.83 26.91,0 51.66,-6.07 74.29,-18.24 22.63,-12.14 41.48,-30.38 56.57,-54.66l94.44 55.16c-20.34,39.4 -50.03,69.78 -89.03,91.13 -39.02,21.33 -84.14,32.01 -135.28,32.01zm521.81 0c-53.13,0 -100.98,-11.5 -143.62,-34.49 -42.61,-22.98 -75.92,-54.99 -99.85,-96.05 -23.95,-41.03 -35.91,-87.5 -35.91,-139.39 0,-51.87 11.95,-98.17 35.91,-138.9 23.93,-40.72 57.24,-72.57 99.85,-95.55 42.64,-22.98 90.5,-34.49 143.62,-34.49 53.79,0 102.02,11.5 144.64,34.49 42.64,22.98 75.92,54.83 99.87,95.55 23.93,40.72 35.91,87.02 35.91,138.9 0,51.9 -11.98,98.36 -35.91,139.39 -23.95,41.05 -57.24,73.06 -99.87,96.05 -42.61,22.98 -90.85,34.49 -144.64,34.49zm0 -105.4c45.28,0 82.65,-15.12 112.18,-45.33 29.53,-30.21 44.27,-69.94 44.27,-119.2 0,-49.25 -14.74,-88.98 -44.27,-119.2 -29.53,-30.21 -66.9,-45.31 -112.18,-45.31 -45.24,0 -82.46,15.09 -111.64,45.31 -29.2,30.21 -43.79,69.94 -43.79,119.2 0,49.25 14.6,88.98 43.79,119.2 29.17,30.21 66.4,45.33 111.64,45.33zm659.57 -433.46c66.24,0 119.39,19.39 159.38,58.13 39.99,38.74 60,96.21 60,172.39l0 301.44 -122.95 0 0 -285.68c0,-45.97 -10.84,-80.62 -32.48,-103.94 -21.64,-23.31 -52.49,-34.96 -92.48,-34.96 -45.26,0 -81,13.63 -107.22,40.89 -26.24,27.24 -39.35,66.5 -39.35,117.71l0 265.98 -123 0 0 -526.04 117.07 0 0 67.96c20.34,-24.31 45.92,-42.68 76.75,-55.16 30.83,-12.5 65.57,-18.73 104.29,-18.73zm636.95 0c66.24,0 119.36,19.39 159.38,58.13 39.99,38.74 60,96.21 60,172.39l0 301.44 -122.95 0 0 -285.68c0,-45.97 -10.84,-80.62 -32.48,-103.94 -21.64,-23.31 -52.49,-34.96 -92.48,-34.96 -45.27,0 -81.01,13.63 -107.23,40.89 -26.24,27.24 -39.35,66.5 -39.35,117.71l0 265.98 -123 0 0 -526.04 117.07 0 0 67.96c20.34,-24.31 45.9,-42.68 76.75,-55.16 30.83,-12.5 65.58,-18.73 104.3,-18.73zm837.63 271.89c0,8.55 -0.66,20.69 -1.98,36.45l-412.2 0c7.18,38.76 26.05,69.45 56.57,92.13 30.47,22.65 68.36,33.97 113.6,33.97 57.73,0 105.28,-19.04 142.68,-57.12l65.91 75.85c-23.62,28.23 -53.46,49.58 -89.53,64.02 -36.07,14.46 -76.75,21.68 -121.98,21.68 -57.71,0 -108.54,-11.5 -152.5,-34.49 -43.96,-22.98 -77.88,-54.99 -101.81,-96.05 -23.95,-41.03 -35.91,-87.5 -35.91,-139.39 0,-51.21 11.62,-97.35 34.91,-138.4 23.27,-41.05 55.58,-73.06 96.9,-96.05 41.31,-22.98 87.87,-34.49 139.72,-34.49 51.14,0 96.87,11.34 137.22,33.99 40.35,22.65 71.83,54.52 94.46,95.55 22.63,41.05 33.94,88.51 33.94,142.35zm-265.63 -173.36c-39.35,0 -72.64,11.65 -99.87,34.96 -27.21,23.31 -43.79,54.35 -49.68,93.09l298.08 0c-5.24,-38.08 -21.31,-68.95 -48.21,-92.6 -26.86,-23.65 -60.33,-35.46 -100.32,-35.46zm587.71 440.34c-54.45,0 -103.3,-11.5 -146.6,-34.49 -43.28,-22.98 -77.05,-54.99 -101.31,-96.05 -24.28,-41.03 -36.4,-87.5 -36.4,-139.39 0,-51.87 12.12,-98.17 36.4,-138.9 24.26,-40.72 57.87,-72.57 100.82,-95.55 42.97,-22.98 92.01,-34.49 147.09,-34.49 51.8,0 97.25,10.51 136.27,31.54 39.02,21.02 68.36,51.21 88.04,90.64l-94.44 55.16c-15.09,-24.31 -33.94,-42.52 -56.57,-54.68 -22.63,-12.14 -47.39,-18.21 -74.29,-18.21 -45.9,0 -83.93,14.93 -114.09,44.81 -30.19,29.88 -45.28,69.78 -45.28,119.69 0,49.91 14.93,89.81 44.79,119.69 29.83,29.88 68.03,44.83 114.59,44.83 26.91,0 51.66,-6.07 74.29,-18.24 22.63,-12.14 41.48,-30.38 56.57,-54.66l94.44 55.16c-20.34,39.4 -50.01,69.78 -89.03,91.13 -39.02,21.33 -84.14,32.01 -135.28,32.01zm616.25 -35.46c-14.41,11.81 -31.96,20.67 -52.63,26.6 -20.67,5.91 -42.45,8.86 -65.41,8.86 -57.73,0 -102.33,-15.12 -133.82,-45.31 -31.46,-30.21 -47.2,-74.22 -47.2,-132.02l0 -253.16 -86.57 0 0 -98.53 86.57 0 0 -120.16 122.95 0 0 120.16 140.69 0 0 98.53 -140.69 0 0 250.2c0,25.63 6.26,45.17 18.71,58.63 12.45,13.46 30.5,20.2 54.09,20.2 27.57,0 50.5,-7.23 68.88,-21.68l34.42 87.68zm2005.81 -497.48l0 446.24c0,185.2 -94.44,277.8 -283.32,277.8 -50.53,0 -98.41,-6.4 -143.64,-19.2 -45.26,-12.8 -82.65,-31.35 -112.16,-55.65l55.09 -92.6c22.94,19.04 51.99,34.3 87.07,45.8 35.08,11.5 70.68,17.24 106.75,17.24 57.71,0 100.02,-13.13 126.92,-39.4 26.88,-26.27 40.32,-66.33 40.32,-120.19l0 -27.59c-20.98,22.98 -46.58,40.39 -76.72,52.2 -30.17,11.83 -63.31,17.74 -99.38,17.74 -49.84,0 -94.94,-10.68 -135.28,-32.01 -40.32,-21.35 -72.14,-51.4 -95.43,-90.14 -23.29,-38.74 -34.91,-83.08 -34.91,-132.99 0,-49.91 11.62,-94.09 34.91,-132.5 23.29,-38.41 55.11,-68.13 95.43,-89.15 40.35,-21.02 85.44,-31.54 135.28,-31.54 38.03,0 72.64,6.24 103.79,18.73 31.16,12.47 57.24,31.51 78.21,57.14l0 -69.94 117.07 0zm-280.39 397.98c46.58,0 84.78,-13.96 114.61,-41.88 29.86,-27.9 44.79,-64.18 44.79,-108.85 0,-44.01 -14.93,-79.79 -44.79,-107.39 -29.83,-27.57 -68.03,-41.36 -114.61,-41.36 -47.22,0 -85.75,13.8 -115.58,41.36 -29.86,27.59 -44.79,63.38 -44.79,107.39 0,44.67 14.93,80.95 44.79,108.85 29.83,27.92 68.36,41.88 115.58,41.88zm898.65 -132.02c0,8.55 -0.66,20.69 -1.98,36.45l-412.2 0c7.18,38.76 26.05,69.45 56.57,92.13 30.47,22.65 68.36,33.97 113.6,33.97 57.73,0 105.28,-19.04 142.68,-57.12l65.91 75.85c-23.62,28.23 -53.46,49.58 -89.53,64.02 -36.07,14.46 -76.75,21.68 -121.98,21.68 -57.71,0 -108.54,-11.5 -152.5,-34.49 -43.96,-22.98 -77.88,-54.99 -101.82,-96.05 -23.95,-41.03 -35.91,-87.5 -35.91,-139.39 0,-51.21 11.62,-97.35 34.91,-138.4 23.27,-41.05 55.59,-73.06 96.9,-96.05 41.31,-22.98 87.87,-34.49 139.72,-34.49 51.14,0 96.87,11.34 137.22,33.99 40.35,22.65 71.83,54.52 94.46,95.55 22.63,41.05 33.94,88.51 33.94,142.35zm-265.63 -173.36c-39.35,0 -72.64,11.65 -99.87,34.96 -27.21,23.31 -43.77,54.35 -49.68,93.09l298.08 0c-5.24,-38.08 -21.31,-68.95 -48.21,-92.6 -26.86,-23.65 -60.33,-35.46 -100.32,-35.46zm662.48 404.88c-14.41,11.81 -31.96,20.67 -52.63,26.6 -20.67,5.91 -42.47,8.86 -65.41,8.86 -57.73,0 -102.33,-15.12 -133.82,-45.31 -31.46,-30.21 -47.2,-74.22 -47.2,-132.02l0 -253.16 -86.6 0 0 -98.53 86.6 0 0 -120.16 122.95 0 0 120.16 140.69 0 0 98.53 -140.69 0 0 250.2c0,25.63 6.26,45.17 18.71,58.63 12.45,13.46 30.5,20.2 54.09,20.2 27.54,0 50.5,-7.23 68.88,-21.68l34.42 87.68z"/>
  <polygon fill="#212832" points="16415.37,8649.47 16201.52,8526.01 15987.66,8402.53 15987.66,8649.47 15987.66,8896.4 16201.52,8772.93 "/>
  <polygon fill="#212832" points="21761.87,8649.47 21548.02,8526.01 21334.16,8402.53 21334.16,8649.47 21334.16,8896.4 21548.02,8772.93 "/>
 </g>
</svg>
