<?xml version="1.0" encoding="UTF-8"?>
<!DOCTYPE svg PUBLIC "-//W3C//DTD SVG 1.1//EN" "http://www.w3.org/Graphics/SVG/1.1/DTD/svg11.dtd">
<!-- Creator: CorelDRAW 2020 (64-Bit) -->
<svg xmlns="http://www.w3.org/2000/svg" xml:space="preserve" width="8.00002in" height="8.00007in" version="1.1" shape-rendering="geometricPrecision" text-rendering="geometricPrecision" image-rendering="optimizeQuality" fill-rule="evenodd" clip-rule="evenodd"
viewBox="0 0 2000.01 2000.02"
 xmlns:xlink="http://www.w3.org/1999/xlink"
 xmlns:xodm="http://www.corel.com/coreldraw/odm/2003">
 <g id="Layer_x0020_1">
  <metadata id="CorelCorpID_0Corel-Layer"/>
  <rect fill="white" x="0" y="0" width="2000.01" height="2000.02"/>
  <g id="_3025206306720">
   <circle fill="#22334D" fill-rule="nonzero" cx="1000" cy="1000.01" r="333.32"/>
   <path fill="white" d="M974.66 901.18c-9.58,7.33 -16.88,16.14 -21.9,26.36l34.83 -34.83c-4.48,2.49 -8.8,5.31 -12.93,8.47zm-25.75 35.79c-1.75,5.28 -2.98,10.88 -3.69,16.79l72.61 -72.61c-6.63,1.54 -13.12,3.62 -19.36,6.26l-49.56 49.56zm-4.23 22.92c-0.12,2.07 -0.18,4.18 -0.18,6.33 0,2.29 0.07,4.54 0.21,6.74l94.97 -94.97c-4.99,0.31 -9.95,0.88 -14.84,1.74l-80.16 80.16zm0.5 18.18c0.46,3.83 1.15,7.5 2.07,11.04l111.05 -111.05c-4.27,-0.29 -8.54,-0.39 -12.8,-0.31l-100.32 100.32zm3.33 15.36c1.05,3.24 2.32,6.34 3.79,9.32l122.62 -122.62c-3.81,-0.69 -7.64,-1.23 -11.48,-1.63l-114.93 114.93zm5.73 12.96c1.57,2.73 3.32,5.35 5.27,7.84l130.57 -130.57c-3.46,-1 -6.96,-1.87 -10.49,-2.62l-125.34 125.34zm7.8 10.89c0.64,0.73 1.3,1.45 1.97,2.15 1.43,1.49 2.94,2.97 4.54,4.44l52.18 -52.18c-0.36,-1.38 -0.55,-2.81 -0.55,-4.29 0,-12.22 8.58,-19.18 25.31,-20.48l58.53 -58.53c-3.18,-1.25 -6.4,-2.4 -9.67,-3.44l-132.32 132.32zm9.48 9.21c2.29,1.95 4.73,3.88 7.33,5.77l50.1 -50.1c-0.6,-0.39 -1.16,-0.77 -1.67,-1.16 -2.1,-1.57 -3.73,-3.38 -4.9,-5.37l-50.86 50.86zm79.78 -79.78l0.22 -0c4.09,0 8.12,0.27 12.08,0.81l53.32 -53.32c-2.92,-1.49 -5.91,-2.88 -8.94,-4.17l-56.68 56.68zm-69.19 87.88c2.52,1.74 5.17,3.46 7.95,5.16l51.28 -51.28c-3.39,-1.5 -6.36,-2.9 -8.86,-4.24l-50.36 50.36zm86.28 -86.28c3.53,0.68 7,1.58 10.41,2.69l50.02 -50.02c-2.69,-1.71 -5.44,-3.32 -8.25,-4.85l-52.18 52.18zm-74.84 93.53c2.7,1.57 5.52,3.13 8.44,4.66l52.44 -52.44 -2.92 -1.22c-2.21,-0.93 -4.31,-1.82 -6.29,-2.67l-51.67 51.67zm89.38 -89.38c3.07,1.17 6.09,2.52 9.06,4.04l47.79 -47.79c-2.45,-1.92 -4.99,-3.76 -7.59,-5.52l-49.26 49.26zm-77.25 95.93c2.85,1.44 5.8,2.85 8.85,4.25l53.09 -53.09 -9.25 -3.86 -52.7 52.7zm89.94 -89.94c2.72,1.54 5.4,3.23 8.04,5.07l46.12 -46.12c-2.22,-2.15 -4.52,-4.21 -6.91,-6.2l-47.25 47.25zm-77.24 95.93c1.75,0.78 3.53,1.55 5.35,2.31l3.85 1.6 53.24 -53.24 -0.92 -0.38 -8.33 -3.47 -53.19 53.19zm88.52 -88.52c2.44,1.83 4.85,3.8 7.22,5.89l29.3 -29.3 13.95 -17.02c-1.54,-1.79 -3.14,-3.54 -4.79,-5.24l-45.67 45.67zm-75.38 94.07l9.26 3.84 53.02 -53.02c-2.92,-1.35 -5.95,-2.69 -9.07,-4.04l-53.22 53.21zm85.52 -85.52l0.11 0.1 0.95 -1.16 -1.06 1.06zm-72.32 91l9.26 3.84 52.38 -52.38c-2.81,-1.45 -5.73,-2.9 -8.76,-4.34l-52.88 52.88zm13.18 5.51c3.31,1.44 6.29,2.83 8.94,4.16l51.53 -51.53c-2.65,-1.59 -5.44,-3.17 -8.36,-4.74l-52.12 52.12zm12.61 6.07c3.3,1.79 5.97,3.47 8.07,5.03l51.07 -51.07c-2.45,-1.78 -5.06,-3.53 -7.83,-5.28l-51.32 51.32zm11.01 7.68c2.22,2.48 3.58,5.45 4.08,9.03l54.35 -54.34c-2.17,-2.03 -4.54,-4.03 -7.09,-6.01l-51.33 51.33zm4.18 14.51c-0.65,6.58 -4.16,11.75 -10.53,15.46 -2.69,1.57 -5.63,2.88 -8.84,3.91l-62.89 62.89c3.5,0.91 7.08,1.7 10.73,2.37l134.56 -134.56c-1.8,-2.5 -3.79,-4.88 -5.97,-7.13l-57.06 57.06zm-26.72 21.13c-3.26,0.54 -6.74,0.83 -10.43,0.83 -1.15,0 -2.3,-0.02 -3.44,-0.06l-55.9 55.9c3.22,1.19 6.5,2.28 9.85,3.26l59.92 -59.92zm-19.12 0.43c-3.82,-0.35 -7.6,-0.93 -11.35,-1.75l-52.35 52.35c2.95,1.46 5.96,2.82 9.04,4.07l54.67 -54.67zm-15.85 -2.84c-3.31,-0.89 -6.6,-1.97 -9.87,-3.23l-49.97 49.97c2.7,1.7 5.47,3.31 8.29,4.82l51.55 -51.55zm-13.82 -4.86c-2.95,-1.29 -5.88,-2.73 -8.78,-4.32l-48.21 48.21c2.48,1.93 5.01,3.77 7.6,5.51l49.39 -49.39zm-12.34 -6.35c-2.67,-1.59 -5.31,-3.31 -7.94,-5.16l-46.76 46.76c2.26,2.14 4.58,4.19 6.95,6.15l47.75 -47.75zm-11.18 -7.51c-2.44,-1.83 -4.86,-3.77 -7.27,-5.83l-45.44 45.44c2.07,2.33 4.18,4.59 6.35,6.75l46.36 -46.36zm-10.25 -8.44c-2.25,-2.03 -4.49,-4.15 -6.72,-6.39l-29.86 29.86 -13.1 15.8c1.51,1.98 3.06,3.9 4.63,5.77l45.05 -45.05zm42.51 93.89c3.82,0.59 7.72,1.06 11.69,1.41l124.84 -124.84c-1.29,-3.01 -2.79,-5.87 -4.5,-8.6l-132.03 132.03zm16.89 1.8c3.97,0.24 8.01,0.36 12.13,0.36l0.62 -0 111.27 -111.27c-0.71,-3.59 -1.64,-7.03 -2.8,-10.3l-121.21 121.21zm18.43 0.25c4.85,-0.16 9.56,-0.5 14.14,-1.03l93.08 -93.08c-0.03,-4.27 -0.31,-8.35 -0.84,-12.26l-106.37 106.37zm20.61 -1.92c5.85,-0.93 11.46,-2.18 16.85,-3.75l67.95 -67.95c0.92,-4.74 1.49,-9.68 1.71,-14.82l-86.51 86.51zm25.19 -6.5c10.7,-3.96 20.42,-9.31 29.15,-16.04l15.83 -15.83c5.86,-7.74 10.15,-16.41 12.88,-25.99l-57.86 57.86z"/>
   <path fill="white" d="M943.85 1109.91c-5.15,-1.69 -9.49,-3.94 -13.06,-6.75 -21.53,-17.23 -12.93,-119.43 -12.93,-149.4l82.29 0 0 -67.01 -82.29 0 0 -73.48 -79.36 0c0,121.37 0,139.36 0,261.78 0,36.26 9.99,63.88 30.56,82.11 20.58,18.22 49.38,27.63 86.41,27.63 14.26,0 28.91,-1.54 43.93,-4.62 -29.14,-8.39 -53.18,-25.08 -72.3,-50.05l16.74 -20.19z"/>
  </g>
 </g>
</svg>
