<?xml version="1.0" encoding="UTF-8"?>
<!DOCTYPE svg PUBLIC "-//W3C//DTD SVG 1.1//EN" "http://www.w3.org/Graphics/SVG/1.1/DTD/svg11.dtd">
<!-- Creator: CorelDRAW 2020 (64-Bit) -->
<svg xmlns="http://www.w3.org/2000/svg" xml:space="preserve" width="24.0001in" height="8.00004in" version="1.1" shape-rendering="geometricPrecision" text-rendering="geometricPrecision" image-rendering="optimizeQuality" fill-rule="evenodd" clip-rule="evenodd"
viewBox="0 0 35999.87 11999.97"
 xmlns:xlink="http://www.w3.org/1999/xlink"
 xmlns:xodm="http://www.corel.com/coreldraw/odm/2003">
 <g id="Layer_x0020_1">
  <metadata id="CorelCorpID_0Corel-Layer"/>
  <rect fill="#5CC6D0" x="0" y="-0" width="35999.87" height="11999.97"/>
  <path fill="white" d="M11447.68 3525.3c675.9,0 1287.83,273.98 1730.79,716.94 442.96,442.96 716.94,1054.89 716.94,1730.79 0,675.9 -273.98,1287.84 -716.94,1730.79l-252.77 -252.77c378.23,-378.24 612.19,-900.8 612.19,-1478.02 0,-457.46 -146.97,-880.57 -396.23,-1224.74l0 1253.84 -0.03 0c0,57.9 -22.09,115.8 -66.27,159.97 -88.35,88.35 -231.6,88.35 -319.95,0l-1062.55 -1062.54 0 1118.66 -452.54 -452.54 0 -1212.35c0,-124.96 101.31,-226.27 226.27,-226.27 63.26,0 120.45,25.98 161.51,67.83l1061.01 1061.01 0 -1164.61c-347.14,-256.67 -776.55,-408.46 -1241.44,-408.46 -577.21,0 -1099.78,233.96 -1478.02,612.2l-252.77 -252.77c442.96,-442.96 1054.89,-716.94 1730.79,-716.94z"/>
  <path fill="#315F64" d="M13178.47 7703.81c-442.96,442.96 -1054.89,716.94 -1730.79,716.94 -675.9,0 -1287.83,-273.98 -1730.79,-716.94 -442.96,-442.96 -716.94,-1054.9 -716.94,-1730.79 0,-675.89 273.98,-1287.83 716.94,-1730.78l252.77 252.77c-378.24,378.23 -612.19,900.8 -612.19,1478.01 0,457.98 147.29,881.53 397.06,1225.9l1.97 -1208.77c0,-124.48 100.91,-225.39 225.39,-225.39 59.77,0 114.09,23.28 154.43,61.25l0.24 -0.25 1103.76 1041.45 0 -1101.53 452.54 452.54 0 1172.83 -0.56 0c0.02,55.48 -20.3,111.08 -61.31,154.68 -85.43,90.79 -228.29,95.14 -319.08,9.72l-1105.49 -1043.09 -1.85 1141.19c347.43,257.43 777.48,409.7 1243.11,409.7 577.21,0 1099.78,-233.95 1478.02,-612.19l252.77 252.77z"/>
  <path fill="white" fill-rule="nonzero" d="M15499.53 4989.37l-717.99 0 0 1967.8 717.99 0c577.04,0 959.97,-393.57 959.97,-981.24 0,-593 -382.93,-986.57 -959.97,-986.57zm-10.63 1733.8l-422.81 0 0 -1499.8 422.81 0c406.86,0 678.09,300.49 678.09,752.57 0,446.74 -271.23,747.23 -678.09,747.23zm2855.42 234l-537.16 -816.38c244.65,-87.76 393.56,-287.19 393.56,-550.46 0,-361.63 -268.58,-600.96 -672.78,-600.96l-773.84 0 0 1967.8 284.56 0 0 -765.85 460.04 0 23.93 0 489.28 765.85 332.41 0zm-1305.65 -1733.81l454.72 0c247.3,0 412.18,146.27 412.18,366.97 0,220.72 -170.2,366.99 -428.15,366.99l-438.75 0 0 -733.96zm1600.29 1760.4c103.7,0 186.14,-85.12 186.14,-188.82 0,-101.05 -82.44,-186.14 -186.14,-186.14 -101.05,0 -186.14,85.09 -186.14,186.14 0,103.7 85.09,188.82 186.14,188.82zm494.06 -26.6l284.55 0 -5.31 -1483.84 1304.76 1483.84 178.63 0 0 -1967.8 -285 0 7.98 1483.83 -1307.42 -1483.83 -178.18 0 0 1967.8zm2991.06 -1994.4c-499.93,0 -832.32,297.82 -832.32,747.23l0 1247.17 281.88 0 0 -624.92 1100.9 0 0 624.92 281.89 0 0 -1247.17c0,-449.41 -332.41,-747.23 -832.35,-747.23zm-550.44 1132.81l0 -372.28c0,-313.77 220.7,-526.51 553.11,-526.51 327.07,0 547.79,212.74 547.79,526.51l0 372.28 -1100.9 0zm2860.73 -172.84c183.47,-87.76 292.51,-234 292.51,-425.48 0,-305.79 -236.67,-507.89 -593,-507.89l-781.81 0 0 1967.8 813.73 0c396.21,0 659.48,-223.37 659.48,-558.43 0,-234.02 -148.91,-406.86 -390.9,-476zm-797.76 -699.37l430.79 0c218.05,0 366.97,122.34 366.97,303.16 0,180.83 -146.27,303.14 -364.32,303.14l-433.44 0 0 -606.3zm507.89 1499.8l-507.89 0 0 -659.5 510.56 0c228.68,0 382.91,132.97 382.91,329.76 0,196.77 -154.23,329.74 -385.58,329.74zm967.39 234l284.55 0 0 -1967.8 -284.55 0 0 1967.8zm986.02 -234l0 -1733.8 -284.55 0 0 1967.8 1183.34 0 0 -234 -898.8 0z"/>
  <path fill="white" fill-rule="nonzero" d="M15026.67 3889.63l-207.62 0 0 540.94 78.21 0 0 -196.63 127.21 0c111.09,0 184.94,-70.18 184.94,-174.73 0,-101.6 -73.11,-169.58 -182.74,-169.58zm-9.52 279.97l-119.89 0 0 -215.64 119.89 0c67.25,0 111.12,43.13 111.12,107.46 0,65.05 -42.4,108.19 -111.12,108.19zm547.82 268.27c165.21,0 276.33,-111.09 276.33,-277.77 0,-166.68 -111.12,-277.77 -276.33,-277.77 -165.94,0 -277.06,111.09 -277.06,277.77 0,166.68 111.12,277.77 277.06,277.77zm0 -64.32c-117.68,0 -195.92,-85.51 -195.92,-213.45 0,-127.94 78.24,-213.45 195.92,-213.45 116.95,0 195.9,85.51 195.9,213.45 0,127.94 -78.94,213.45 -195.9,213.45zm480.56 -7.3l0 -476.62 -78.21 0 0 540.94 325.3 0 0 -64.32 -247.08 0zm609.96 -476.62l-152.05 261.71 -152.05 -261.71 -84.07 0 196.65 331.13 0 209.81 78.21 0 0 -209.81 196.63 -331.13 -83.31 0zm398.7 548.24c96.5,0 173.98,-39.47 224.41,-106.72l-53.36 -48.24c-36.54,54.83 -92.83,90.64 -170.31,90.64 -119.18,0 -199.59,-86.24 -199.59,-214.91 0,-127.2 79.7,-211.98 200.32,-211.98 69.42,0 122.81,30.68 157.16,73.09l48.97 -49.7c-51.17,-56.29 -119.88,-87.71 -208.32,-87.71 -167.41,0 -279.26,110.36 -279.26,276.31 0,167.41 112.58,279.23 280,279.23zm411.85 -71.62l0 -476.62 -78.21 0 0 540.94 325.3 0 0 -64.32 -247.08 0zm348.99 64.32l78.21 0 0 -540.94 -78.21 0 0 540.94zm238.6 0l78.21 0 -1.46 -407.9 358.67 407.9 49.11 0 0 -540.94 -78.33 0 2.17 407.9 -359.41 -407.9 -48.97 0 0 540.94zm645.04 0l78.21 0 0 -540.94 -78.21 0 0 540.94zm484.23 7.3c96.5,0 173.98,-39.47 224.41,-106.72l-53.36 -48.24c-36.54,54.83 -92.83,90.64 -170.31,90.64 -119.17,0 -199.58,-86.24 -199.58,-214.91 0,-127.2 79.7,-211.98 200.31,-211.98 69.42,0 122.81,30.68 157.16,73.09l48.97 -49.7c-51.17,-56.29 -119.88,-87.71 -208.32,-87.71 -167.41,0 -279.26,110.36 -279.26,276.31 0,167.41 112.59,279.23 280,279.23z"/>
  <g id="_3025348492528">
   <path fill="white" fill-rule="nonzero" d="M21475.77 7701.62l-55.68 314.38 -408.16 0 55.65 -314.38 -144.31 0 -135.03 762.75 144.31 0 57.71 -328.82 408.19 0 -57.73 328.82 145.35 0 135.02 -762.75 -145.32 0zm667.63 534.96c9.28,-28.87 17.53,-75.26 17.53,-109.27 0,-139.13 -89.67,-228.83 -240.16,-228.83 -187.58,0 -323.64,153.59 -323.64,343.25 0,142.23 93.8,232.94 246.35,232.94 99.97,0 192.73,-43.28 255.61,-117.5l-101.01 -61.84c-40.2,39.17 -92.76,69.05 -153.59,69.05 -68.03,0 -105.12,-41.22 -105.12,-109.25l0 -18.54 404.03 0zm-224.69 -227.81c62.88,0 101.01,39.17 101.01,113.39 0,6.19 0,12.38 -1.02,19.58l-260.79 0c26.79,-75.24 80.39,-132.97 160.79,-132.97zm754.25 -99.97l-18.54 87.61c-29.91,-60.83 -88.65,-97.94 -177.31,-97.94 -175.23,0 -311.27,157.72 -311.27,343.25 0,142.23 91.72,232.94 226.75,232.94 81.42,0 145.35,-30.92 192.75,-85.53l-11.34 75.24 136.06 0 98.95 -555.56 -136.06 0zm-230.88 445.27c-82.46,0 -132.97,-50.5 -132.97,-133.98 0,-104.13 75.24,-202.04 181.42,-202.04 82.44,0 131.93,49.49 131.93,136.06 0,10.3 -1.04,21.64 -3.09,34.02l0 2.06c-17.53,95.86 -89.67,163.89 -177.28,163.89zm350.19 110.29l140.18 0 142.25 -803.97 -140.17 0 -142.26 803.97zm434.72 -441.16l163.89 0 19.58 -114.4 -163.89 0 28.87 -162.87 -140.17 0 -95.88 548.36c-2.06,12.38 -3.07,25.77 -3.07,37.11 0,86.57 56.69,143.27 149.46,143.27 54.61,0 104.1,-9.26 138.12,-23.69l19.58 -117.52c-32.98,13.42 -66.99,20.62 -102.05,20.62 -38.15,0 -61.84,-20.62 -61.84,-57.73 0,-6.17 1.02,-14.41 3.09,-21.64l44.31 -251.5zm534.71 -124.72c-68.03,0 -131.95,22.68 -180.38,70.11l53.6 -308.19 -140.2 0 -141.21 803.97 140.2 0 57.71 -328.82 0 -2.06c12.38,-66.99 73.18,-115.44 149.46,-115.44 70.09,0 111.33,34.02 111.33,93.8 0,7.2 -2.06,16.49 -3.09,25.77l-57.73 326.74 140.2 0 60.8 -344.27c2.06,-15.47 4.13,-29.91 4.13,-44.31 0,-106.18 -74.22,-177.31 -194.81,-177.31z"/>
   <path fill="#315F64" fill-rule="nonzero" d="M24836.46 7822.21l20.62 -120.59 -480.33 0 -135.02 762.75 144.31 0 54.64 -306.14 288.59 0 20.62 -119.55 -288.61 0 38.15 -216.47 337.04 0zm-44.57 642.16l144.31 0 135.02 -762.75 -144.31 0 -135.03 762.75zm948.02 -559.7c0,-122.64 -88.65,-203.05 -231.92,-203.05l-314.38 0 -135.02 762.75 144.31 0 49.46 -280.37 157.7 0 125.76 280.37 165.94 0 -145.32 -305.1c109.25,-41.22 183.47,-130.91 183.47,-254.6zm-423.63 -82.46l162.85 0c71.13,0 111.33,36.09 111.33,96.9 0,80.41 -60.83,144.31 -173.17,144.31l-143.27 0 42.26 -241.2zm672.8 652.46c179.36,0 326.74,-101.01 326.74,-252.52 0,-117.52 -106.16,-174.21 -208.2,-204.09l-42.26 -13.39c-65.98,-19.58 -114.4,-38.15 -114.4,-86.6 0,-61.84 72.14,-106.16 161.81,-106.16 69.07,0 125.76,19.58 174.21,64.94l73.18 -94.82c-61.84,-58.77 -143.29,-90.71 -245.31,-90.71 -178.32,0 -316.44,105.14 -316.44,260.76 0,103.09 81.42,150.5 187.58,182.46l42.26 13.39c81.42,24.73 136.06,47.41 136.06,97.91 0,68.03 -77.31,108.24 -172.13,108.24 -66.99,0 -137.08,-14.43 -197.9,-70.09l-64.94 91.72c58.75,62.88 151.51,98.95 259.75,98.95zm1006.77 -773.05l-610.21 0 -21.64 120.59 231.92 0 -113.39 642.16 145.32 0 113.39 -642.16 233.98 0 20.62 -120.59z"/>
  </g>
 </g>
</svg>
