<?xml version="1.0" encoding="UTF-8"?>
<!DOCTYPE svg PUBLIC "-//W3C//DTD SVG 1.1//EN" "http://www.w3.org/Graphics/SVG/1.1/DTD/svg11.dtd">
<!-- Creator: CorelDRAW 2020 (64-Bit) -->
<svg xmlns="http://www.w3.org/2000/svg" xml:space="preserve" width="8.00002in" height="8.00007in" version="1.1" shape-rendering="geometricPrecision" text-rendering="geometricPrecision" image-rendering="optimizeQuality" fill-rule="evenodd" clip-rule="evenodd"
viewBox="0 0 2000.01 2000.02"
 xmlns:xlink="http://www.w3.org/1999/xlink"
 xmlns:xodm="http://www.corel.com/coreldraw/odm/2003">
 <g id="Layer_x0020_1">
  <metadata id="CorelCorpID_0Corel-Layer"/>
  <rect fill="white" x="0" y="0" width="2000.01" height="2000.02"/>
  <ellipse fill="#FEFEFE" cx="1000" cy="1000.01" rx="333.34" ry="333.33"/>
  <ellipse fill="#CF0300" cx="1000" cy="1000.01" rx="333.34" ry="333.33"/>
  <path fill="#FEFEFE" d="M767.81 794.13c-18.25,38.26 -39.11,74.95 -31.49,119.89 5.31,31.32 25.72,55.01 61.83,78.63 36.11,23.62 107.85,32.99 155.31,63.12 -124.14,-119.78 -207,-74.32 -185.65,-261.64zm214.93 357.01c-7.08,47.51 -67.53,80.12 -106.84,98.34 64.17,6.27 97.75,-21.19 106.84,-98.34zm-3.49 -35.53c-11.6,52.83 -90.97,70.97 -135.62,80.75 58.3,18.51 123.76,7.9 135.62,-80.75zm-244.08 -146.29c12.43,51.33 55.47,94.66 109,98.5 32.54,3.15 64.51,-10.1 122.16,16.77 -41.52,-54.35 -158.95,-20.34 -231.16,-115.27zm50.6 -107.89c15.5,97.31 137.7,111.74 187.61,196.25 49.91,84.5 -19.69,163.1 28.82,232.88 45.93,-62.86 -23.35,-153.98 30.05,-235.43 53.4,-81.45 217.58,-133.16 179.34,-255.91 -12.76,-40.95 -56.78,-78.59 -100.6,-89.74 14.79,20.02 46.29,37.1 54.12,95.47 4.42,32.94 -3.42,66.97 -17.95,94.84 -15.51,29.73 -48.33,67.75 -78.88,79.21 -53.32,20 -58.38,-36.44 -13.45,-39.32 -20.78,-21.67 -48.82,-1.68 -92.27,-3.85 6.44,6.11 8.31,6.28 19.51,8.35 -10.79,9.45 -21.29,12.99 -29.32,17.82 14.41,2.95 13.98,1.23 26.95,-0.78 -11.68,9.2 -12.01,5.95 -23.23,11.99l16.46 3.39c-44.11,22.99 -93.6,-39.05 -111.83,-69.7 -23.78,-39.96 -29.74,-91.53 -12.87,-135.1 13.17,-33.99 23.17,-41.79 44.04,-61.75 -57.13,12.78 -121.98,54.08 -106.48,151.38zm446.44 -67.3c18.25,38.26 39.11,74.95 31.48,119.89 -5.31,31.32 -25.72,55.01 -61.83,78.63 -36.11,23.62 -107.85,32.99 -155.31,63.12 124.14,-119.78 207,-74.32 185.65,-261.64zm-214.93 357.01c7.08,47.51 67.53,80.12 106.84,98.34 -64.17,6.27 -97.75,-21.19 -106.84,-98.34zm3.49 -35.53c11.6,52.83 90.97,70.97 135.62,80.75 -58.3,18.51 -123.76,7.9 -135.62,-80.75zm244.08 -146.29c-12.43,51.33 -55.47,94.66 -109,98.5 -32.54,3.15 -64.51,-10.1 -122.16,16.77 41.52,-54.35 158.96,-20.34 231.16,-115.27z"/>
 </g>
</svg>
