<?xml version="1.0" encoding="UTF-8"?>
<!DOCTYPE svg PUBLIC "-//W3C//DTD SVG 1.1//EN" "http://www.w3.org/Graphics/SVG/1.1/DTD/svg11.dtd">
<!-- Creator: CorelDRAW 2020 (64-Bit) -->
<svg xmlns="http://www.w3.org/2000/svg" xml:space="preserve" width="24.0001in" height="8.00004in" version="1.1" shape-rendering="geometricPrecision" text-rendering="geometricPrecision" image-rendering="optimizeQuality" fill-rule="evenodd" clip-rule="evenodd"
viewBox="0 0 35999.87 11999.97"
 xmlns:xlink="http://www.w3.org/1999/xlink"
 xmlns:xodm="http://www.corel.com/coreldraw/odm/2003">
 <g id="Layer_x0020_1">
  <metadata id="CorelCorpID_0Corel-Layer"/>
  <rect fill="#CF0300" x="0" y="-0" width="35999.87" height="11999.97"/>
  <g id="_3025290060544">
   <path fill="#FEFEFE" fill-rule="nonzero" d="M11398.31 5651.31c0,290.95 -98.9,517.63 -297.45,680.07 -197.82,163.16 -421.61,244.01 -671.41,244.01 -84.47,0 -169.65,-9.4 -255.57,-29.6 -12.99,-37.56 -37.54,-88.79 -74.36,-152.34l44.03 -46.2c59.93,19.49 114.07,29.6 163.18,29.6 142.2,0 257.01,-50.53 342.92,-150.87 85.91,-101.08 128.5,-242.57 128.5,-424.51 0,-393.47 -176.88,-589.81 -530.64,-589.81 -42.59,0 -127.06,7.94 -253.39,25.25 -12.99,33.94 -19.49,264.23 -19.49,691.63l0 1119.02c0,335.69 9.38,553.72 27.43,655.51 7.23,41.15 31.04,67.13 72.19,77.98 12.28,2.88 109.02,10.11 289.51,21.66l23.1 23.1 0 139.32 -20.93 21.66c-192.75,-8.67 -424.51,-12.99 -693.8,-12.99 -303.21,0 -520.51,4.32 -651.19,12.99l-20.93 -19.49 0 -141.5 23.1 -23.1c142.21,-8.67 223.8,-15.9 245.46,-21.66 40.42,-10.84 64.25,-36.83 71.48,-77.98 18.76,-101.79 27.43,-319.82 27.43,-655.51l0 -1119.02c0,-335.71 -8.67,-554.45 -27.43,-655.53 -7.23,-41.15 -31.06,-67.13 -71.48,-78.68 -21.66,-5.06 -103.96,-12.28 -247.63,-20.93l-20.93 -23.1 0 -139.35 23.1 -21.66c137.89,8.67 350.13,12.99 636.76,12.99 118.39,0 288.78,-2.15 511.84,-6.5 222.38,-4.32 350.88,-6.5 384.8,-6.5 386.24,0 637.49,98.2 753,293.83 59.2,101.79 88.79,224.53 88.79,368.19zm15601.62 2307.32l-21.66 21.66 -431.01 -6.5c-70.75,-1.44 -194.2,0.73 -370.34,6.5 -42.61,-52.7 -111.19,-167.48 -207.21,-345.09l-440.38 -814.35 -166.77 238.96c-211.51,303.21 -407.17,610.04 -587.65,920.47 -64.98,-4.32 -129.97,-6.5 -194.93,-6.5 -131.41,0 -226.7,2.17 -287.34,6.5l-21.66 -21.66 0 -135 21.66 -23.1c115.51,-8.67 184.82,-20.93 209.36,-36.09 41.88,-26.72 137.88,-141.5 287.34,-345.09l277.23 -373.96c10.82,-14.43 124.18,-166.78 338.6,-456.99l-161.01 -283.72 -258.45 -446.17c-182.65,-315.47 -322.73,-502.46 -418.73,-560.22 -31.77,-19.49 -65.72,-29.6 -101.08,-29.6 -28.16,0 -72.19,2.17 -131.38,6.5l-27.45 -21.66 -16.61 -111.9 18.78 -31.77c198.54,-40.42 454.82,-97.46 767.43,-168.93 89.5,57.76 181.2,161.72 275.05,312.59 45.47,73.63 116.22,199.25 211.53,376.86l238.96 444 275.05 -402.14c227.41,-332.08 374.69,-558.78 442.56,-678.61 57.76,5.76 114.78,8.65 171.09,8.65 94.58,0 190.61,-2.88 287.34,-8.65l21.66 20.93 0 140.05 -21.66 20.93c-96.73,1.46 -161.72,12.28 -193.49,31.77 -31.77,19.49 -93.12,86.65 -184.82,200.69 -91.68,114.07 -212.24,272.9 -361.7,475.77 -83.01,113.34 -184.79,253.39 -304.65,420.89 70.75,129.94 171.09,312.59 302.5,547.96l270.73 465.64c149.43,256.3 243.28,401.41 282.28,434.62 38.98,33.21 101.79,49.82 189.15,49.82l21.66 20.93 0 135zm-11984.62 6.5l-21.64 21.66c-139.35,-8.67 -356.65,-12.99 -651.21,-12.99 -301.77,0 -519.07,4.32 -651.18,12.99l-21.66 -19.49 0 -143.67 23.1 -20.93c144.4,-8.67 226.7,-15.9 247.63,-21.66 41.15,-10.84 64.98,-36.83 72.19,-77.98 18.05,-101.79 27.45,-319.82 27.45,-655.51l0 -509.7c-72.21,-7.23 -300.33,-10.84 -685.13,-10.84 -355.2,0 -589.82,3.61 -702.45,10.84l0 509.7c0,335.69 9.38,553.72 27.43,655.51 7.23,41.15 31.04,67.13 72.19,77.98 20.95,5.76 103.25,12.99 247.63,21.66l20.95 20.93 0 141.5 -18.78 21.66c-141.5,-8.67 -358.8,-12.99 -651.92,-12.99 -303.21,0 -520.51,4.32 -651.18,12.99l-20.93 -19.49 0 -143.67 20.93 -20.93c143.67,-8.67 225.97,-15.9 247.63,-21.66 40.42,-10.84 64.25,-36.83 71.48,-77.98 18.76,-101.79 27.43,-319.82 27.43,-655.51l0 -1119.02c0,-335.71 -8.67,-554.45 -27.43,-655.53 -7.23,-41.15 -31.06,-67.13 -71.48,-78.68 -21.66,-5.06 -103.96,-12.28 -247.63,-20.93l-20.93 -20.95 0 -143.67 20.93 -19.49c135,8.67 352.3,12.99 651.18,12.99 306.12,0 523.41,-4.32 651.92,-12.99l18.78 19.49 0 145.84 -20.95 18.78c-144.38,8.65 -226.68,15.87 -247.63,20.93 -41.15,11.55 -64.96,37.54 -72.19,78.68 -18.05,101.08 -27.43,319.82 -27.43,655.53l0 348.71c149.43,7.2 355.21,10.82 617.98,10.82 411.52,0 667.79,-3.61 769.6,-10.82l0 -348.71c0,-335.71 -9.4,-554.45 -27.45,-655.53 -7.2,-41.15 -31.04,-67.13 -72.19,-78.68 -20.93,-5.06 -103.23,-12.28 -247.63,-20.93l-23.1 -20.95 0 -143.67 21.66 -19.49c136.44,8.67 353.76,12.99 651.18,12.99 307.56,0 524.85,-4.32 651.21,-12.99l21.64 19.49 0 145.84 -19.49 18.78c-146.56,8.65 -229.59,15.87 -249.08,20.93 -41.15,11.55 -64.96,37.54 -72.19,78.68 -18.78,101.08 -27.43,319.82 -27.43,655.53l0 1119.02c0,335.69 8.65,553.72 27.43,655.51 7.23,41.15 31.04,67.13 72.19,77.98 20.95,5.76 103.25,12.99 246.93,21.66l21.64 20.93 0 141.5zm7280.26 -2812.69l-23.83 20.95c-143.64,8.65 -225.97,15.87 -246.9,20.93 -41.15,11.55 -64.96,37.54 -72.19,78.68 -18.05,101.08 -27.43,319.82 -27.43,655.53l0 858.4c0,633.14 9.38,1046.08 27.43,1237.39l-27.43 19.51c-159.57,-26.72 -280.13,-46.2 -361.7,-57.05 -377.57,-424.51 -1023,-1199.15 -1935.54,-2322.49l0 1383.26c0,335.69 9.4,553.72 27.45,655.51 7.2,41.15 31.04,67.13 72.19,77.98 20.93,5.76 103.96,12.99 247.63,21.66l20.93 20.93 0 143.67 -20.93 19.49c-162.45,-8.67 -313.32,-12.99 -452.67,-12.99 -162.42,0 -324.87,4.32 -488.76,12.99l-20.93 -19.49 0 -143.67 20.93 -20.93c143.67,-8.67 226.7,-15.9 247.63,-21.66 41.15,-10.84 64.98,-36.83 71.48,-77.98 18.78,-101.79 28.16,-319.82 28.16,-655.51l0 -1119.02c0,-335.71 -9.38,-554.45 -28.16,-655.53 -6.5,-41.15 -30.33,-67.13 -71.48,-78.68 -20.93,-5.06 -103.96,-12.28 -247.63,-20.93l-20.93 -20.95 0 -143.67 20.93 -19.49c134.29,8.67 261.35,12.99 382.63,12.99 190.61,0 348.71,-4.32 474.33,-12.99 507.52,677.19 1103.86,1402.74 1788.96,2176.67l0 -1237.41c0,-335.71 -9.38,-554.45 -27.43,-655.53 -7.23,-41.15 -31.04,-67.13 -71.48,-78.68 -21.66,-5.06 -103.96,-12.28 -247.63,-20.93l-21.64 -20.95 0 -143.67 21.64 -19.49c157.39,8.67 307.56,12.99 450.49,12.99 181.94,0 345.09,-4.32 490.2,-12.99l21.66 19.49 0 143.67zm1688 2812.69l-19.49 21.66c-140.79,-8.67 -358.82,-12.99 -653.36,-12.99 -293.12,0 -510.43,4.32 -651.21,12.99l-19.49 -21.66 0 -141.5 21.66 -20.93c143.67,-8.67 225.97,-15.9 246.9,-21.66 41.17,-10.84 64.98,-36.83 72.21,-77.98 18.05,-101.79 27.43,-319.82 27.43,-655.51l0 -1119.02c0,-335.71 -9.38,-554.45 -27.43,-655.53 -7.23,-41.15 -31.04,-67.13 -72.21,-78.68 -20.93,-5.06 -103.23,-12.28 -246.9,-20.93l-21.66 -20.95 0 -143.67 21.66 -19.49c135,8.67 352.33,12.99 651.19,12.99 297.45,0 514.04,-4.32 649.04,-12.99l21.66 19.49 0 143.67 -21.66 20.95c-143.67,8.65 -225.97,15.87 -246.9,20.93 -41.15,11.55 -64.98,37.54 -72.21,78.68 -18.05,101.08 -27.43,319.82 -27.43,655.53l0 1119.02c0,335.69 9.38,553.72 27.43,655.51 7.23,41.15 31.06,67.13 72.21,77.98 20.93,5.76 103.23,12.99 246.9,21.66l21.66 20.93 0 141.5z"/>
   <path fill="none" fill-rule="nonzero" d="M18594.08 6410.8c0,520.51 -151.61,928.42 -454.82,1224.4 -294.56,288.07 -697.41,431.74 -1207.82,431.74 -482.26,0 -860.55,-135.73 -1135.62,-407.19 -275.05,-271.44 -412.93,-649.01 -412.93,-1132.72 0,-677.9 259.18,-1147.88 776.81,-1408.5 235.34,-118.39 524.85,-177.6 869.22,-177.6 491.64,0 874.98,128.51 1148.59,386.96 277.23,262.06 416.57,623.03 416.57,1082.92zm-651.92 109.72c0,-408.61 -81.57,-733.48 -246.19,-973.91 -164.6,-240.4 -405,-360.23 -721.93,-360.23 -419.46,0 -696.69,187.7 -833.83,564.56 -70.04,192.75 -105.42,409.32 -105.42,649.01 0,436.06 80.15,779.69 241.13,1032.38 166.06,260.62 415.13,391.3 746.5,391.3 402.12,0 672.11,-197.81 810.02,-594.16 73.63,-210.07 109.72,-446.15 109.72,-708.95z"/>
  </g>
  <path fill="#FEFEFE" d="M16298.65 5930.09c-52.57,110.2 -112.64,215.87 -90.67,345.28 15.3,90.21 74.07,158.41 178.06,226.44 103.98,68.02 310.59,95.02 447.28,181.79 -357.52,-344.96 -596.15,-214.04 -534.66,-753.51zm618.98 1028.17c-20.38,136.84 -194.49,230.74 -307.7,283.2 184.81,18.06 281.51,-61.03 307.7,-283.2zm-10.06 -102.32c-33.4,152.14 -262,204.39 -390.57,232.56 167.89,53.3 356.42,22.76 390.57,-232.56zm-702.93 -421.31c35.81,147.81 159.75,272.61 313.91,283.67 93.71,9.06 185.79,-29.1 351.82,48.3 -119.59,-156.51 -457.78,-58.57 -665.73,-331.97zm145.72 -310.73c44.64,280.23 396.56,321.82 540.3,565.18 143.75,243.36 -56.71,469.7 83,670.68 132.28,-181.04 -67.26,-443.45 86.53,-678.03 153.79,-234.57 626.62,-383.5 516.49,-737.01 -36.75,-117.93 -163.53,-226.34 -289.72,-258.46 42.58,57.66 133.32,106.85 155.86,274.96 12.73,94.85 -9.84,192.87 -51.71,273.15 -44.66,85.63 -139.18,195.11 -227.17,228.12 -153.55,57.6 -168.13,-104.95 -38.73,-113.23 -59.85,-62.4 -140.61,-4.85 -265.73,-11.1 18.54,17.59 23.93,18.08 56.18,24.04 -31.08,27.22 -61.3,37.4 -84.44,51.32 41.49,8.48 40.28,3.54 77.62,-2.26 -33.64,26.51 -34.57,17.15 -66.9,34.54l47.4 9.76c-127.04,66.21 -269.57,-112.47 -322.08,-200.72 -68.47,-115.1 -85.66,-263.6 -37.06,-389.08 37.92,-97.89 66.71,-120.34 126.83,-177.83 -164.54,36.81 -351.31,155.74 -306.67,435.97zm1285.7 -193.81c52.57,110.2 112.64,215.87 90.67,345.28 -15.3,90.21 -74.07,158.41 -178.06,226.44 -103.98,68.02 -310.59,95.02 -447.28,181.79 357.53,-344.96 596.15,-214.04 534.66,-753.51zm-618.97 1028.17c20.37,136.84 194.48,230.74 307.7,283.2 -184.81,18.06 -281.51,-61.03 -307.7,-283.2zm10.06 -102.32c33.41,152.14 262,204.39 390.57,232.56 -167.89,53.3 -356.41,22.76 -390.57,-232.56zm702.93 -421.31c-35.8,147.81 -159.75,272.61 -313.91,283.67 -93.71,9.06 -185.78,-29.1 -351.81,48.3 119.58,-156.51 457.78,-58.57 665.72,-331.97z"/>
  <circle fill="#FEFEFE" cx="17064.25" cy="6404.26" r="1715.06"/>
  <circle fill="#FEFEFE" cx="17064.25" cy="6404.26" r="1715.06"/>
  <path fill="#CF0300" d="M15869.57 5426.26c-93.92,196.86 -201.24,385.66 -161.99,616.85 27.33,161.17 132.34,283.02 318.1,404.55 185.77,121.52 554.88,169.75 799.09,324.78 -638.74,-616.28 -1065.04,-382.39 -955.2,-1346.18zm1105.83 1836.87c-36.41,244.46 -347.46,412.24 -549.73,505.96 330.17,32.27 502.93,-109.04 549.73,-505.96zm-17.98 -182.79c-59.68,271.81 -468.07,365.16 -697.77,415.49 299.94,95.21 636.75,40.67 697.77,-415.49zm-1255.82 -752.69c63.97,264.09 285.4,487.04 560.82,506.8 167.41,16.2 331.91,-51.98 628.53,86.3 -213.64,-279.62 -817.84,-104.64 -1189.35,-593.09zm260.33 -555.14c79.76,500.66 708.47,574.95 965.29,1009.72 256.82,434.77 -101.32,839.16 148.26,1198.22 236.34,-323.44 -120.15,-792.26 154.59,-1211.34 274.75,-419.08 1119.48,-685.15 922.74,-1316.71 -65.65,-210.68 -292.17,-404.37 -517.6,-461.74 76.08,103 238.19,190.89 278.46,491.22 22.74,169.46 -17.57,344.57 -92.38,487.99 -79.79,152.99 -248.66,348.58 -405.85,407.54 -274.32,102.91 -300.36,-187.49 -69.19,-202.29 -106.92,-111.48 -251.2,-8.66 -474.74,-19.82 33.12,31.43 42.76,32.29 100.37,42.94 -55.54,48.64 -109.52,66.82 -150.86,91.68 74.12,15.16 71.95,6.34 138.67,-4.02 -60.09,47.36 -61.77,30.64 -119.53,61.69l84.68 17.45c-226.98,118.27 -481.6,-200.94 -575.41,-358.59 -122.34,-205.62 -153.04,-470.93 -66.21,-695.11 67.75,-174.9 119.2,-215 226.58,-317.71 -293.96,65.76 -627.63,278.24 -547.87,778.88zm2296.98 -346.25c93.92,196.86 201.24,385.66 161.99,616.85 -27.33,161.17 -132.34,283.02 -318.1,404.55 -185.77,121.52 -554.88,169.75 -799.09,324.78 638.74,-616.28 1065.04,-382.39 955.2,-1346.18zm-1105.83 1836.87c36.41,244.46 347.46,412.24 549.73,505.96 -330.17,32.27 -502.93,-109.04 -549.73,-505.96zm17.98 -182.79c59.68,271.81 468.07,365.16 697.77,415.49 -299.94,95.21 -636.75,40.67 -697.77,-415.49zm1255.82 -752.69c-63.97,264.09 -285.4,487.04 -560.82,506.8 -167.41,16.2 -331.91,-51.98 -628.53,86.3 213.64,-279.62 817.84,-104.64 1189.35,-593.09z"/>
  <circle fill="white" cx="16302.47" cy="4173.68" r="292.99"/>
  <circle fill="white" cx="17826.03" cy="4173.68" r="292.99"/>
 </g>
</svg>
