<?xml version="1.0" encoding="UTF-8"?>
<!DOCTYPE svg PUBLIC "-//W3C//DTD SVG 1.1//EN" "http://www.w3.org/Graphics/SVG/1.1/DTD/svg11.dtd">
<!-- Creator: CorelDRAW 2020 (64-Bit) -->
<svg xmlns="http://www.w3.org/2000/svg" xml:space="preserve" width="24.0001in" height="8.00004in" version="1.1" shape-rendering="geometricPrecision" text-rendering="geometricPrecision" image-rendering="optimizeQuality" fill-rule="evenodd" clip-rule="evenodd"
viewBox="0 0 35999.87 11999.97"
 xmlns:xlink="http://www.w3.org/1999/xlink"
 xmlns:xodm="http://www.corel.com/coreldraw/odm/2003">
 <g id="Layer_x0020_1">
  <metadata id="CorelCorpID_0Corel-Layer"/>
  <rect fill="#22334D" fill-rule="nonzero" x="0" y="-0" width="35999.87" height="11999.97"/>
  <g id="_3025293747280">
   <path fill="white" fill-rule="nonzero" d="M16515.75 6702.48c-15.81,752.63 647.37,1394.77 1431.59,1378.96 784.22,15.81 1452.66,-626.33 1436.85,-1378.96 7.21,-342.3 -127.13,-661.67 -349.5,-906.71l1.05 1.15 -112.4 169.8 -817.54 1230.26 -0.25 -0.15 -0.74 1.15c-77.82,116.15 -235.06,147.25 -351.2,69.46l-500.19 -333.51 -210.3 -140.88 281.74 -420.66 210.34 140.9 288.55 192.39 676.95 -1018.71 132.98 -200.9 2.29 1.2c-206.25,-108.38 -441.68,-168.72 -688.61,-163.74 -784.22,-15.81 -1447.4,626.33 -1431.59,1378.96z"/>
   <path fill="white" fill-rule="nonzero" d="M26999.91 6397.21c0,-31.85 -0.94,-63.14 -2.79,-93.86l-902.47 902.47 0 130.48 905.27 -905.27 0 -33.82zm-6.78 -145.45c-3.73,-39.25 -9.04,-77.47 -15.81,-114.65l-882.67 882.67 0 130.46 898.49 -898.49zm-25.11 -160.95c-7.79,-35.34 -17.01,-69.64 -27.58,-102.9l-845.8 845.8 0 130.48 873.38 -873.38zm-41.64 -144.42c-11.47,-31.77 -24.28,-62.5 -38.33,-92.15l-793.41 793.42 0 130.46 831.74 -831.74zm-56.83 -129.23c-14.93,-28.42 -31.1,-55.78 -48.45,-82.01l-729.95 729.95c2.3,20.37 3.49,41.61 3.49,63.69l0 63.28 774.91 -774.92zm-71.21 -114.83c-18.29,-25.2 -37.75,-49.25 -58.33,-72.15l-690.55 690.55c14.85,29.01 26.27,61.24 33.9,96.58l714.98 -714.98zm-85.27 -100.81c-21.61,-21.97 -44.32,-42.75 -68.15,-62.31l-678.36 678.36c23.85,19.35 44.71,42.12 62.3,68.17l684.21 -684.21zm-99.32 -86.72c-25,-18.68 -51.13,-36.11 -78.29,-52.19l-692.43 692.43c33.19,9.22 63.67,22.43 91.06,39.43l679.67 -679.67zm-113.87 -72.19c-28.58,-15.23 -58.27,-29.05 -89,-41.48l-740.98 740.98c16.54,-1.85 33.56,-2.79 51.05,-2.79 26.59,0 52.1,1.97 76.39,5.83l702.54 -702.53zm-129.3 -56.76c-32.47,-11.47 -66.03,-21.43 -100.66,-29.8l-1817.41 1817.41 0 130.46 927.29 -927.29c36.07,-113.05 114.53,-188.87 220.56,-220.56l770.22 -770.22zm-146.27 -39.79c-36.85,-7.26 -74.82,-12.8 -113.88,-16.58l-1657.93 1657.92 0 130.46 1771.81 -1771.8zm-165.55 -20.51c-24.5,-1.36 -49.38,-2.05 -74.66,-2.05 -18.4,0 -36.69,0.4 -54.89,1.12l-1476.72 1476.72 0 130.48 1606.26 -1606.26zm-188.76 2.69c-51.69,4.31 -102.42,11.55 -151.98,21.51l-1265.52 1265.52 0 130.48 1417.5 -1417.51zm-224.28 38.24c-70.6,18.48 -138.38,42.67 -202.56,72.09l-998.17 998.18c4.94,28.81 7.52,59.49 7.52,92.03l0 30.92 1193.22 -1193.22zm-320.55 134.5c-75.23,45.52 -143.84,98.98 -204.23,159.37 -12.91,-15.86 -26.16,-31.15 -39.75,-45.86l-685.4 685.4c16.46,27.27 29.59,57.8 39.05,91.43l890.34 -890.34zm-271.24 85.18c-22.06,-21.99 -44.96,-42.57 -68.71,-61.76l-679.25 679.25c25.39,17.66 47.88,38.83 67.13,63.33l680.83 -680.82zm-100.11 -85.94c-25.4,-18.67 -51.71,-35.84 -78.96,-51.53l-700.03 700.03c34.99,7.26 67.28,18.64 96.52,33.97l682.47 -682.47zm-114.96 -71.11c-29.13,-14.95 -59.26,-28.3 -90.4,-40.06l-759.18 759.18c28.23,-5.89 58.17,-8.92 89.54,-8.92 16.3,0 32.21,0.74 47.65,2.2l712.38 -712.39zm-131.56 -54.49c-33.31,-10.8 -67.72,-19.87 -103.24,-27.24l-1793.67 1793.68 0 130.48 949.23 -949.23c32.8,-65.69 82.73,-114.88 145.62,-145.63l802.06 -802.06zm-150.16 -35.89c-38,-6.13 -77.21,-10.41 -117.64,-12.84l-1629.11 1629.11 0 130.48 1746.75 -1746.75zm-171.09 -14.96c-9.36,-0.18 -18.79,-0.28 -28.27,-0.28 -36.12,0 -71.5,1.41 -106.13,4.19l-1441.26 1441.26 0 130.49 1575.66 -1575.66zm-196.58 10.51c-57.32,7.61 -112.45,19.23 -165.37,34.9l-1213.71 1213.71 0 130.48 1379.08 -1379.08zm-250.3 64.25c-112.14,44.59 -213.15,109.04 -302.45,193.4l0 -21.42 -826.33 826.33 0 130.48 1128.78 -1128.78zm-302.45 116.4l0 -128.27 -2.2 0 -824.13 824.13 0 130.46 826.33 -826.32zm-57.79 -128.27l-130.46 0 -638.07 638.08 0 130.46 768.54 -768.54zm-186.04 0l-130.49 0 -452.01 452.01 0 130.49 582.5 -582.5zm-186.07 0l-130.48 0 -265.95 265.96 0 130.48 396.43 -396.43zm-186.05 0l-130.48 0 -79.9 79.9 0 130.48 210.38 -210.38zm-186.06 0l-24.32 0 0 24.32 24.32 -24.32zm-24.32 1940.46l0 130.46 905.27 -905.27 0 -23.54c0,-43.33 4.52,-83.41 13.15,-120.08l-918.42 918.42zm0 186.05l0 130.49 905.27 -905.27 0 -130.49 -905.27 905.27zm0 186.08l0 130.45 905.27 -905.27 0 -130.45 -905.27 905.27zm0 186.05l0 130.48 905.27 -905.27 0 -130.48 -905.27 905.27zm53.07 132.98l130.48 0 721.72 -721.72 0 -130.48 -852.2 852.2zm186.05 0l130.48 0 535.67 -535.66 0 -130.48 -666.14 666.14zm186.06 0l130.46 0 349.62 -349.62 0 -130.46 -480.09 480.09zm186.06 0l130.46 0 163.56 -163.55 0 -130.46 -294.02 294.02zm186.06 0l107.96 0 0 -107.96 -107.96 107.96zm844.81 -658.77l0 130.48 905.29 -905.28 0 -55.91c0,-28.1 1.92,-54.85 5.62,-80.18l-910.9 910.9zm0 186.06l0 130.49 905.29 -905.28 0 -130.49 -905.29 905.29zm0 186.06l0 130.46 905.29 -905.28 0 -130.46 -905.29 905.28zm0 186.06l0 100.59 29.88 0 875.4 -875.4 0 -130.48 -905.29 905.29zm85.46 100.59l130.46 0 689.36 -689.36 0 -130.46 -819.83 819.82zm186.06 0l130.46 0 503.31 -503.31 0 -130.46 -633.77 633.77zm186.04 0l130.48 0 317.25 -317.25 0 -130.48 -447.73 447.72zm186.08 0l130.46 0 131.18 -131.18 0 -130.46 -261.65 261.65zm186.04 0l75.61 0 0 -75.6 -75.61 75.6zm812.46 -626.4l0 130.48 905.27 -905.27 0 -130.48 -905.27 905.27zm0 186.05l0 130.48 905.27 -905.27 0 -130.48 -905.27 905.27zm0 186.07l0 130.45 905.27 -905.27 0 -130.45 -905.27 905.27zm0 186.05l0 68.23 62.24 0 843.03 -843.03 0 -130.46 -905.27 905.27zm117.83 68.23l130.46 0 656.97 -656.97 0 -130.46 -787.44 787.44zm186.04 0l130.48 0 470.92 -470.92 0 -130.48 -601.4 601.4zm186.06 0l130.48 0 284.86 -284.86 0 -130.48 -415.34 415.34zm186.06 0l130.48 0 98.8 -98.8 0 -130.48 -229.27 229.27zm186.06 0l43.22 0 0 -43.22 -43.22 43.22z"/>
   <path fill="white" fill-rule="nonzero" d="M21519.2 4455.08c0,4.77 0.06,9.51 0.18,14.24l551.07 -551.07c-52.28,0.12 -102.61,6.96 -150.15,19.69l-384.74 384.74c-10.68,42.25 -16.36,86.59 -16.36,132.39zm314.6 -486.22c-120.57,54.66 -215.97,150.07 -268.85,268.85l268.85 -268.85zm-310.62 552.25c4.49,36.82 12.7,72.32 24.28,106.19l686.56 -686.55c-35.34,-10.1 -72.18,-16.98 -110.21,-20.28l-600.64 600.65zm39.86 146.19c12.94,29.55 28.54,57.62 46.52,83.96l754.83 -754.81c-27.93,-16.38 -57.54,-30.47 -88.52,-41.97l-712.83 712.83zm70.17 115.9c19.23,23.99 40.6,46.26 63.84,66.61l772.94 -772.94c-22.06,-21.5 -46.02,-41.2 -71.63,-58.83l-765.15 765.16zm94.52 91.51c25.07,18.87 51.94,35.64 80.39,50.1l744.55 -744.56c-16.27,-26.57 -34.89,-51.64 -55.54,-74.93l-769.39 769.39zm118.38 67.68c31.61,13.18 64.85,23.6 99.45,31.03l663.92 -663.92c-9.31,-32.61 -21.72,-63.9 -36.87,-93.6l-726.5 726.5zm146.9 39.15c25.7,3.35 51.99,5.12 78.82,5.12 16.34,0 32.52,-0.66 48.49,-1.94l509 -509c0.27,-6.85 0.41,-13.72 0.41,-20.64 0,-34.48 -3.3,-68.14 -9.57,-100.69l-627.16 627.16zm191.63 -5.57c87.08,-16.78 166.5,-52.68 233.37,-102.89l108.46 -108.46c49.34,-65.95 83.2,-143.25 96.7,-227.17l-438.52 438.52z"/>
   <path fill="white" fill-rule="nonzero" d="M21624.47 8018.28l67.09 0 838.19 -838.18 0 -130.49 -905.27 905.27 0 63.4zm905.27 -1024.25l0 -130.48 -905.27 905.27 0 130.48 905.27 -905.27zm0 -186.06l0 -130.48 -905.27 905.27 0 130.48 905.27 -905.27zm0 -186.05l0 -130.46 -905.27 905.27 0 130.46 905.27 -905.27zm0 -186.06l0 -130.46 -905.27 905.27 0 130.46 905.27 -905.27zm0 -186.04l0 -130.49 -905.27 905.27 0 130.49 905.27 -905.27zm0 -186.07l0 -130.48 -905.27 905.27 0 130.48 905.27 -905.27zm0 -186.05l0 -130.48 -905.27 905.27 0 130.48 905.27 -905.27zm0 -186.06l0 -130.48 -905.27 905.27 0 130.48 905.27 -905.27zm0 -186.05l0 -118.92 -11.57 0 -893.7 893.7 0 130.49 905.27 -905.27zm-67.15 -118.92l-130.48 0 -707.65 707.65 0 130.48 838.12 -838.12zm-186.05 0l-130.46 0 -521.61 521.61 0 130.46 652.07 -652.07zm-186.05 0l-130.48 0 -335.55 335.55 0 130.48 466.02 -466.02zm-186.05 0l-130.48 0 -149.5 149.5 0 130.48 279.97 -279.97zm-186.06 0l-93.91 0 0 93.91 93.91 -93.91zm28.75 2631.61l130.48 0 652.13 -652.12 0 -130.48 -782.6 782.6zm186.05 0l130.48 0 466.08 -466.07 0 -130.48 -596.55 596.55zm186.06 0l130.46 0 280.03 -280.03 0 -130.46 -410.5 410.49zm186.04 0l130.49 0 93.97 -93.96 0 -130.49 -224.46 224.45zm186.08 0l38.37 0 0 -38.37 -38.37 38.37z"/>
   <path fill="white" fill-rule="nonzero" d="M19296.42 7576.18c6.72,8.72 13.59,17.34 20.55,25.85l486.46 -486.46c-23.36,-19.21 -46.56,-39.49 -69.6,-60.87l-131.67 131.66 -305.73 389.81zm46.02 55.96c20.27,23.13 41.48,45.43 63.57,66.92l504.12 -504.12c-25.45,-16.98 -50.73,-35.2 -75.82,-54.67l-491.87 491.87zm92.21 93.86c22.76,20.72 46.38,40.62 70.81,59.67l522.04 -522.03c-28.06,-14.18 -55.91,-29.84 -83.53,-46.95l-509.32 509.32zm102.48 83.57c25.2,18.4 51.19,35.91 77.92,52.54l543.45 -543.45c-31.41,-10.56 -62.57,-22.9 -93.48,-36.98l-527.89 527.89zm112.65 73.41c27.64,16.05 56.02,31.18 85.08,45.38l573.14 -573.14c-36.01,-5.58 -71.7,-13.38 -107.05,-23.41l-551.17 551.17zm122.9 63.14c30.19,13.63 61.04,26.3 92.53,37.95l619.37 -619.38c-12.96,0.65 -26.54,0.96 -40.78,0.96 -29.01,0 -57.84,-1.4 -86.46,-4.2l-584.67 584.67zm133.59 52.46c32.88,11.08 66.41,21.08 100.51,29.99l1317.37 -1317.37c-21.25,-21.08 -44.31,-41.46 -69.2,-61.29l-581.27 581.28c1.14,5.86 1.7,12.06 1.7,18.68 0,58.71 -43.67,94.12 -128.81,108.42l-640.29 640.29zm1317.19 -1372.76c-24.38,-17.92 -50.35,-35.43 -77.9,-52.59l-569.13 569.13c37.49,17.98 63.03,33.79 78.76,51.73l568.27 -568.27zm-112.56 -73.51c-26.7,-15.63 -54.76,-31.03 -84.21,-46.26l-580.7 580.7 76.75 31.52 15.48 6.71 572.67 -572.67zm-121.13 -64.91c-28.38,-14 -57.97,-27.89 -88.74,-41.73l-586.92 586.92 92.49 37.99 583.17 -583.17zm-127.29 -58.77c-29.59,-12.86 -60.22,-25.69 -91.92,-38.55l-588.32 588.31c15,6.3 30.26,12.57 45.76,18.83l46.7 19.19 587.78 -587.78zm-131.59 -54.46l-93.21 -37.28 -584.21 584.21c28.83,13.67 58.74,27.22 89.81,40.68l587.61 -587.61zm-132.9 -53.17l-93.19 -37.28 -574.44 574.43c27.3,15.15 55.84,30.08 85.65,44.83l581.98 -581.98zm-133.14 -52.92c-36.43,-14.29 -65.96,-27.75 -89.17,-41.31l-560.78 560.78c25.27,17.15 51.94,33.92 80.07,50.41l569.88 -569.88zm-122 -64.06c-24.62,-20.9 -35.91,-43.17 -35.91,-69.96 0,-10.57 1.52,-20.27 4.51,-29.1l-601.83 601.83c22.6,19.78 46.79,39.04 72.63,57.83l560.6 -560.6zm19.28 -149.75c30.62,-13.64 73.79,-20.22 129.02,-20.22 7.14,0 14.26,0.1 21.36,0.3l590.58 -590.57c-30.28,-13.63 -61.29,-26.08 -93.09,-37.38l-647.87 647.87zm606.26 -661.84c-33.33,-10.57 -67.47,-19.92 -102.42,-28.06l-1248.21 1248.21c19.12,23.3 40.05,45.8 62.84,67.64l1287.79 -1287.79zm-148.15 -37.91c-36.63,-7.27 -74.13,-13.27 -112.5,-17.98l-1164.32 1164.33c14.62,27.83 31.3,54.58 50.1,80.37l1226.73 -1226.72zm-162.7 -23.35c-40.19,-3.71 -81.33,-6.06 -123.4,-7.08l-1042.84 1042.84c9,33.58 20.31,65.7 33.99,96.48l1132.25 -1132.24zm-178.46 -7.59c-46.66,0.17 -92.1,2.11 -136.25,5.77l-876.47 876.47c2.27,40.55 7.07,79.16 14.44,116.04l998.28 -998.28zm-198.19 12.14c-55.46,6.83 -108.65,16.5 -159.41,28.93l-646.37 646.37c-6.78,44.39 -10.27,90.68 -10.27,138.83l0 1.92 816.05 -816.05zm-236.63 50.57c-92.14,29.22 -175.01,68.39 -247.36,116.87l-210.42 210.42c-44.47,68.05 -77.48,144.32 -97.79,228.28l555.58 -555.58zm520.56 651.35c37.36,3.66 74.38,10.13 111.03,19.44l549.52 -549.52c-27.45,-16.44 -55.62,-31.77 -84.48,-45.99l-576.07 576.07zm154.27 31.78c31.54,10.02 62.83,22.21 93.91,36.56l523.13 -523.12c-24.85,-19.05 -50.36,-37.03 -76.52,-53.96l-540.53 540.52zm131.18 54.87c27.56,14.35 54.96,30.44 82.2,48.28l503.83 -503.83c-22.45,-21.45 -45.5,-41.89 -69.17,-61.32l-516.86 516.86zm115.24 70.83c24.64,17.49 49.18,36.44 73.61,56.86l71.82 -71.83 364.44 -472.43 -11.08 -11.4 -498.79 498.79zm-914.11 1844.39c35.86,8.27 72.32,15.33 109.3,21.18l1248.04 -1248.04c-17.07,-25.32 -36.22,-49.61 -57.44,-73.04l-1299.9 1299.9zm157.91 28.15c39.32,5.04 79.18,8.7 119.51,10.97l1143.45 -1143.44c-11.71,-30.86 -25.73,-60.25 -42.09,-88.39l-1220.86 1220.86zm172.86 13.19c15.22,0.41 30.5,0.6 45.84,0.6 29.18,0 57.84,-0.65 86,-1.95l995.44 -995.46c-5.16,-37.67 -12.86,-73.36 -23.11,-107.35l-1104.16 1104.16zm191.18 -5.12c51.79,-4.2 101.76,-10.71 149.98,-19.49l792.69 -792.68c0.99,-18.35 1.49,-36.94 1.49,-55.81 0,-25.27 -0.9,-49.74 -2.72,-73.46l-941.43 941.43zm220.26 -34.19c68.15,-16.15 132.57,-37.17 193.43,-62.97l486.27 -486.28c18.01,-53.02 30.48,-109.03 37.48,-167.93l-717.18 717.18zm302.41 -116.35c40.49,-22.69 79.22,-47.82 116.22,-75.33 96.9,-74.54 170.34,-161.98 220.86,-261.76l-337.08 337.09z"/>
   <path fill="white" d="M15461.38 4070.87l0 1494.76c-173.68,-163.16 -394.74,-242.11 -673.68,-242.11 -726.33,0 -1263.17,584.22 -1263.17,1384.22 0,800.01 526.32,1373.71 1263.17,1373.71 336.84,0 589.48,-110.53 752.64,-336.84l0 273.68 826.33 0 0 -3947.42 -905.29 0zm15.79 2636.88c0,357.91 -231.58,552.65 -510.53,552.65 -289.47,0 -515.8,-205.26 -515.8,-557.91 0,-352.63 236.84,-557.9 515.8,-557.9 278.95,0 510.53,205.26 510.53,563.16z"/>
   <path fill="white" fill-rule="nonzero" d="M10822.78 6791.95c0,773.7 547.38,1289.5 1289.5,1289.5 742.11,0 1284.22,-515.8 1284.22,-1289.5l0 -1405.28 -905.27 0 0 1478.96c0,226.32 -163.16,384.22 -378.95,384.22 -226.32,0 -384.22,-157.89 -384.22,-384.22l0 -1478.96 -905.28 0 0 1405.28z"/>
   <path fill="white" fill-rule="nonzero" d="M10357.92 7270.91c-331.59,0 -452.63,-94.74 -452.63,-347.38l0 -778.96 705.27 0 0 -757.9 -705.27 0 0 -631.58 -905.29 0c0,753.81 0,1503.42 0,2257.92 0,710.54 415.8,1068.44 1157.91,1068.44 178.95,0 357.9,-21.06 531.59,-63.16l0 -757.9 -331.58 10.52z"/>
  </g>
 </g>
</svg>
