<?xml version="1.0" encoding="UTF-8"?>
<!DOCTYPE svg PUBLIC "-//W3C//DTD SVG 1.1//EN" "http://www.w3.org/Graphics/SVG/1.1/DTD/svg11.dtd">
<!-- Creator: CorelDRAW 2020 (64-Bit) -->
<svg xmlns="http://www.w3.org/2000/svg" xml:space="preserve" width="24.0001in" height="8.00004in" version="1.1" shape-rendering="geometricPrecision" text-rendering="geometricPrecision" image-rendering="optimizeQuality" fill-rule="evenodd" clip-rule="evenodd"
viewBox="0 0 35999.87 11999.97"
 xmlns:xlink="http://www.w3.org/1999/xlink"
 xmlns:xodm="http://www.corel.com/coreldraw/odm/2003">
 <g id="Layer_x0020_1">
  <metadata id="CorelCorpID_0Corel-Layer"/>
  <rect fill="#114861" x="0" y="-0" width="35999.87" height="11999.97"/>
  <polygon fill="#14E3B3" points="12229.05,7535.16 12115.64,7508.52 12035.94,7593.5 12026.23,7477.4 11920.78,7427.87 12028.2,7382.76 12042.72,7267.16 12118.82,7355.38 12233.24,7333.47 12172.86,7433.11 "/>
  <polygon fill="white" points="9160.15,6071.99 10434.13,5507.3 10388.7,4114.5 11319.44,5151.64 12630.04,4678.06 11931.29,5883.72 12786.69,6983.81 11424.11,6691.83 10642.16,7845.33 10498.8,6459.19 "/>
  <polygon fill="#14E3B3" points="9569.03,7090.72 10415.75,5965.65 9654.25,4781.22 10985.91,5238.82 11877.09,4148.59 11853.38,5556.49 13165.62,6067.11 11819.32,6479.64 11739.16,7885.47 10930.81,6732.53 "/>
  <polygon fill="white" points="11311.54,5700.54 11195.77,5996.5 11053.85,5689.33 11002.5,5689.33 10860.58,5996.5 10744.81,5700.54 10565.55,5700.54 10819.5,6327.96 10870.85,6327.96 11028.64,6005.84 11185.5,6327.96 11236.85,6327.96 11490.8,5700.54 "/>
  <polygon fill="white" fill-rule="nonzero" points="11342.16,6070.26 11597.74,6070.26 11597.74,6316.75 11758.33,6316.75 11758.33,5700.54 11597.74,5700.54 11597.74,5925.55 11400.74,5925.55 11491.81,5700.54 11312.55,5700.54 11312.52,5700.62 11119.94,6191.26 11186.51,6327.96 11237.86,6327.96 "/>
  <polygon fill="#14E3B3" points="9605.06,5702.1 9386.55,5688.63 9265.83,5871.26 9211.12,5659.29 9000.12,5600.92 9184.82,5483.38 9175.13,5264.68 9343.99,5404 9548.99,5327.2 9468.66,5530.85 "/>
  <polygon fill="white" points="12305.77,4686.06 12249.83,4595.33 12143.29,4598.53 12212.29,4517.28 12176.33,4416.94 12274.91,4457.47 12359.23,4392.26 12351.15,4498.55 12439.23,4558.58 12335.65,4583.74 "/>
  <g id="_3025299328256">
   <path fill="white" fill-rule="nonzero" d="M15046.51 5409.23l-264.95 677.33 -324.78 -702.96 -117.52 0 -324.75 702.96 -264.97 -677.33 -410.24 0 581.19 1435.83 117.52 0 361.08 -737.14 358.96 737.14 117.52 0 581.18 -1435.83 -410.24 0zm545.5 1410.2l367.51 0 0 -1068.32 -367.51 0 0 1068.32zm-42.73 -1446.53c0,121.79 98.29,215.81 224.36,215.81 126.07,0 226.49,-96.14 226.49,-215.81 0,-121.77 -100.42,-217.94 -226.49,-217.94 -126.07,0 -224.36,96.16 -224.36,217.94zm1075.41 1138.86l442.3 -664.51 0 -96.14 -927.33 0 0 307.68 399.56 0 -448.7 664.51 0 96.14 978.59 0 0 -307.68 -444.43 0zm1530.52 -311.95c0,-307.7 -185.9,-474.35 -485.03,-474.35 -194.43,0 -339.73,68.39 -482.88,213.66l170.93 232.91c102.57,-91.89 170.93,-130.35 267.09,-130.35 111.09,0 162.38,53.41 162.38,136.75l0 17.1 -224.36 0c-258.52,0 -418.77,119.64 -418.77,318.35 0,179.48 134.6,331.18 367.51,331.18 126.05,0 228.61,-38.46 307.68,-113.24l0 87.61 335.45 0 0 -619.63zm-367.51 228.61c0,96.14 -68.39,155.98 -162.38,155.98 -68.39,0 -108.99,-32.05 -108.99,-83.31 0,-51.28 36.33,-81.21 98.29,-81.21l173.08 0 0 8.55zm1297.6 -677.31c-32.05,-10.7 -66.24,-17.1 -104.69,-17.1 -109,0 -202.99,47.01 -269.25,130.35l0 -113.24 -335.45 0 0 1068.32 367.51 0 0 -487.15c0,-179.48 85.46,-256.42 254.27,-256.42l87.61 0 0 -324.75zm857.45 -534.19l0 606.82c-70.51,-66.24 -160.25,-98.29 -273.49,-98.29 -294.87,0 -512.81,237.16 -512.81,561.94 0,324.78 213.66,557.67 512.81,557.67 136.75,0 239.29,-44.86 305.55,-136.75l0 111.12 335.45 0 0 -1602.51 -367.51 0zm6.4 1070.47c0,145.3 -94.02,224.36 -207.26,224.36 -117.52,0 -209.38,-83.34 -209.38,-226.49 0,-143.17 96.14,-226.49 209.38,-226.49 113.24,0 207.26,83.31 207.26,228.61z"/>
   <path fill="#14E3B3" fill-rule="nonzero" d="M20560.89 6819.43l367.52 0 0 -564.09 514.93 0 0 564.09 367.51 0 0 -1410.2 -367.51 0 0 514.93 -514.93 0 0 -514.93 -367.52 0 0 1410.2zm2494.15 -405.97c14.95,-57.68 23.5,-117.52 23.5,-181.63 0,-275.62 -202.99,-506.38 -510.66,-506.38 -318.38,0 -570.49,245.71 -570.49,559.82 0,316.23 252.12,559.79 600.4,559.79 155.98,0 299.15,-47.01 425.2,-143.15l-132.48 -249.99c-91.87,55.56 -183.75,83.34 -279.9,83.34 -119.64,0 -198.71,-40.61 -239.31,-121.79l683.74 0zm-696.54 -239.31c27.76,-102.57 102.54,-160.25 194.43,-160.25 96.14,0 175.2,64.11 177.33,160.25l-371.76 0zm1850.99 25.65c0,-307.7 -185.9,-474.35 -485.03,-474.35 -194.43,0 -339.73,68.39 -482.88,213.66l170.93 232.91c102.57,-91.89 170.93,-130.35 267.09,-130.35 111.09,0 162.38,53.41 162.38,136.75l0 17.1 -224.36 0c-258.52,0 -418.77,119.64 -418.77,318.35 0,179.48 134.6,331.18 367.51,331.18 126.05,0 228.61,-38.46 307.68,-113.24l0 87.61 335.45 0 0 -619.63zm-367.51 228.61c0,96.14 -68.39,155.98 -162.38,155.98 -68.39,0 -108.99,-32.05 -108.99,-83.31 0,-51.28 36.33,-81.21 98.29,-81.21l173.08 0 0 8.55zm588.21 391.01l367.51 0 0 -1602.51 -367.51 0 0 1602.51zm1212.16 -303.4c-134.62,0 -183.75,-38.46 -183.75,-141.02l0 -316.23 286.32 0 0 -307.68 -286.32 0 0 -256.42 -367.51 0 0 256.42 -162.38 0 0 307.68 162.38 0 0 352.53c0,288.47 168.8,433.75 470.08,433.75 72.64,0 145.27,-8.53 215.79,-25.63l0 -307.68 -134.6 4.28zm1357.44 -354.71c0,-260.67 -162.41,-435.87 -399.57,-435.87 -108.97,0 -202.98,34.18 -277.77,100.42l0 -608.95 -367.51 0 0 1602.51 367.51 0 0 -604.67c0,-94.02 61.96,-158.12 153.85,-158.12 91.87,0 155.98,64.11 155.98,158.12l0 604.67 367.52 0 0 -658.11z"/>
  </g>
 </g>
</svg>
