<?xml version="1.0" encoding="UTF-8"?>
<!DOCTYPE svg PUBLIC "-//W3C//DTD SVG 1.1//EN" "http://www.w3.org/Graphics/SVG/1.1/DTD/svg11.dtd">
<!-- Creator: CorelDRAW 2020 (64-Bit) -->
<svg xmlns="http://www.w3.org/2000/svg" xml:space="preserve" width="24.0001in" height="8.00004in" version="1.1" shape-rendering="geometricPrecision" text-rendering="geometricPrecision" image-rendering="optimizeQuality" fill-rule="evenodd" clip-rule="evenodd"
viewBox="0 0 35999.87 11999.97"
 xmlns:xlink="http://www.w3.org/1999/xlink"
 xmlns:xodm="http://www.corel.com/coreldraw/odm/2003">
 <g id="Layer_x0020_1">
  <metadata id="CorelCorpID_0Corel-Layer"/>
  <rect fill="white" x="0" y="0.01" width="35999.87" height="11999.97"/>
  <path fill="#5CC6D0" d="M11447.67 3525.29c675.9,0 1287.84,273.98 1730.79,716.94 442.96,442.96 716.94,1054.89 716.94,1730.79 0,675.9 -273.98,1287.84 -716.94,1730.79l-252.77 -252.77c378.24,-378.24 612.2,-900.8 612.2,-1478.02 0,-457.46 -146.97,-880.57 -396.23,-1224.74l0 1253.84 -0.03 0c0,57.9 -22.09,115.79 -66.27,159.97 -88.35,88.35 -231.61,88.35 -319.95,0l-1062.55 -1062.54 0 1118.66 -452.54 -452.54 0 -1212.35c0,-124.96 101.31,-226.27 226.27,-226.27 63.27,0 120.45,25.98 161.51,67.83l1061.01 1061.01 0 -1164.61c-347.14,-256.67 -776.55,-408.46 -1241.44,-408.46 -577.21,0 -1099.77,233.96 -1478.01,612.2l-252.77 -252.77c442.96,-442.96 1054.89,-716.94 1730.78,-716.94z"/>
  <path fill="#848688" d="M13178.46 7703.81c-442.95,442.96 -1054.88,716.94 -1730.79,716.94 -675.89,0 -1287.82,-273.98 -1730.78,-716.94 -442.96,-442.96 -716.94,-1054.9 -716.94,-1730.79 0,-675.89 273.98,-1287.83 716.94,-1730.78l252.77 252.77c-378.24,378.23 -612.19,900.8 -612.19,1478.01 0,457.98 147.29,881.53 397.06,1225.9l1.97 -1208.77c0,-124.48 100.91,-225.39 225.38,-225.39 59.77,0 114.1,23.28 154.44,61.25l0.24 -0.25 1103.76 1041.45 0 -1101.53 452.54 452.54 0 1172.83 -0.56 0c0.01,55.48 -20.3,111.08 -61.31,154.68 -85.43,90.79 -228.29,95.14 -319.08,9.72l-1105.49 -1043.09 -1.85 1141.19c347.43,257.43 777.48,409.7 1243.11,409.7 577.22,0 1099.78,-233.95 1478.02,-612.19l252.77 252.77z"/>
  <path fill="#5CC6D0" fill-rule="nonzero" d="M15499.74 4988.91l-718.13 0 0 1968.25 718.13 0c577.18,0 960.18,-393.66 960.18,-981.47 0,-593.12 -383.01,-986.79 -960.18,-986.79zm-10.63 1734.18l-422.9 0 0 -1500.11 422.9 0c406.93,0 678.23,300.56 678.23,752.71 0,446.86 -271.3,747.4 -678.23,747.4zm2856.03 234.07l-537.26 -816.56c244.7,-87.76 393.64,-287.24 393.64,-550.56 0,-361.75 -268.63,-601.14 -672.92,-601.14l-774 0 0 1968.25 284.6 0 0 -766.01 460.13 0 23.95 0 489.4 766.01 332.45 0zm-1305.94 -1734.18l454.82 0c247.37,0 412.27,146.29 412.27,367.06 0,220.75 -170.24,367.04 -428.24,367.04l-438.85 0 0 -734.1zm1600.62 1760.78c103.72,0 186.19,-85.11 186.19,-188.83 0,-101.08 -82.46,-186.19 -186.19,-186.19 -101.08,0 -186.19,85.11 -186.19,186.19 0,103.72 85.11,188.83 186.19,188.83zm494.18 -26.6l284.6 0 -5.31 -1484.16 1305.06 1484.16 178.65 0 0 -1968.25 -285.05 0 7.98 1484.17 -1307.73 -1484.17 -178.2 0 0 1968.25zm2991.69 -1994.85c-500.03,0 -832.51,297.9 -832.51,747.43l0 1247.42 281.93 0 0 -625.06 1101.16 0 0 625.06 281.93 0 0 -1247.42c0,-449.52 -332.46,-747.43 -832.51,-747.43zm-550.58 1133.08l0 -372.35c0,-313.86 220.77,-526.65 553.25,-526.65 327.14,0 547.91,212.79 547.91,526.65l0 372.35 -1101.16 0zm2861.37 -172.89c183.52,-87.76 292.58,-234.05 292.58,-425.55 0,-305.88 -236.71,-508.04 -593.12,-508.04l-781.98 0 0 1968.25 813.89 0c396.3,0 659.62,-223.42 659.62,-558.56 0,-234.05 -148.94,-406.93 -390.99,-476.1zm-797.92 -699.51l430.89 0c218.1,0 367.04,122.36 367.04,303.21 0,180.87 -146.29,303.21 -364.39,303.21l-433.53 0 0 -606.42zm508.01 1500.11l-508.01 0 0 -659.62 510.68 0c228.73,0 383.01,132.99 383.01,329.81 0,196.82 -154.27,329.81 -385.67,329.81zm967.63 234.07l284.6 0 0 -1968.25 -284.6 0 0 1968.25zm986.24 -234.07l0 -1734.18 -284.6 0 0 1968.25 1183.6 0 0 -234.07 -899.01 0z"/>
  <path fill="#5CC6D0" fill-rule="nonzero" d="M15026.83 3889.29l-207.74 0 0 541.27 78.26 0 0 -196.77 127.28 0c111.19,0 185.05,-70.2 185.05,-174.8 0,-101.67 -73.16,-169.7 -182.86,-169.7zm-9.52 280.13l-119.96 0 0 -215.76 119.96 0c67.3,0 111.19,43.16 111.19,107.53 0,65.1 -42.42,108.24 -111.19,108.24zm548.17 268.46c165.31,0 276.49,-111.19 276.49,-277.96 0,-166.77 -111.19,-277.96 -276.49,-277.96 -166.04,0 -277.23,111.19 -277.23,277.96 0,166.77 111.19,277.96 277.23,277.96zm0 -64.37c-117.76,0 -196.04,-85.58 -196.04,-213.59 0,-128.01 78.28,-213.59 196.04,-213.59 117.02,0 196.04,85.58 196.04,213.59 0,128.01 -79.02,213.59 -196.04,213.59zm480.87 -7.32l0 -476.9 -78.26 0 0 541.27 325.49 0 0 -64.37 -247.23 0zm610.34 -476.9l-152.15 261.85 -152.15 -261.85 -84.09 0 196.75 331.34 0 209.93 78.26 0 0 -209.93 196.77 -331.34 -83.39 0zm398.96 548.59c96.54,0 174.09,-39.5 224.55,-106.79l-53.39 -48.28c-36.59,54.85 -92.9,90.71 -170.43,90.71 -119.23,0 -199.71,-86.31 -199.71,-215.05 0,-127.27 79.75,-212.12 200.44,-212.12 69.5,0 122.88,30.73 157.25,73.16l49.02 -49.75c-51.21,-56.31 -119.95,-87.78 -208.46,-87.78 -167.51,0 -279.43,110.46 -279.43,276.49 0,167.5 112.65,279.42 280.16,279.42zm412.11 -71.69l0 -476.9 -78.26 0 0 541.27 325.49 0 0 -64.37 -247.23 0zm349.23 64.37l78.26 0 0 -541.27 -78.26 0 0 541.27zm238.77 0l78.26 0 -1.46 -408.14 358.89 408.14 49.13 0 0 -541.27 -78.38 0 2.2 408.14 -359.64 -408.14 -48.99 0 0 541.27zm645.44 0l78.26 0 0 -541.27 -78.26 0 0 541.27zm484.54 7.32c96.54,0 174.09,-39.5 224.55,-106.79l-53.39 -48.28c-36.59,54.85 -92.9,90.71 -170.43,90.71 -119.22,0 -199.7,-86.31 -199.7,-215.05 0,-127.27 79.75,-212.12 200.43,-212.12 69.5,0 122.88,30.73 157.25,73.16l49.02 -49.75c-51.21,-56.31 -119.95,-87.78 -208.46,-87.78 -167.5,0 -279.43,110.46 -279.43,276.49 0,167.5 112.66,279.42 280.16,279.42z"/>
  <g id="_3025350451760">
   <path fill="#5CC6D0" fill-rule="nonzero" d="M21476.17 7701.19l-55.7 314.55 -408.4 0 55.7 -314.55 -144.4 0 -135.1 763.18 144.38 0 57.76 -329.01 408.42 0 -57.76 329.01 145.42 0 135.09 -763.18 -145.42 0zm668.03 535.25c9.28,-28.87 17.55,-75.28 17.55,-109.32 0,-139.23 -89.74,-228.94 -240.31,-228.94 -187.7,0 -323.83,153.66 -323.83,343.42 0,142.35 93.85,233.1 246.47,233.1 100.04,0 192.87,-43.32 255.78,-117.59l-101.08 -61.87c-40.2,39.19 -92.81,69.09 -153.66,69.09 -68.08,0 -105.19,-41.24 -105.19,-109.32l0 -18.57 404.26 0zm-224.83 -227.93c62.93,0 101.08,39.19 101.08,113.46 0,6.19 0,12.38 -1.04,19.58l-260.93 0c26.83,-75.28 80.46,-133.04 160.89,-133.04zm754.67 -100.04l-18.57 87.66c-29.91,-60.85 -88.7,-97.96 -177.4,-97.96 -175.32,0 -311.45,157.79 -311.45,343.42 0,142.35 91.79,233.1 226.89,233.1 81.5,0 145.42,-30.94 192.87,-85.61l-11.34 75.28 136.13 0 99 -555.89 -136.13 0zm-231.02 445.53c-82.51,0 -133.04,-50.53 -133.04,-134.05 0,-104.17 75.28,-202.16 181.51,-202.16 82.51,0 132.02,49.51 132.02,136.13 0,10.32 -1.04,21.66 -3.09,34.04l0 2.06c-17.55,95.93 -89.74,163.98 -177.4,163.98zm350.36 110.36l140.27 0 142.32 -804.44 -140.27 0 -142.33 804.44zm434.98 -441.4l163.96 0 19.61 -114.5 -163.98 0 28.89 -162.94 -140.27 0 -95.93 548.67c-2.06,12.38 -3.09,25.8 -3.09,37.13 0,86.62 56.74,143.36 149.55,143.36 54.66,0 104.17,-9.28 138.21,-23.74l19.58 -117.57c-33,13.42 -67.04,20.62 -102.09,20.62 -38.17,0 -61.89,-20.62 -61.89,-57.76 0,-6.19 1.04,-14.43 3.09,-21.64l44.36 -251.64zm534.96 -124.79c-68.08,0 -132.02,22.68 -180.49,70.13l53.65 -308.38 -140.27 0 -141.28 804.44 140.24 0 57.76 -329.01 0 -2.06c12.38,-67.04 73.23,-115.51 149.55,-115.51 70.13,0 111.38,34.04 111.38,93.85 0,7.23 -2.06,16.51 -3.09,25.8l-57.76 326.93 140.27 0 60.85 -344.45c2.06,-15.47 4.13,-29.93 4.13,-44.36 0,-106.23 -74.27,-177.38 -194.93,-177.38z"/>
   <path fill="#848688" fill-rule="nonzero" d="M24838.73 7821.85l20.62 -120.66 -480.61 0 -135.09 763.18 144.38 0 54.66 -306.31 288.78 0 20.62 -119.64 -288.78 0 38.17 -216.57 337.25 0zm-44.62 642.52l144.38 0 135.12 -763.18 -144.4 0 -135.1 763.18zm948.54 -560c0,-122.74 -88.7,-203.17 -232.04,-203.17l-314.57 0 -135.09 763.18 144.38 0 49.51 -280.53 157.79 0 125.81 280.53 166.06 0 -145.42 -305.27c109.32,-41.27 183.57,-130.98 183.57,-254.74zm-423.87 -82.51l162.94 0c71.17,0 111.38,36.09 111.38,96.94 0,80.43 -60.85,144.38 -173.27,144.38l-143.34 0 42.28 -241.32zm673.18 652.84c179.46,0 326.93,-101.08 326.93,-252.68 0,-117.57 -106.23,-174.31 -208.32,-204.21l-42.28 -13.39c-66.02,-19.61 -114.5,-38.17 -114.5,-86.65 0,-61.87 72.21,-106.23 161.93,-106.23 69.09,0 125.83,19.61 174.31,64.98l73.2 -94.89c-61.87,-58.79 -143.34,-90.76 -245.46,-90.76 -178.42,0 -316.6,105.19 -316.6,260.93 0,103.13 81.47,150.57 187.7,182.55l42.28 13.39c81.47,24.76 136.13,47.46 136.13,97.98 0,68.08 -77.34,108.28 -172.23,108.28 -67.04,0 -137.17,-14.43 -198.02,-70.13l-64.96 91.79c58.77,62.91 151.61,99.02 259.89,99.02zm1007.34 -773.5l-610.56 0 -21.64 120.66 232.04 0 -113.46 642.52 145.44 0 113.43 -642.52 234.12 0 20.62 -120.66z"/>
  </g>
 </g>
</svg>
