<?xml version="1.0" encoding="UTF-8"?>
<!DOCTYPE svg PUBLIC "-//W3C//DTD SVG 1.1//EN" "http://www.w3.org/Graphics/SVG/1.1/DTD/svg11.dtd">
<!-- Creator: CorelDRAW 2020 (64-Bit) -->
<svg xmlns="http://www.w3.org/2000/svg" xml:space="preserve" width="24.0001in" height="8.00004in" version="1.1" shape-rendering="geometricPrecision" text-rendering="geometricPrecision" image-rendering="optimizeQuality" fill-rule="evenodd" clip-rule="evenodd"
viewBox="0 0 35999.87 11999.97"
 xmlns:xlink="http://www.w3.org/1999/xlink"
 xmlns:xodm="http://www.corel.com/coreldraw/odm/2003">
 <g id="Layer_x0020_1">
  <metadata id="CorelCorpID_0Corel-Layer"/>
  <rect fill="white" x="0" y="0.01" width="35999.87" height="11999.97"/>
  <polygon fill="#14E3B3" points="12129.64,7561.63 12014.26,7534.52 11933.19,7620.98 11923.32,7502.87 11816.05,7452.49 11925.32,7406.6 11940.09,7289.01 12017.5,7378.75 12133.9,7356.46 12072.47,7457.81 "/>
  <polygon fill="#114861" points="9007.79,6073.22 10303.76,5498.78 10257.54,4081.96 11204.34,5136.99 12537.55,4655.24 11826.73,5881.7 12696.89,7000.76 11310.81,6703.75 10515.37,7877.14 10369.54,6467.09 "/>
  <polygon fill="#14E3B3" points="9423.73,7109.53 10285.06,5965.05 9510.42,4760.18 10865.05,5225.68 11771.6,4116.65 11747.48,5548.82 13082.36,6068.26 11712.84,6487.91 11631.3,7917.98 10809,6745.15 "/>
  <polygon fill="#114861" points="11196.3,5695.36 11078.53,5996.43 10934.16,5683.96 10881.92,5683.96 10737.56,5996.43 10619.79,5695.36 10437.43,5695.36 10695.77,6333.6 10748.01,6333.6 10908.52,6005.93 11068.08,6333.6 11120.32,6333.6 11378.65,5695.36 "/>
  <polygon fill="#114861" points="11227.45,6071.46 11487.43,6071.46 11487.43,6322.2 11650.79,6322.2 11650.79,5695.36 11487.43,5695.36 11487.43,5924.25 11287.03,5924.25 11379.68,5695.36 11197.33,5695.36 11197.29,5695.44 11001.39,6194.54 11069.11,6333.6 11121.34,6333.6 "/>
  <polygon fill="#14E3B3" points="9460.38,5696.94 9238.1,5683.24 9115.3,5869.03 9059.64,5653.4 8845.01,5594.02 9032.89,5474.46 9023.03,5251.97 9194.8,5393.7 9403.35,5315.59 9321.63,5522.75 "/>
  <polygon fill="#114861" points="12207.67,4663.38 12150.77,4571.08 12042.39,4574.33 12112.59,4491.7 12076.01,4389.63 12176.29,4430.85 12262.06,4364.51 12253.85,4472.63 12343.44,4533.7 12238.08,4559.3 "/>
  <g id="_3025303251008">
   <path fill="#114861" fill-rule="nonzero" d="M14995.7 5399.02l-269.53 689.03 -330.38 -715.11 -119.55 0 -330.38 715.11 -269.5 -689.03 -417.33 0 591.21 1460.61 119.53 0 367.34 -749.85 365.15 749.85 119.55 0 591.19 -1460.61 -417.3 0zm554.88 1434.53l373.84 0 0 -1086.77 -373.84 0 0 1086.77zm-43.49 -1471.48c0,123.9 99.99,219.54 228.23,219.54 128.24,0 230.38,-97.82 230.38,-219.54 0,-123.9 -102.14,-221.69 -230.38,-221.69 -128.24,0 -228.23,97.79 -228.23,221.69zm1093.93 1158.49l449.93 -675.96 0 -97.82 -943.32 0 0 312.99 406.46 0 -456.45 675.96 0 97.82 995.48 0 0 -312.99 -452.11 0zm1556.9 -317.34c0,-312.99 -189.12,-482.52 -493.39,-482.52 -197.81,0 -345.59,69.57 -491.22,217.37l173.88 236.9c104.31,-93.45 173.88,-132.59 271.68,-132.59 113.03,0 165.19,54.35 165.19,139.11l0 17.39 -228.21 0c-263.01,0 -426.02,121.72 -426.02,323.86 0,182.57 136.94,336.9 373.86,336.9 128.22,0 232.56,-39.12 312.97,-115.2l0 89.13 341.27 0 0 -630.33zm-373.86 232.58c0,97.79 -69.54,158.67 -165.19,158.67 -69.54,0 -110.83,-32.62 -110.83,-84.78 0,-52.16 36.94,-82.58 99.97,-82.58l176.05 0 0 8.69zm1319.97 -689.03c-32.6,-10.87 -67.37,-17.39 -106.51,-17.39 -110.84,0 -206.48,47.83 -273.85,132.59l0 -115.2 -341.24 0 0 1086.77 373.84 0 0 -495.56c0,-182.57 86.93,-260.83 258.67,-260.83l89.1 0 0 -330.38zm872.21 -543.37l0 617.29c-71.72,-67.37 -163.01,-99.99 -278.19,-99.99 -299.95,0 -521.67,241.27 -521.67,571.65 0,330.38 217.37,567.28 521.67,567.28 139.09,0 243.42,-45.64 310.79,-139.11l0 113.03 341.24 0 0 -1630.15 -373.84 0zm6.52 1088.95c0,147.8 -95.62,228.21 -210.83,228.21 -119.55,0 -213,-84.76 -213,-230.38 0,-145.63 97.79,-230.41 213,-230.41 115.2,0 210.83,84.78 210.83,232.58z"/>
   <path fill="#14E3B3" fill-rule="nonzero" d="M20605.04 6833.55l373.85 0 0 -573.8 523.82 0 0 573.8 373.84 0 0 -1434.53 -373.84 0 0 523.84 -523.82 0 0 -523.84 -373.85 0 0 1434.53zm2537.14 -412.96c15.21,-58.7 23.91,-119.55 23.91,-184.77 0,-280.37 -206.48,-515.12 -519.47,-515.12 -323.86,0 -580.34,249.97 -580.34,569.48 0,321.68 256.49,569.45 610.77,569.45 158.67,0 304.3,-47.81 432.55,-145.63l-134.76 -254.29c-93.48,56.5 -186.93,84.76 -284.74,84.76 -121.72,0 -202.13,-41.29 -243.42,-123.87l695.53 0zm-708.57 -243.45c28.25,-104.34 104.31,-163.01 197.79,-163.01 97.79,0 178.23,65.2 180.4,163.01l-378.19 0zm1882.91 26.08c0,-312.99 -189.12,-482.52 -493.39,-482.52 -197.81,0 -345.59,69.57 -491.22,217.37l173.88 236.9c104.31,-93.45 173.88,-132.59 271.68,-132.59 113.03,0 165.19,54.35 165.19,139.11l0 17.39 -228.21 0c-263.01,0 -426.02,121.72 -426.02,323.86 0,182.57 136.94,336.9 373.86,336.9 128.22,0 232.56,-39.12 312.97,-115.2l0 89.13 341.27 0 0 -630.33zm-373.86 232.58c0,97.79 -69.54,158.67 -165.19,158.67 -69.54,0 -110.83,-32.62 -110.83,-84.78 0,-52.16 36.94,-82.58 99.97,-82.58l176.05 0 0 8.69zm598.37 397.75l373.85 0 0 -1630.15 -373.85 0 0 1630.15zm1233.02 -308.64c-136.91,0 -186.92,-39.12 -186.92,-143.46l0 -321.68 291.26 0 0 -312.99 -291.26 0 0 -260.81 -373.84 0 0 260.81 -165.19 0 0 312.99 165.19 0 0 358.65c0,293.41 171.71,441.21 478.18,441.21 73.89,0 147.8,-8.69 219.52,-26.08l0 -312.99 -136.94 4.35zm1380.85 -360.8c0,-265.18 -165.19,-443.41 -406.44,-443.41 -110.86,0 -206.5,34.8 -282.57,102.16l0 -619.46 -373.84 0 0 1630.15 373.84 0 0 -615.11c0,-95.62 63.02,-160.84 156.5,-160.84 93.45,0 158.67,65.22 158.67,160.84l0 615.11 373.85 0 0 -669.44z"/>
  </g>
 </g>
</svg>
