<?xml version="1.0" encoding="UTF-8"?>
<!DOCTYPE svg PUBLIC "-//W3C//DTD SVG 1.1//EN" "http://www.w3.org/Graphics/SVG/1.1/DTD/svg11.dtd">
<!-- Creator: CorelDRAW 2020 (64-Bit) -->
<svg xmlns="http://www.w3.org/2000/svg" xml:space="preserve" width="24.0001in" height="8.00004in" version="1.1" shape-rendering="geometricPrecision" text-rendering="geometricPrecision" image-rendering="optimizeQuality" fill-rule="evenodd" clip-rule="evenodd"
viewBox="0 0 35999.87 11999.97"
 xmlns:xlink="http://www.w3.org/1999/xlink"
 xmlns:xodm="http://www.corel.com/coreldraw/odm/2003">
 <g id="Layer_x0020_1">
  <metadata id="CorelCorpID_0Corel-Layer"/>
  <rect fill="white" x="0" y="0.01" width="35999.87" height="11999.97"/>
  <polygon fill="purple" points="14345.52,7543.07 13009.18,8314.6 11672.83,9086.13 10336.48,8314.59 9000.13,7543.05 9000.13,5999.98 9000.12,4456.91 10336.47,3685.39 11672.81,2913.85 13009.16,3685.39 14345.51,4456.93 14345.51,6000 "/>
  <path fill="purple" fill-rule="nonzero" d="M15702.35 4705.45l-607.44 0 0 1418.03 337.25 0 0 -450.3 252.94 0c320.01,0 530.81,-199.3 530.81,-496.32 0,-283.61 -205.04,-471.4 -513.56,-471.4zm-36.4 689.86l-233.79 0 0 -412 233.79 0c122.64,0 203.12,82.4 203.12,205.04 0,124.56 -72.83,206.95 -203.12,206.95zm1323.54 747.33c383.27,0 638.12,-228.02 638.12,-572.95l0 -864.24 -335.36 0 0 850.82c0,183.97 -122.62,308.53 -302.76,308.53 -183.95,0 -306.59,-124.56 -306.59,-308.53l0 -850.82 -335.36 0 0 864.24c0,344.93 256.77,572.95 641.95,572.95zm1741.26 -19.16l394.75 0 -360.26 -557.62c151.39,-78.57 243.38,-218.46 243.38,-396.66 0,-277.87 -203.13,-463.75 -507.81,-463.75l-632.36 0 0 1418.03 337.25 0 0 -490.56 226.11 0 298.93 490.56zm-525.04 -1140.16l258.68 0c118.82,0 197.38,74.74 197.38,185.89 0,111.14 -91.98,185.86 -228.05,185.86l-228.02 0 0 -371.74zm1649.31 -277.86l-607.44 0 0 1418.03 337.25 0 0 -450.3 252.94 0c320.01,0 530.81,-199.3 530.81,-496.32 0,-283.61 -205.04,-471.4 -513.56,-471.4zm-36.4 689.86l-233.79 0 0 -412 233.79 0c122.64,0 203.12,82.4 203.12,205.04 0,124.56 -72.83,206.95 -203.12,206.95zm1034.17 450.3l0 -1140.16 -337.25 0 0 1418.03 938.95 0 0 -277.86 -601.7 0zm1070.62 0l0 -300.85 605.52 0 0 -277.84 -605.52 0 0 -283.61 672.61 0 0 -277.86 -1009.88 0 0 1418.03 1025.21 0 0 -277.86 -687.94 0zm2183.92 277.86l402.42 0 -572.95 -728.17 544.2 -689.86 -402.42 0 -427.32 555.73 -53.65 0 0 -555.73 -337.25 0 0 1418.03 337.25 0 0 -584.45 61.32 0 448.39 584.45zm819.57 -277.86l0 -300.85 605.52 0 0 -277.84 -605.52 0 0 -283.61 672.61 0 0 -277.86 -1009.87 0 0 1418.03 1025.2 0 0 -277.86 -687.94 0zm1716.37 -1140.16l-306.61 624.71 -308.5 -624.71 -360.26 0 498.21 921.73 0 496.3 335.36 0 0 -496.3 498.22 -921.73 -356.41 0z"/>
  <path fill="#4D4D4D" fill-rule="nonzero" d="M18917.03 7129.71c107.13,0 193.19,-43.84 249.17,-118.52l-59.24 -53.57c-40.58,60.87 -103.09,100.66 -189.12,100.66 -132.31,0 -221.6,-95.79 -221.6,-238.63 0,-141.24 88.49,-235.39 222.4,-235.39 77.13,0 136.38,34.09 174.52,81.16l54.38 -55.18c-56.81,-62.5 -133.11,-97.42 -231.34,-97.42 -185.86,0 -310.06,122.57 -310.06,306.82 0,185.86 125.01,310.07 310.89,310.07zm545.13 -376.63l-1.63 -64.94 -79.56 0 0 433.44 82.79 0 0 -242.7c0,-73.87 60.07,-122.55 158.29,-122.55l5.67 -76.3c-75.47,0 -133.11,25.16 -165.57,73.04zm735.87 146.1c0,-131.48 -83.62,-219.14 -209.43,-219.14 -126.61,0 -210.21,90.9 -210.21,226.44 0,133.94 86.03,223.23 213.47,223.23 79.53,0 146.1,-34.91 186.68,-94.99l-63.31 -34.09c-30.05,38.98 -72.24,63.31 -124.2,63.31 -75.47,0 -116.88,-50.32 -124.98,-129.05l330.35 0c1.63,-9.73 1.63,-25.16 1.63,-35.72zm-209.43 -153.4c71.43,0 116.88,49.51 124.2,132.31l-246.75 0c7.3,-81.99 51.14,-132.31 122.55,-132.31zm778.93 -57.64l-1.63 79.56c-30.85,-53.57 -83.6,-87.66 -159.92,-87.66 -119.31,0 -207.78,90.9 -207.78,226.44 0,133.94 88.46,223.23 207.78,223.23 76.32,0 129.07,-34.11 159.92,-87.67l1.63 79.54 80.36 0 0 -433.44 -80.36 0zm-142.89 370.14c-84.4,0 -140.41,-60.88 -140.41,-152.6 0,-92.53 56.01,-154.23 140.41,-154.23 83.62,0 140.46,61.7 140.46,153.42 0,92.53 -56.83,153.41 -140.46,153.41zm625.54 0c-40.58,0 -68.2,-29.23 -68.2,-73.07l0 -228.87 142.87 0 0 -68.2 -142.87 0 0 -126.61 -82.77 0 0 440.74c0,76.3 49.51,127.45 124.18,127.45 39.78,0 77.1,-5.69 107.95,-19.49l0 -66.57c-26.79,10.56 -53.57,14.63 -81.16,14.63zm330.85 -460.23c29.22,0 51.14,-21.92 51.14,-51.94 0,-30.02 -21.92,-51.94 -51.14,-51.94 -30.02,0 -51.94,21.92 -51.94,51.94 0,30.02 21.92,51.94 51.94,51.94zm-41.39 523.54l82.79 0 0 -433.44 -82.79 0 0 433.44zm472.89 0l83.6 0 187.51 -433.44 -90.09 0 -139.63 338.48 -138.78 -338.48 -90.92 0 188.31 433.44zm855.21 -222.41c0,-131.48 -83.62,-219.14 -209.43,-219.14 -126.61,0 -210.21,90.9 -210.21,226.44 0,133.94 86.03,223.23 213.47,223.23 79.53,0 146.1,-34.91 186.68,-94.99l-63.31 -34.09c-30.05,38.98 -72.24,63.31 -124.2,63.31 -75.47,0 -116.88,-50.32 -124.98,-129.05l330.35 0c1.63,-9.73 1.63,-25.16 1.63,-35.72zm-209.43 -153.4c71.43,0 116.88,49.51 124.2,132.31l-246.75 0c7.3,-81.99 51.14,-132.31 122.55,-132.31zm907.96 -232.96c-152.57,0 -254.05,90.92 -254.05,228.09l0 380.67 86.05 0 0 -190.75 336.02 0 0 190.75 86.03 0 0 -380.67c0,-137.17 -101.46,-228.09 -254.05,-228.09zm-168 345.78l0 -113.64c0,-95.76 67.37,-160.7 168.83,-160.7 99.83,0 167.2,64.94 167.2,160.7l0 113.64 -336.02 0zm1030.5 -170.46l-1.63 79.56c-30.83,-53.57 -83.6,-87.66 -159.9,-87.66 -119.31,0 -207.78,89.27 -207.78,223.2 0,135.54 88.46,226.47 207.78,226.47 76.3,0 128.24,-33.28 159.09,-86.06l0 39.79c0,92.53 -66.57,153.4 -166.39,153.4 -67.37,0 -123.38,-17.03 -171.26,-50.31l-17.86 65.74c48.71,37.35 115.25,56.01 191.55,56.01 148.53,0 246.75,-88.46 246.75,-222.4l0 -397.73 -80.36 0zm-142.84 370.14c-84.42,0 -140.43,-61.71 -140.43,-154.23 0,-91.72 56.01,-152.6 140.43,-152.6 83.6,0 140.41,61.7 140.41,153.42 0,91.7 -56.81,153.41 -140.41,153.41zm871.44 -159.1c0,-131.48 -83.62,-219.14 -209.43,-219.14 -126.62,0 -210.22,90.9 -210.22,226.44 0,133.94 86.03,223.23 213.48,223.23 79.53,0 146.1,-34.91 186.68,-94.99l-63.31 -34.09c-30.05,38.98 -72.24,63.31 -124.2,63.31 -75.48,0 -116.89,-50.32 -124.99,-129.05l330.36 0c1.63,-9.73 1.63,-25.16 1.63,-35.72zm-209.43 -153.4c71.43,0 116.88,49.51 124.2,132.31l-246.76 0c7.3,-81.99 51.14,-132.31 122.56,-132.31zm666.89 -65.74c-66.57,0 -118.51,25.96 -149.34,72.24l-1.63 -64.13 -79.56 0 0 433.44 82.79 0 0 -258.12c0,-67.37 47.91,-112.01 120.14,-112.01 72.24,0 120.12,44.65 120.12,112.01l0 258.12 82.79 0 0 -272.72c0,-101.46 -70.61,-168.83 -175.32,-168.83zm623.9 449.67c63.31,0 120.12,-19.49 160.7,-58.44l-47.88 -56.01c-27.61,29.22 -65.76,43.02 -108.78,43.02 -86.03,0 -142.84,-61.71 -142.84,-153.41 0,-91.72 56.81,-153.42 142.04,-153.42 38.95,0 69,11.36 96.59,34.11l47.08 -56.83c-39.78,-30.83 -87.66,-48.68 -144.47,-48.68 -136.37,0 -227.27,90.09 -227.27,224.83 0,134.74 90.09,224.84 224.83,224.84zm678.24 -441.57l0 258.92c0,66.57 -45.45,111.22 -113.65,111.22 -68.17,0 -113.62,-44.65 -113.62,-111.22l0 -258.92 -82.79 0 0 272.74c0,101.46 67.37,168.83 168.83,168.83 62.5,0 111.19,-24.35 141.24,-68.2l0 21.92c0,92.53 -56.82,153.4 -142.87,153.4 -60.87,0 -110.39,-17.03 -153.4,-50.31l-17.86 65.74c44.65,37.35 103.89,56.01 173.69,56.01 133.94,0 223.23,-88.46 223.23,-222.4l0 -397.73 -82.79 0z"/>
  <path fill="white" d="M13267.29 7175.79l-43.51 -55.1 -803.84 0 42.27 55.1 805.08 0zm-76.85 -97.34l-43.5 -55.1 -801.67 0 42.27 55.1 802.9 0zm-76.85 -97.35l-43.5 -55.1 -799.49 0 42.27 55.1 800.72 0zm-76.85 -97.35l-43.51 -55.1 -797.32 0 42.27 55.1 798.55 0zm-76.85 -97.35l-43.51 -55.1 -795.13 0 42.27 55.1 796.37 0zm-76.85 -97.35l-43.5 -55.1 -792.96 0 42.27 55.1 794.19 0zm-76.85 -97.35l-43.5 -55.1 -790.78 0 42.27 55.1 792.01 0zm-76.85 -97.34l-43.51 -55.1 -788.6 0 42.27 55.1 789.83 0zm-76.85 -97.35l-43.5 -55.1 -786.43 0 42.27 55.1 787.65 0zm-76.85 -97.35l-43.5 -55.1 -784.15 0 1.61 2.23 40.56 52.88 785.48 0zm-76.85 -97.35l-43.5 -55.1 -777.6 0 39.8 55.1 781.31 0zm-76.85 -97.35l-43.51 -55.1 -771.05 0 39.79 55.1 774.77 0zm-76.85 -97.35l-38.72 -49.04 4.77 -6.06 -773.95 0 -0.05 0.08 39.74 55.02 768.22 0zm-0.74 -97.34l43.32 -55.1 -780.44 0 -39.64 55.1 776.76 0zm76.53 -97.35l43.31 -55.1 -786.91 0 -39.65 55.1 783.25 0zm76.53 -97.35l43.31 -55.1 -792.48 0 -13.59 17.62 -26.96 37.48 789.73 0zm76.52 -97.35l43.31 -55.1 -793.95 0 -42.48 55.1 793.12 0zm76.53 -97.35l43.31 -55.1 -795.43 0 -42.48 55.1 794.6 0zm76.52 -97.34l43.32 -55.1 -796.9 0 -42.48 55.1 796.06 0zm76.53 -97.35l43.32 -55.1 -798.38 0 -42.48 55.1 797.55 0zm76.52 -97.35l43.31 -55.1 -799.85 0 -42.48 55.1 799.02 0zm76.53 -97.35l43.31 -55.1 -801.33 0 -42.48 55.1 800.5 0zm76.52 -97.35l43.32 -55.1 -802.8 0 -42.48 55.1 801.96 0zm76.53 -97.35l43.31 -55.1 -804.28 0 -42.48 55.1 803.45 0zm76.52 -97.34l43.31 -55.1 -805.75 0 -42.48 55.1 804.92 0z"/>
  <path fill="white" d="M11290.88 4779.49l-1084.06 0 0 2423.59 674.61 0 0 -720.57 373.44 0c566.58,0 939.9,-350.4 939.9,-874.43 0,-497.84 -360.22,-828.6 -903.89,-828.6zm-68.74 1146.26l-340.71 0 0 -589.5 340.71 0c170.22,0 278.38,117.98 278.38,294.75 0,176.9 -95.06,294.75 -278.38,294.75z"/>
 </g>
</svg>
