<?xml version="1.0" encoding="UTF-8"?>
<!DOCTYPE svg PUBLIC "-//W3C//DTD SVG 1.1//EN" "http://www.w3.org/Graphics/SVG/1.1/DTD/svg11.dtd">
<!-- Creator: CorelDRAW 2020 (64-Bit) -->
<svg xmlns="http://www.w3.org/2000/svg" xml:space="preserve" width="24.0001in" height="8.00004in" version="1.1" shape-rendering="geometricPrecision" text-rendering="geometricPrecision" image-rendering="optimizeQuality" fill-rule="evenodd" clip-rule="evenodd"
viewBox="0 0 35999.87 11999.97"
 xmlns:xlink="http://www.w3.org/1999/xlink"
 xmlns:xodm="http://www.corel.com/coreldraw/odm/2003">
 <g id="Layer_x0020_1">
  <metadata id="CorelCorpID_0Corel-Layer"/>
  <rect fill="purple" x="0" y="-0" width="35999.87" height="11999.97"/>
  <path fill="white" fill-rule="nonzero" d="M15702.47 4705.5l-607.41 0 0 1417.98 337.25 0 0 -450.3 252.92 0c320.01,0 530.78,-199.27 530.78,-496.3 0,-283.59 -205.01,-471.38 -513.54,-471.38zm-36.4 689.84l-233.76 0 0 -411.99 233.76 0c122.64,0 203.12,82.39 203.12,205.04 0,124.56 -72.83,206.95 -203.12,206.95zm1323.52 747.3c383.22,0 638.07,-228.02 638.07,-572.93l0 -864.21 -335.34 0 0 850.8c0,183.94 -122.62,308.5 -302.74,308.5 -183.97,0 -306.59,-124.56 -306.59,-308.5l0 -850.8 -335.34 0 0 864.21c0,344.9 256.77,572.93 641.93,572.93zm1741.24 -19.16l394.75 0 -360.26 -557.62c151.39,-78.57 243.36,-218.43 243.36,-396.64 0,-277.87 -203.11,-463.73 -507.78,-463.73l-632.36 0 0 1417.98 337.25 0 0 -490.53 226.13 0 298.91 490.53zm-525.04 -1140.13l258.71 0c118.79,0 197.36,74.74 197.36,185.88 0,111.14 -91.98,185.86 -228.02,185.86l-228.05 0 0 -371.74zm1649.26 -277.85l-607.41 0 0 1417.98 337.25 0 0 -450.3 252.92 0c320.01,0 530.78,-199.27 530.78,-496.3 0,-283.59 -205.01,-471.38 -513.54,-471.38zm-36.4 689.84l-233.76 0 0 -411.99 233.76 0c122.64,0 203.12,82.39 203.12,205.04 0,124.56 -72.83,206.95 -203.12,206.95zm1034.17 450.3l0 -1140.14 -337.25 0 0 1417.98 938.93 0 0 -277.84 -601.68 0zm1070.57 0l0 -300.85 605.5 0 0 -277.84 -605.5 0 0 -283.6 672.56 0 0 -277.85 -1009.81 0 0 1417.98 1025.14 0 0 -277.84 -687.89 0zm2183.85 277.84l402.42 0 -572.95 -728.14 544.2 -689.84 -402.42 0 -427.3 555.69 -53.65 0 0 -555.69 -337.25 0 0 1417.98 337.25 0 0 -584.43 61.3 0 448.39 584.43zm819.59 -277.84l0 -300.85 605.5 0 0 -277.84 -605.5 0 0 -283.6 672.56 0 0 -277.85 -1009.82 0 0 1417.98 1025.15 0 0 -277.84 -687.89 0zm1716.32 -1140.14l-306.61 624.69 -308.5 -624.69 -360.23 0 498.21 921.68 0 496.3 335.34 0 0 -496.3 498.22 -921.68 -356.41 0z"/>
  <path fill="white" fill-rule="nonzero" d="M18917.18 7129.71c107.15,0 193.19,-43.84 249.19,-118.51l-59.27 -53.57c-40.58,60.87 -103.06,100.65 -189.1,100.65 -132.31,0 -221.6,-95.79 -221.6,-238.63 0,-141.24 88.46,-235.37 222.4,-235.37 77.11,0 136.35,34.09 174.5,81.16l54.38 -55.2c-56.81,-62.5 -133.11,-97.39 -231.31,-97.39 -185.88,0 -310.06,122.55 -310.06,306.8 0,185.89 125.01,310.07 310.86,310.07zm545.13 -376.61l-1.61 -64.94 -79.56 0 0 433.42 82.79 0 0 -242.7c0,-73.84 60.07,-122.55 158.27,-122.55l5.69 -76.3c-75.5,0 -133.11,25.16 -165.59,73.06zm735.87 146.08c0,-131.48 -83.6,-219.14 -209.41,-219.14 -126.61,0 -210.21,90.9 -210.21,226.46 0,133.92 86.03,223.21 213.47,223.21 79.53,0 146.08,-34.91 186.66,-94.98l-63.31 -34.09c-30.02,38.98 -72.24,63.31 -124.18,63.31 -75.47,0 -116.88,-50.31 -124.98,-129.05l330.33 0c1.63,-9.73 1.63,-25.16 1.63,-35.72zm-209.41 -153.4c71.43,0 116.88,49.51 124.18,132.31l-246.73 0c7.3,-81.97 51.12,-132.31 122.55,-132.31zm778.86 -57.61l-1.61 79.53c-30.85,-53.57 -83.62,-87.66 -159.9,-87.66 -119.31,0 -207.8,90.9 -207.8,226.46 0,133.92 88.49,223.21 207.8,223.21 76.28,0 129.05,-34.11 159.9,-87.66l1.61 79.53 80.36 0 0 -433.42 -80.36 0zm-142.84 370.11c-84.42,0 -140.41,-60.87 -140.41,-152.6 0,-92.53 55.98,-154.2 140.41,-154.2 83.6,0 140.41,61.68 140.41,153.4 0,92.53 -56.81,153.41 -140.41,153.41zm625.49 0c-40.58,0 -68.2,-29.22 -68.2,-73.04l0 -228.9 142.87 0 0 -68.17 -142.87 0 0 -126.61 -82.77 0 0 440.72c0,76.3 49.51,127.44 124.18,127.44 39.76,0 77.1,-5.69 107.95,-19.49l0 -66.57c-26.79,10.56 -53.57,14.62 -81.16,14.62zm330.82 -460.21c29.22,0 51.14,-21.92 51.14,-51.94 0,-30.05 -21.92,-51.94 -51.14,-51.94 -30.02,0 -51.94,21.9 -51.94,51.94 0,30.02 21.92,51.94 51.94,51.94zm-41.39 523.51l82.77 0 0 -433.42 -82.77 0 0 433.42zm472.89 0l83.6 0 187.49 -433.42 -90.09 0 -139.61 338.46 -138.78 -338.46 -90.92 0 188.31 433.42zm855.16 -222.41c0,-131.48 -83.6,-219.14 -209.41,-219.14 -126.61,0 -210.21,90.9 -210.21,226.46 0,133.92 86.03,223.21 213.47,223.21 79.53,0 146.08,-34.91 186.66,-94.98l-63.31 -34.09c-30.02,38.98 -72.24,63.31 -124.18,63.31 -75.47,0 -116.88,-50.31 -124.98,-129.05l330.33 0c1.63,-9.73 1.63,-25.16 1.63,-35.72zm-209.41 -153.4c71.43,0 116.88,49.51 124.18,132.31l-246.73 0c7.3,-81.97 51.12,-132.31 122.55,-132.31zm907.94 -232.94c-152.6,0 -254.05,90.9 -254.05,228.07l0 380.67 86.03 0 0 -190.75 336.04 0 0 190.75 86.03 0 0 -380.67c0,-137.17 -101.46,-228.07 -254.05,-228.07zm-168.02 345.75l0 -113.62c0,-95.79 67.37,-160.7 168.83,-160.7 99.85,0 167.22,64.91 167.22,160.7l0 113.62 -336.04 0zm1030.53 -170.43l-1.63 79.53c-30.85,-53.57 -83.6,-87.66 -159.9,-87.66 -119.31,0 -207.8,89.29 -207.8,223.2 0,135.55 88.49,226.47 207.8,226.47 76.3,0 128.24,-33.28 159.09,-86.05l0 39.78c0,92.53 -66.57,153.4 -166.39,153.4 -67.37,0 -123.38,-17.03 -171.28,-50.31l-17.86 65.74c48.71,37.35 115.27,56.01 191.57,56.01 148.53,0 246.73,-88.46 246.73,-222.4l0 -397.7 -80.34 0zm-142.87 370.11c-84.4,0 -140.41,-61.68 -140.41,-154.21 0,-91.72 56.01,-152.6 140.41,-152.6 83.6,0 140.43,61.68 140.43,153.4 0,91.73 -56.83,153.41 -140.43,153.41zm871.42 -159.1c0,-131.48 -83.6,-219.14 -209.41,-219.14 -126.62,0 -210.22,90.9 -210.22,226.46 0,133.92 86.03,223.21 213.48,223.21 79.53,0 146.08,-34.91 186.66,-94.98l-63.31 -34.09c-30.02,38.98 -72.24,63.31 -124.18,63.31 -75.48,0 -116.89,-50.31 -124.99,-129.05l330.33 0c1.63,-9.73 1.63,-25.16 1.63,-35.72zm-209.41 -153.4c71.43,0 116.88,49.51 124.18,132.31l-246.74 0c7.3,-81.97 51.12,-132.31 122.56,-132.31zm666.87 -65.74c-66.57,0 -118.51,25.98 -149.36,72.24l-1.61 -64.11 -79.56 0 0 433.42 82.79 0 0 -258.1c0,-67.37 47.88,-112.01 120.12,-112.01 72.24,0 120.14,44.65 120.14,112.01l0 258.1 82.77 0 0 -272.72c0,-101.46 -70.61,-168.83 -175.3,-168.83zm623.83 449.67c63.31,0 120.12,-19.49 160.7,-58.44l-47.88 -56.01c-27.59,29.22 -65.74,43.02 -108.76,43.02 -86.03,0 -142.84,-61.68 -142.84,-153.41 0,-91.72 56.81,-153.4 142.04,-153.4 38.95,0 68.98,11.36 96.57,34.09l47.08 -56.81c-39.76,-30.85 -87.66,-48.71 -144.47,-48.71 -136.35,0 -227.27,90.09 -227.27,224.83 0,134.75 90.09,224.84 224.83,224.84zm678.24 -441.55l0 258.93c0,66.54 -45.45,111.19 -113.63,111.19 -68.17,0 -113.62,-44.65 -113.62,-111.19l0 -258.93 -82.79 0 0 272.72c0,101.46 67.37,168.83 168.83,168.83 62.48,0 111.19,-24.35 141.22,-68.2l0 21.92c0,92.53 -56.82,153.4 -142.85,153.4 -60.87,0 -110.39,-17.03 -153.4,-50.31l-17.86 65.74c44.65,37.35 103.89,56.01 173.69,56.01 133.92,0 223.21,-88.46 223.21,-222.4l0 -397.7 -82.79 0z"/>
  <polygon fill="white" points="14345.65,7543.08 13009.3,8314.62 11672.95,9086.15 10336.6,8314.61 9000.24,7543.07 9000.23,5999.99 9000.23,4456.91 10336.58,3685.37 11672.93,2913.84 13009.29,3685.39 14345.64,4456.92 14345.65,6000 "/>
  <path fill="purple" d="M13267.42 7175.8l-43.5 -55.1 -803.85 0 42.27 55.1 805.08 0zm-76.84 -97.35l-43.51 -55.1 -801.67 0 42.27 55.1 802.91 0zm-76.85 -97.35l-43.51 -55.1 -799.49 0 42.27 55.1 800.73 0zm-76.85 -97.35l-43.5 -55.1 -797.32 0 42.27 55.1 798.55 0zm-76.85 -97.35l-43.5 -55.1 -795.14 0 42.27 55.1 796.37 0zm-76.85 -97.34l-43.51 -55.1 -792.96 0 42.27 55.1 794.2 0zm-76.85 -97.35l-43.51 -55.1 -790.78 0 42.27 55.1 792.02 0zm-76.85 -97.35l-43.5 -55.1 -788.61 0 42.27 55.1 789.84 0zm-76.85 -97.35l-43.5 -55.1 -786.43 0 42.27 55.1 787.66 0zm-76.85 -97.35l-43.5 -55.1 -784.16 0 1.61 2.23 40.56 52.88 785.49 0zm-76.85 -97.35l-43.51 -55.1 -777.61 0 39.8 55.1 781.32 0zm-76.85 -97.35l-43.51 -55.1 -771.06 0 39.8 55.1 774.77 0zm-76.85 -97.35l-38.72 -49.04 4.77 -6.06 -773.96 0 -0.05 0.07 39.74 55.03 768.22 0zm-0.74 -97.35l43.32 -55.1 -780.44 0 -39.65 55.1 776.77 0zm76.53 -97.35l43.31 -55.1 -786.92 0 -39.64 55.1 783.25 0zm76.53 -97.35l43.31 -55.1 -792.49 0 -13.58 17.62 -26.97 37.48 789.73 0zm76.52 -97.34l43.32 -55.1 -793.96 0 -42.48 55.1 793.12 0zm76.53 -97.35l43.31 -55.1 -795.43 0 -42.48 55.1 794.6 0zm76.52 -97.35l43.31 -55.1 -796.9 0 -42.48 55.1 796.08 0zm76.53 -97.35l43.31 -55.1 -798.38 0 -42.48 55.1 797.56 0zm76.52 -97.35l43.32 -55.1 -799.85 0 -42.48 55.1 799.02 0zm76.53 -97.35l43.31 -55.1 -801.33 0 -42.48 55.1 800.5 0zm76.52 -97.35l43.31 -55.1 -802.8 0 -42.48 55.1 801.97 0zm76.53 -97.35l43.31 -55.1 -804.28 0 -42.48 55.1 803.45 0zm76.52 -97.35l43.32 -55.1 -805.75 0 -42.48 55.1 804.92 0z"/>
  <path fill="purple" d="M11291.01 4779.49l-1084.07 0 0 2423.6 674.62 0 0 -720.57 373.44 0c566.59,0 939.9,-350.4 939.9,-874.43 0,-497.84 -360.22,-828.6 -903.89,-828.6zm-68.75 1146.26l-340.71 0 0 -589.5 340.71 0c170.23,0 278.38,117.98 278.38,294.75 0,176.9 -95.07,294.75 -278.38,294.75z"/>
 </g>
</svg>
