<?xml version="1.0" encoding="UTF-8"?>
<!DOCTYPE svg PUBLIC "-//W3C//DTD SVG 1.1//EN" "http://www.w3.org/Graphics/SVG/1.1/DTD/svg11.dtd">
<!-- Creator: CorelDRAW 2020 (64-Bit) -->
<svg xmlns="http://www.w3.org/2000/svg" xml:space="preserve" width="8.00002in" height="8.00007in" version="1.1" shape-rendering="geometricPrecision" text-rendering="geometricPrecision" image-rendering="optimizeQuality" fill-rule="evenodd" clip-rule="evenodd"
viewBox="0 0 2000.01 2000.02"
 xmlns:xlink="http://www.w3.org/1999/xlink"
 xmlns:xodm="http://www.corel.com/coreldraw/odm/2003">
 <g id="Layer_x0020_1">
  <metadata id="CorelCorpID_0Corel-Layer"/>
  <rect fill="white" x="0" y="0" width="2000.01" height="2000.02"/>
  <path fill="#5CC6D0" d="M1000 666.67c92.05,0 175.38,37.31 235.7,97.63 60.32,60.32 97.63,143.66 97.63,235.7 0,92.05 -37.31,175.38 -97.63,235.7l-34.42 -34.42c51.51,-51.51 83.37,-122.67 83.37,-201.28 0,-62.3 -20.01,-119.92 -53.96,-166.79l0 170.75 -0 0c0,7.88 -3.01,15.77 -9.02,21.79 -12.03,12.03 -31.54,12.03 -43.57,0l-144.7 -144.7 0 152.34 -61.63 -61.63 0 -165.1c0,-17.02 13.8,-30.81 30.81,-30.81 8.62,0 16.4,3.54 22,9.24l144.49 144.49 0 -158.6c-47.27,-34.95 -105.75,-55.62 -169.06,-55.62 -78.61,0 -149.77,31.86 -201.28,83.37l-34.42 -34.42c60.32,-60.32 143.66,-97.64 235.7,-97.64z"/>
  <path fill="#848688" d="M1235.7 1235.71c-60.32,60.32 -143.66,97.63 -235.7,97.63 -92.04,0 -175.38,-37.31 -235.7,-97.63 -60.32,-60.32 -97.63,-143.66 -97.63,-235.7 0,-92.04 37.31,-175.38 97.63,-235.7l34.42 34.42c-51.51,51.51 -83.37,122.67 -83.37,201.28 0,62.37 20.06,120.05 54.07,166.95l0.27 -164.61c0,-16.95 13.74,-30.69 30.69,-30.69 8.14,0 15.54,3.17 21.03,8.34l0.03 -0.03 150.31 141.83 0 -150.01 61.63 61.63 0 159.72 -0.08 0c0,7.56 -2.76,15.13 -8.35,21.07 -11.63,12.36 -31.09,12.96 -43.45,1.32l-150.55 -142.05 -0.25 155.41c47.31,35.06 105.88,55.79 169.29,55.79 78.61,0 149.77,-31.86 201.28,-83.37l34.42 34.42z"/>
 </g>
</svg>
