<?xml version="1.0" encoding="UTF-8"?>
<!DOCTYPE svg PUBLIC "-//W3C//DTD SVG 1.1//EN" "http://www.w3.org/Graphics/SVG/1.1/DTD/svg11.dtd">
<!-- Creator: CorelDRAW 2020 (64-Bit) -->
<svg xmlns="http://www.w3.org/2000/svg" xml:space="preserve" width="8.00002in" height="7.99998in" version="1.1" shape-rendering="geometricPrecision" text-rendering="geometricPrecision" image-rendering="optimizeQuality" fill-rule="evenodd" clip-rule="evenodd"
viewBox="0 0 2000.01 2000"
 xmlns:xlink="http://www.w3.org/1999/xlink"
 xmlns:xodm="http://www.corel.com/coreldraw/odm/2003">
 <g id="Layer_x0020_1">
  <metadata id="CorelCorpID_0Corel-Layer"/>
  <rect fill="purple" x="-0" y="-0" width="2000.01" height="2000"/>
  <polygon fill="white" points="1288.68,1166.67 1144.34,1250 1000.01,1333.34 855.67,1250 711.33,1166.67 711.33,1000 711.33,833.33 855.66,750 1000,666.67 1144.34,750 1288.68,833.33 1288.68,1000 "/>
  <path fill="purple" d="M1172.22 1127l-4.7 -5.95 -86.82 0 4.57 5.95 86.96 0zm-8.3 -10.51l-4.7 -5.95 -86.59 0 4.57 5.95 86.72 0zm-8.3 -10.51l-4.7 -5.95 -86.35 0 4.57 5.95 86.49 0zm-8.3 -10.51l-4.7 -5.95 -86.12 0 4.57 5.95 86.25 0zm-8.3 -10.51l-4.7 -5.95 -85.88 0 4.57 5.95 86.02 0zm-8.3 -10.51l-4.7 -5.95 -85.65 0 4.56 5.95 85.78 0zm-8.3 -10.51l-4.7 -5.95 -85.41 0 4.57 5.95 85.55 0zm-8.3 -10.51l-4.7 -5.95 -85.18 0 4.57 5.95 85.31 0zm-8.3 -10.51l-4.7 -5.95 -84.94 0 4.56 5.95 85.08 0zm-8.3 -10.51l-4.7 -5.95 -84.7 0 0.17 0.24 4.38 5.71 84.84 0zm-8.3 -10.51l-4.7 -5.95 -83.99 0 4.3 5.95 84.39 0zm-8.3 -10.51l-4.7 -5.95 -83.28 0 4.3 5.95 83.68 0zm-8.3 -10.51l-4.18 -5.3 0.51 -0.65 -83.59 0 -0.01 0.01 4.29 5.94 82.98 0zm-0.08 -10.51l4.68 -5.95 -84.3 0 -4.28 5.95 83.9 0zm8.27 -10.51l4.68 -5.95 -84.99 0 -4.28 5.95 84.6 0zm8.27 -10.51l4.68 -5.95 -85.6 0 -1.47 1.9 -2.91 4.05 85.3 0zm8.26 -10.51l4.68 -5.95 -85.76 0 -4.59 5.95 85.66 0zm8.27 -10.51l4.68 -5.95 -85.92 0 -4.59 5.95 85.83 0zm8.27 -10.51l4.68 -5.95 -86.07 0 -4.59 5.95 85.98 0zm8.27 -10.51l4.68 -5.95 -86.23 0 -4.59 5.95 86.14 0zm8.26 -10.51l4.68 -5.95 -86.39 0 -4.59 5.95 86.3 0zm8.27 -10.51l4.68 -5.95 -86.55 0 -4.59 5.95 86.46 0zm8.26 -10.51l4.68 -5.95 -86.71 0 -4.59 5.95 86.62 0zm8.27 -10.51l4.68 -5.95 -86.87 0 -4.59 5.95 86.78 0zm8.27 -10.51l4.68 -5.95 -87.03 0 -4.59 5.95 86.94 0z"/>
  <path fill="purple" d="M958.75 868.17l-117.09 0 0 261.77 72.87 0 0 -77.83 40.34 0c61.2,0 101.52,-37.85 101.52,-94.45 0,-53.77 -38.91,-89.5 -97.63,-89.5zm-7.43 123.81l-36.8 0 0 -63.67 36.8 0c18.39,0 30.07,12.74 30.07,31.84 0,19.11 -10.27,31.84 -30.07,31.84z"/>
 </g>
</svg>
