<?xml version="1.0" encoding="UTF-8"?>
<!DOCTYPE svg PUBLIC "-//W3C//DTD SVG 1.1//EN" "http://www.w3.org/Graphics/SVG/1.1/DTD/svg11.dtd">
<!-- Creator: CorelDRAW 2020 (64-Bit) -->
<svg xmlns="http://www.w3.org/2000/svg" xml:space="preserve" width="8.00002in" height="7.99998in" version="1.1" shape-rendering="geometricPrecision" text-rendering="geometricPrecision" image-rendering="optimizeQuality" fill-rule="evenodd" clip-rule="evenodd"
viewBox="0 0 2000.01 2000"
 xmlns:xlink="http://www.w3.org/1999/xlink"
 xmlns:xodm="http://www.corel.com/coreldraw/odm/2003">
 <g id="Layer_x0020_1">
  <metadata id="CorelCorpID_0Corel-Layer"/>
  <rect fill="#212832" x="-0" y="-0" width="2000.01" height="2000"/>
  <path fill="#00ADB4" fill-rule="nonzero" d="M689.79 1269.05c-8.15,0 -15.97,3.28 -23.12,8.74l5.13 9.92c5.21,-4.54 11.18,-7.4 16.06,-7.4 4.87,0 7.73,2.19 7.73,5.89 0,2.85 -2.52,6.98 -6.14,10.67l-21.26 22.53 0 9.08 43.29 0 0 -11.09 -26.06 0 13.03 -13.62c6.39,-6.56 11.01,-13.2 11.01,-19.5 0,-9.24 -8.15,-15.21 -19.67,-15.21zm48.08 60.02c16.22,0 26.65,-12.19 26.65,-30.94 0,-18.07 -9.5,-29.08 -24.96,-29.08 -13.03,0 -21.52,7.74 -21.52,20.18 0,11.43 7.23,19 18.91,19 6.81,0 11.85,-2.61 14.71,-6.89 0.26,10.42 -4.54,17.07 -14.63,17.07 -4.54,0 -9.08,-1.35 -12.61,-3.78l-5.04 9.75c4.87,2.85 12.19,4.7 18.49,4.7zm1.94 -31.02c-5.97,0 -9.42,-3.28 -9.42,-8.74 0,-5.89 3.78,-9.17 9.75,-9.17 6.81,0 10.01,4.37 9.93,8.91 0.08,5.04 -3.7,9 -10.26,9zm92.69 -17.73l0 48.16 -5.65 0 -28.89 -35.91 0 35.91 -6.88 0 0 -48.16 5.64 0 28.9 35.91 0 -35.91 6.88 0zm29.48 48.57c-3.62,0 -6.88,-0.8 -9.77,-2.41 -2.89,-1.61 -5.15,-3.82 -6.78,-6.64 -1.63,-2.82 -2.44,-6.02 -2.44,-9.59 0,-3.58 0.81,-6.78 2.44,-9.6 1.63,-2.82 3.89,-5.02 6.78,-6.6 2.89,-1.59 6.15,-2.38 9.77,-2.38 3.63,0 6.87,0.79 9.73,2.38 2.87,1.58 5.11,3.78 6.74,6.6 1.63,2.82 2.44,6.02 2.44,9.6 0,3.57 -0.81,6.78 -2.44,9.59 -1.63,2.82 -3.87,5.04 -6.74,6.64 -2.86,1.61 -6.11,2.41 -9.73,2.41zm0 -5.78c2.34,0 4.44,-0.54 6.3,-1.61 1.86,-1.08 3.31,-2.59 4.37,-4.54 1.05,-1.95 1.58,-4.18 1.58,-6.7 0,-2.53 -0.53,-4.76 -1.58,-6.71 -1.06,-1.95 -2.51,-3.45 -4.37,-4.51 -1.86,-1.06 -3.96,-1.58 -6.3,-1.58 -2.34,0 -4.44,0.52 -6.3,1.58 -1.85,1.06 -3.32,2.56 -4.41,4.51 -1.07,1.95 -1.61,4.18 -1.61,6.71 0,2.52 0.54,4.76 1.61,6.7 1.08,1.95 2.55,3.46 4.41,4.54 1.86,1.07 3.96,1.61 6.3,1.61zm59.69 -31.1l-15.96 36.46 -6.74 0 -15.96 -36.46 6.88 0 12.52 29.24 12.8 -29.24 6.47 0zm38.5 18.44c0,0.5 -0.05,1.17 -0.14,1.99l-29.59 0c0.42,3.21 1.83,5.8 4.24,7.74 2.41,1.95 5.4,2.92 8.98,2.92 4.36,0 7.87,-1.46 10.53,-4.4l3.64 4.27c-1.65,1.93 -3.7,3.39 -6.15,4.4 -2.45,1.01 -5.2,1.52 -8.22,1.52 -3.85,0 -7.27,-0.8 -10.25,-2.38 -2.98,-1.58 -5.29,-3.8 -6.92,-6.64 -1.63,-2.85 -2.44,-6.06 -2.44,-9.63 0,-3.53 0.79,-6.72 2.37,-9.57 1.58,-2.84 3.76,-5.06 6.54,-6.63 2.78,-1.59 5.91,-2.38 9.39,-2.38 3.49,0 6.6,0.79 9.32,2.38 2.73,1.58 4.86,3.79 6.4,6.63 1.54,2.85 2.3,6.1 2.3,9.77zm-18.03 -13.21c-3.16,0 -5.81,0.96 -7.94,2.89 -2.13,1.93 -3.38,4.45 -3.75,7.57l23.4 0c-0.37,-3.07 -1.62,-5.58 -3.75,-7.54 -2.13,-1.95 -4.78,-2.92 -7.95,-2.92zm73.17 -5.57c4.59,0 8.22,1.33 10.91,3.99 2.68,2.66 4.02,6.61 4.02,11.83l0 20.98 -6.6 0 0 -20.22c0,-3.53 -0.81,-6.19 -2.44,-7.98 -1.63,-1.79 -3.96,-2.69 -6.98,-2.69 -3.35,0 -6.01,1.05 -7.98,3.13 -1.97,2.09 -2.96,5.08 -2.96,8.98l0 18.78 -6.6 0 0 -20.22c0,-3.53 -0.81,-6.19 -2.44,-7.98 -1.63,-1.79 -3.96,-2.69 -6.98,-2.69 -3.35,0 -6.01,1.05 -7.98,3.13 -1.97,2.09 -2.96,5.08 -2.96,8.98l0 18.78 -6.61 0 0 -36.46 6.33 0 0 5.44c1.33,-1.89 3.07,-3.31 5.23,-4.3 2.15,-0.99 4.61,-1.48 7.36,-1.48 2.85,0 5.37,0.57 7.57,1.72 2.2,1.15 3.9,2.82 5.09,5.02 1.37,-2.11 3.29,-3.76 5.74,-4.95 2.45,-1.19 5.22,-1.79 8.29,-1.79zm46.82 0c3.53,0 6.69,0.78 9.49,2.34 2.8,1.56 4.99,3.74 6.57,6.54 1.59,2.8 2.37,6.04 2.37,9.7 0,3.67 -0.79,6.91 -2.37,9.73 -1.58,2.82 -3.77,5.01 -6.57,6.57 -2.8,1.56 -5.96,2.34 -9.49,2.34 -2.71,0 -5.19,-0.53 -7.43,-1.59 -2.25,-1.06 -4.11,-2.59 -5.57,-4.61l0 5.78 -6.33 0 0 -51.05 6.6 0 0 20.09c1.47,-1.93 3.3,-3.38 5.5,-4.37 2.2,-0.99 4.61,-1.48 7.22,-1.48zm-0.55 31.44c2.34,0 4.44,-0.54 6.3,-1.61 1.86,-1.08 3.33,-2.59 4.4,-4.54 1.08,-1.95 1.62,-4.18 1.62,-6.7 0,-2.53 -0.54,-4.76 -1.62,-6.71 -1.07,-1.95 -2.54,-3.45 -4.4,-4.51 -1.86,-1.06 -3.96,-1.58 -6.3,-1.58 -2.29,0 -4.38,0.52 -6.26,1.58 -1.88,1.06 -3.35,2.56 -4.41,4.51 -1.06,1.95 -1.58,4.18 -1.58,6.71 0,2.52 0.53,4.76 1.58,6.7 1.06,1.95 2.52,3.46 4.41,4.54 1.88,1.07 3.97,1.61 6.26,1.61zm61.47 -12.66c0,0.5 -0.05,1.17 -0.14,1.99l-29.58 0c0.41,3.21 1.82,5.8 4.23,7.74 2.41,1.95 5.4,2.92 8.98,2.92 4.35,0 7.86,-1.46 10.52,-4.4l3.65 4.27c-1.65,1.93 -3.7,3.39 -6.16,4.4 -2.45,1.01 -5.19,1.52 -8.22,1.52 -3.85,0 -7.27,-0.8 -10.25,-2.38 -2.98,-1.58 -5.29,-3.8 -6.92,-6.64 -1.63,-2.85 -2.44,-6.06 -2.44,-9.63 0,-3.53 0.79,-6.72 2.37,-9.57 1.59,-2.84 3.76,-5.06 6.54,-6.63 2.78,-1.59 5.91,-2.38 9.39,-2.38 3.49,0 6.59,0.79 9.32,2.38 2.73,1.58 4.87,3.79 6.4,6.63 1.54,2.85 2.3,6.1 2.3,9.77zm-18.02 -13.21c-3.17,0 -5.81,0.96 -7.94,2.89 -2.13,1.93 -3.39,4.45 -3.75,7.57l23.39 0c-0.37,-3.07 -1.62,-5.58 -3.75,-7.54 -2.13,-1.95 -4.78,-2.92 -7.95,-2.92zm33.89 0.89c1.15,-2.11 2.85,-3.71 5.09,-4.81 2.25,-1.1 4.98,-1.65 8.19,-1.65l0 6.4c-0.37,-0.05 -0.87,-0.07 -1.52,-0.07 -3.57,0 -6.39,1.06 -8.43,3.2 -2.04,2.13 -3.06,5.17 -3.06,9.12l0 18.16 -6.6 0 0 -36.46 6.33 0 0 6.13zm68.82 24.35l0 5.98 -34.61 0 0 -4.68 19.61 -18.92c2.39,-2.29 3.99,-4.28 4.82,-5.95 0.83,-1.67 1.24,-3.36 1.24,-5.06 0,-2.52 -0.88,-4.48 -2.65,-5.88 -1.76,-1.4 -4.3,-2.1 -7.6,-2.1 -5.32,0 -9.43,1.74 -12.32,5.23l-4.68 -4.06c1.88,-2.29 4.35,-4.08 7.4,-5.36 3.05,-1.29 6.45,-1.93 10.22,-1.93 5.04,0 9.06,1.2 12.04,3.61 2.98,2.41 4.47,5.68 4.47,9.81 0,2.57 -0.55,5 -1.65,7.29 -1.1,2.29 -3.19,4.91 -6.26,7.85l-14.73 14.17 24.7 0zm25.5 6.54c-3.81,0 -7.19,-0.98 -10.15,-2.92 -2.96,-1.95 -5.28,-4.78 -6.98,-8.5 -1.7,-3.71 -2.54,-8.12 -2.54,-13.21 0,-5.09 0.85,-9.5 2.54,-13.21 1.7,-3.72 4.02,-6.55 6.98,-8.5 2.96,-1.95 6.34,-2.93 10.15,-2.93 3.76,0 7.12,0.98 10.08,2.93 2.96,1.94 5.28,4.78 6.98,8.5 1.7,3.71 2.55,8.12 2.55,13.21 0,5.09 -0.85,9.5 -2.55,13.21 -1.7,3.72 -4.02,6.55 -6.98,8.5 -2.96,1.94 -6.32,2.92 -10.08,2.92zm0 -6.12c3.85,0 6.93,-1.58 9.25,-4.75 2.31,-3.16 3.48,-7.75 3.48,-13.76 0,-6.01 -1.16,-10.59 -3.48,-13.76 -2.32,-3.17 -5.4,-4.75 -9.25,-4.75 -3.9,0 -7.01,1.58 -9.32,4.75 -2.32,3.17 -3.48,7.75 -3.48,13.76 0,6.01 1.16,10.6 3.48,13.76 2.31,3.17 5.42,4.75 9.32,4.75zm60.24 -0.41l0 5.98 -34.61 0 0 -4.68 19.61 -18.92c2.39,-2.29 3.99,-4.28 4.82,-5.95 0.83,-1.67 1.24,-3.36 1.24,-5.06 0,-2.52 -0.88,-4.48 -2.65,-5.88 -1.76,-1.4 -4.3,-2.1 -7.6,-2.1 -5.32,0 -9.43,1.74 -12.32,5.23l-4.68 -4.06c1.88,-2.29 4.35,-4.08 7.4,-5.36 3.05,-1.29 6.45,-1.93 10.22,-1.93 5.04,0 9.06,1.2 12.04,3.61 2.98,2.41 4.47,5.68 4.47,9.81 0,2.57 -0.55,5 -1.65,7.29 -1.1,2.29 -3.19,4.91 -6.26,7.85l-14.72 14.17 24.7 0zm39.87 0l0 5.98 -34.61 0 0 -4.68 19.61 -18.92c2.39,-2.29 3.99,-4.28 4.82,-5.95 0.83,-1.67 1.24,-3.36 1.24,-5.06 0,-2.52 -0.88,-4.48 -2.65,-5.88 -1.76,-1.4 -4.3,-2.1 -7.6,-2.1 -5.32,0 -9.43,1.74 -12.32,5.23l-4.68 -4.06c1.88,-2.29 4.35,-4.08 7.4,-5.36 3.05,-1.29 6.45,-1.93 10.22,-1.93 5.04,0 9.06,1.2 12.04,3.61 2.98,2.41 4.47,5.68 4.47,9.81 0,2.57 -0.55,5 -1.65,7.29 -1.1,2.29 -3.19,4.91 -6.26,7.85l-14.72 14.17 24.7 0z"/>
  <path fill="#C8D3E7" fill-rule="nonzero" d="M713.87 710.36l-27.93 0 -5.78 13.14 -7.73 0 23.8 -52.56 7.43 0 23.88 52.56 -7.89 0 -5.78 -13.14zm-2.63 -6l-11.34 -25.76 -11.34 25.76 22.68 0zm70.85 -8.11c3.06,0.85 5.46,2.39 7.21,4.62 1.75,2.23 2.63,5.04 2.63,8.44 0,4.56 -1.72,8.06 -5.15,10.51 -3.43,2.45 -8.42,3.68 -14.98,3.68l-25.08 0 0 -52.56 23.57 0c6.01,0 10.65,1.2 13.93,3.6 3.28,2.4 4.92,5.73 4.92,9.99 0,2.75 -0.64,5.13 -1.91,7.13 -1.28,2 -2.99,3.53 -5.15,4.58zm-27.85 -19.22l0 16.82 15.39 0c3.85,0 6.82,-0.72 8.9,-2.14 2.07,-1.43 3.11,-3.52 3.11,-6.27 0,-2.75 -1.04,-4.84 -3.11,-6.27 -2.08,-1.43 -5.04,-2.14 -8.9,-2.14l-15.39 0zm17.27 40.4c4.26,0 7.46,-0.7 9.61,-2.1 2.15,-1.4 3.23,-3.6 3.23,-6.61 0,-5.86 -4.28,-8.79 -12.84,-8.79l-17.27 0 0 17.5 17.27 0zm88.65 -46.48l0 52.56 -7.51 0 0 -23.43 -30.19 0 0 23.43 -7.51 0 0 -52.56 7.51 0 0 22.6 30.19 0 0 -22.6 7.51 0zm123.3 0l-23.05 52.56 -7.43 0 -23.13 -52.56 8.11 0 18.92 43.17 19.07 -43.17 7.51 0zm18.06 0l7.51 0 0 52.56 -7.51 0 0 -52.56zm69.79 52.56l-11.34 -16.14c-1.4,0.1 -2.5,0.15 -3.3,0.15l-12.99 0 0 15.99 -7.51 0 0 -52.56 20.5 0c6.81,0 12.17,1.63 16.07,4.88 3.9,3.26 5.85,7.74 5.85,13.44 0,4.06 -1,7.51 -3,10.36 -2,2.85 -4.85,4.93 -8.56,6.23l12.46 17.65 -8.19 0zm-14.87 -22.37c4.76,0 8.39,-1.03 10.89,-3.08 2.5,-2.06 3.76,-4.98 3.76,-8.79 0,-3.8 -1.25,-6.72 -3.76,-8.75 -2.5,-2.03 -6.13,-3.04 -10.89,-3.04l-12.76 0 0 23.65 12.76 0zm55.38 -23.65l-18.02 0 0 -6.53 43.48 0 0 6.53 -18.02 0 0 46.03 -7.43 0 0 -46.03zm65.81 46.63c-7.01,0 -12.46,-2 -16.37,-6.01 -3.91,-4 -5.86,-9.76 -5.86,-17.27l0 -29.88 7.51 0 0 29.58c0,11.26 4.93,16.89 14.8,16.89 4.8,0 8.48,-1.39 11.04,-4.17 2.56,-2.78 3.83,-7.02 3.83,-12.73l0 -29.58 7.28 0 0 29.88c0,7.56 -1.95,13.33 -5.86,17.31 -3.91,3.98 -9.36,5.97 -16.37,5.97zm81.36 -13.74l-27.93 0 -5.78 13.14 -7.73 0 23.8 -52.56 7.43 0 23.88 52.56 -7.89 0 -5.78 -13.14zm-2.63 -6l-11.34 -25.76 -11.34 25.76 22.68 0zm35.48 -33.41l7.51 0 0 46.03 28.46 0 0 6.53 -35.96 0 0 -52.56z"/>
  <g id="_3025348494880">
   <path fill="#00ADB4" fill-rule="nonzero" d="M823.11 765.15l-131.14 0 0 43.93 79.01 0 0 110.81c0,19.67 -10.49,30.16 -27.54,30.16 -14.1,0 -32.46,-8.52 -48.52,-25.57l-23.93 36.72c19.34,22.62 44.26,35.74 75.07,35.74 47.54,0 77.04,-27.54 77.04,-75.73l0 -156.05zm308.31 0l0 229.49 109.17 0c53.44,0 86.55,-24.26 86.55,-63.6 0,-30.16 -18.36,-52.45 -47.87,-58.03 24.59,-6.23 39.67,-25.57 39.67,-50.49 0,-35.41 -31.47,-57.37 -81.96,-57.37l-105.56 0zm51.8 42.29l51.14 0c19.34,0 31.47,8.85 31.47,24.59 0,16.06 -12.13,25.57 -31.47,25.57l-51.14 0 0 -50.16zm0 90.16l51.14 0c24.59,0 39.34,10.16 39.34,26.88 0,17.7 -14.75,27.87 -39.34,27.87l-51.14 0 0 -54.75z"/>
   <path fill="none" fill-rule="nonzero" d="M975.13 763.51c-70.15,0 -123.27,49.5 -123.27,116.38 0,66.55 53.11,117.04 123.27,117.04 70.16,0 123.27,-50.82 123.27,-117.04 0,-66.55 -53.11,-116.38 -123.27,-116.38zm0.66 45.24c38.35,0 69.5,30.82 69.5,71.14 0,40.32 -31.15,71.8 -69.5,71.8 -38.35,0 -70.81,-31.47 -70.81,-71.8 0,-40.32 32.13,-71.14 70.81,-71.14z"/>
  </g>
  <path fill="#00ADB4" fill-rule="nonzero" d="M818.85 1065.18l0.3 -38.58 -148.15 0 0 206.18 46.54 0 0 -78.05 93.08 0 0 -38.88 -93.08 0 0 -50.66 101.32 0zm153.08 127.54l16.2 40.06 49.78 0 -88.07 -206.18 -48.01 0 -89.54 206.18 48.01 0 16.2 -40.06 95.43 0zm-15.02 -37.41l-65.09 0 32.69 -80.11 32.4 80.11zm148.06 77.47l0 -206.18 -46.53 0 0 206.18 46.53 0zm171.34 0l52.72 0 -43.89 -68.04c25.04,-11.78 38.58,-34.76 38.58,-66.57 0,-45.65 -30.63,-71.57 -84.53,-71.57l-89.54 0 0 206.18 46.54 0 0 -58.91 43 0 4.42 0 32.69 58.91zm-80.11 -97.79l0 -69.81 43 0c25.62,0 40.35,11.49 40.35,34.46 0,23.56 -14.73,35.34 -40.35,35.34l-43 0z"/>
  <path fill="#C8D3E7" d="M973.09 810.74c21.41,0 40.5,10.18 52.7,25.95l-1.02 -3.39 -2.22 -6.46 -2.52 -6.54 -2.8 -6.59 -3.09 -6.62 -3.35 -6.66 -3.61 -6.66 -3.86 -6.66 -4.1 -6.65 -4.33 -6.62 -4.55 -6.59 -4.76 -6.52 -1.63 -2.11c-3.6,-0.33 -7.24,-0.5 -10.92,-0.5 -65.77,0 -119.4,53.64 -119.4,119.41 0,65.76 53.64,119.4 119.4,119.4 63.01,0 114.88,-49.24 119.12,-111.2 -34.37,31.62 -80.63,63.77 -127.17,57.74 -32.89,-4.01 -58.51,-32.16 -58.51,-66.11 0,-36.7 29.93,-66.62 66.62,-66.62z"/>
  <path fill="#C8D3E7" d="M988.49 750.09c59.68,7.2 106.94,55.68 112.29,115.89l-17.78 16.18 -3.25 2.9 -3.31 2.88 -3.37 2.86 -3.42 2.83 -3.48 2.8 -3.53 2.76 -3.57 2.7 -3.62 2.65 -3.66 2.59 -3.71 2.51 -3.73 2.44 -3.77 2.36 -3.81 2.26 -3.82 2.16 -3.87 2.06 -3.88 1.95 -3.9 1.83 -2.65 1.15c41.53,-38.82 18.85,-112.99 -30.15,-175.76z"/>
  <path fill="#C8D3E7" d="M973.09 810.74c21.41,0 40.5,10.18 52.7,25.95l-1.02 -3.39 -2.22 -6.46 -2.52 -6.54 -2.8 -6.59 -3.09 -6.63 -3.35 -6.66 -3.61 -6.66 -3.86 -6.66 -4.1 -6.65 -4.33 -6.62 -4.55 -6.59 -4.76 -6.52 -1.63 -2.11c-3.6,-0.32 -7.24,-0.5 -10.92,-0.5 -65.77,0 -119.4,53.64 -119.4,119.41 0,65.76 53.64,119.4 119.4,119.4 63.01,0 114.88,-49.23 119.12,-111.2 -34.37,31.62 -80.63,63.78 -127.17,57.74 -32.89,-4.01 -58.51,-32.17 -58.51,-66.11 0,-36.7 29.93,-66.62 66.62,-66.62z"/>
  <path fill="#C8D3E7" d="M988.49 750.08c59.68,7.2 106.94,55.68 112.29,115.89l-17.78 16.19 -3.25 2.9 -3.31 2.88 -3.37 2.86 -3.42 2.83 -3.48 2.8 -3.53 2.76 -3.57 2.69 -3.62 2.65 -3.66 2.59 -3.71 2.51 -3.73 2.44 -3.77 2.36 -3.81 2.26 -3.82 2.16 -3.87 2.06 -3.88 1.95 -3.9 1.83 -2.65 1.16c41.53,-38.82 18.85,-112.99 -30.15,-175.76z"/>
  <path fill="#C8D3E7" d="M843.38 983.02c9.58,-9.87 25.36,-10.1 35.23,-0.52 9.87,9.58 10.1,25.36 0.52,35.23l-28.55 29.41c-9.58,9.87 -25.36,10.1 -35.23,0.52 -9.87,-9.58 -10.1,-25.36 -0.52,-35.23l28.55 -29.41z"/>
 </g>
</svg>
